<svg xmlns="http://www.w3.org/2000/svg" viewBox="0 0 500 368.71"><path d="M406.46,239.47l-25.14-7.77,28.08,1.48c-6.16-10.71-8.92-16-13.79-26.26,7,8,10.68,12.06,18.35,20.3a232.59,232.59,0,0,1,8.75-35.09,150.91,150.91,0,0,0-2.4,30.89l.52.1a251.17,251.17,0,0,1,27.05-26.45,203.1,203.1,0,0,0-24.49,32.25Q439.08,223,455,217.65c-10.65,5.82-21,11.8-31.4,18.1l26,8.28-26.89-1.62c5.66,6.63,8.6,10,14.7,16.7-7.56-5-11.29-7.48-18.67-12.43a172.14,172.14,0,0,0,3.7,20.53c-3.68-8.38-5.3-12.55-8.14-20.78-5.27,25.25-3.91,49.72,1.2,74.82l-6.33-1.14a196.53,196.53,0,0,1,3-74.08c-6.37,6.58-9.35,9.91-14.87,16.64A171.83,171.83,0,0,1,408,244.73c-9.05,2-13.54,3-22.41,5C393.7,245.59,397.88,243.53,406.46,239.47Z" transform="translate(0 -55)" style="fill:#ebebeb"/><path d="M397.54,248.19l23.25-12.33-27.31,6.7c4-11.67,5.77-17.37,8.65-28.37-5.4,9.17-8.25,13.85-14.25,23.37a230.14,230.14,0,0,0-15.14-32.84,151,151,0,0,1,8.13,29.9l-.5.19a251.79,251.79,0,0,0-31.51-20.93A202.65,202.65,0,0,1,378.94,241c-11-1.93-22.09-3.65-33.17-5.17,11.55,3.73,22.87,7.66,34.22,11.92l-24,13,26.11-6.61c-4.32,7.57-6.58,11.4-11.32,19.15,6.49-6.32,9.7-9.46,16-15.7a170.81,170.81,0,0,1,.2,20.86c2-8.92,2.87-13.32,4.11-21.94,9.9,23.83,13.13,48.13,12.8,73.74l6-2.3a196.56,196.56,0,0,0-16.74-72.22c7.48,5.26,11,8,17.71,13.56A168.67,168.67,0,0,0,397,253.64c9.26.26,13.86.41,22.95.74C411.22,251.82,406.73,250.58,397.54,248.19Z" transform="translate(0 -55)" style="fill:#f0f0f0"/><path d="M420.28,262l-16.95-9,19.91,4.89c-2.95-8.51-4.21-12.67-6.3-20.69,3.93,6.68,6,10.1,10.38,17a169.79,169.79,0,0,1,11-23.94,110.54,110.54,0,0,0-5.92,21.8l.36.14a182.66,182.66,0,0,1,23-15.26,147.94,147.94,0,0,0-21.93,19.76q12-2.1,24.18-3.77c-8.41,2.72-16.67,5.59-24.95,8.69l17.5,9.47-19-4.82c3.15,5.52,4.8,8.31,8.25,14-4.73-4.6-7.07-6.89-11.68-11.44A124.49,124.49,0,0,0,428,284c-1.5-6.51-2.09-9.72-3-16-7.22,17.37-9.57,35.09-9.33,53.76l-4.37-1.68a142.82,142.82,0,0,1,12.2-52.65c-5.45,3.84-8,5.82-12.91,9.89A123.29,123.29,0,0,1,420.65,266c-6.76.19-10.1.3-16.73.54C410.31,264.68,413.59,263.77,420.28,262Z" transform="translate(0 -55)" style="fill:#f5f5f5"/><polygon points="426.85 327.4 385.99 327.4 381.99 262.31 430.85 262.31 426.85 327.4" style="fill:#ebebeb"/><polygon points="434.02 265.67 378.42 265.67 377.42 257.01 435.02 257.01 434.02 265.67" style="fill:#f5f5f5"/><circle cx="260.25" cy="158.97" r="62.79" transform="translate(-36.18 175.58) rotate(-45)" style="fill:#f5f5f5"/><circle cx="260.25" cy="103.96" r="53.25" style="fill:#ebebeb"/><path d="M260.25,105.71c-.83,0-1.67,0-2.5.06a53.25,53.25,0,0,1,0,106.38c.83,0,1.67.06,2.5.06a53.25,53.25,0,0,0,0-106.5Z" transform="translate(0 -55)" style="fill:#e6e6e6"/><path d="M260.27,212.15h0c1.35-.07,2.68-.19,4-.35V163h46.59c.1-1.32.16-2.65.16-4s-.06-2.68-.16-4H264.25V106.13c-1.32-.17-2.65-.29-4-.36h-4V155H207.07v8h49.18v49.19Z" transform="translate(0 -55)" style="fill:#fafafa"/><rect x="252.25" y="50.77" width="4" height="49.19" style="fill:#e6e6e6"/><rect x="252.25" y="107.96" width="4" height="49.19" style="fill:#e6e6e6"/><rect x="78.4" y="194.86" width="69.17" height="125.73" style="fill:#f0f0f0"/><rect x="58.83" y="194.86" width="19.57" height="125.73" style="fill:#e6e6e6"/><rect x="85.05" y="204.99" width="55.33" height="33.15" style="fill:#fafafa"/><rect x="85.05" y="241.75" width="55.33" height="33.15" style="fill:#fafafa"/><rect x="85.05" y="278.52" width="55.33" height="33.15" style="fill:#fafafa"/><polygon points="85.05 327.4 139.31 327.4 140.38 320.57 85.05 320.57 85.05 327.4" style="fill:#e6e6e6"/><polygon points="66.73 327.4 85.05 327.4 85.05 320.57 65.65 320.57 66.73 327.4" style="fill:#e0e0e0"/><polygon points="103.2 194.85 104.84 176.18 81.16 176.18 79.52 194.85 103.2 194.85" style="fill:#f0f0f0"/><polygon points="103.2 194.85 104.84 176.18 106.11 176.18 104.48 194.85 103.2 194.85" style="fill:#e0e0e0"/><polygon points="100.96 192.95 102.26 178.09 83.4 178.09 82.1 192.95 100.96 192.95" style="fill:#fafafa"/><polygon points="99.51 191.73 100.6 179.31 84.85 179.31 83.76 191.73 99.51 191.73" style="fill:#e6e6e6"/><circle cx="113.61" cy="212.36" r="3.69" style="fill:#e0e0e0"/><circle cx="115.51" cy="212.36" r="3.69" style="fill:#f0f0f0"/><circle cx="113.61" cy="248.99" r="3.69" style="fill:#e0e0e0"/><circle cx="115.51" cy="248.99" r="3.69" style="fill:#f0f0f0"/><circle cx="113.61" cy="285.62" r="3.69" style="fill:#e0e0e0"/><circle cx="115.51" cy="285.62" r="3.69" style="fill:#f0f0f0"/><polygon points="129.9 194.85 106.11 194.85 108.75 164.69 132.54 164.69 129.9 194.85" style="fill:#e6e6e6"/><polygon points="129.9 194.85 131.04 194.85 133.68 164.69 132.54 164.69 129.9 194.85" style="fill:#e0e0e0"/><polygon points="127.75 191.78 108.81 191.78 110.91 167.76 129.85 167.76 127.75 191.78" style="fill:#f0f0f0"/><polygon points="126.36 189.8 110.54 189.8 112.3 169.74 128.12 169.74 126.36 189.8" style="fill:#fafafa"/><rect x="117.57" y="229.08" width="5.5" height="5.5" transform="translate(-128.69 97.98) rotate(-45)" style="fill:#ebebeb"/><polygon points="122.97 185.58 118.11 180.71 113.24 185.58 122.97 185.58" style="fill:#f0f0f0"/><rect x="416.78" y="343.49" width="33.12" height="0.25" style="fill:#ebebeb"/><rect x="322.53" y="346.21" width="8.69" height="0.25" style="fill:#ebebeb"/><rect x="396.59" y="334.21" width="19.19" height="0.25" style="fill:#ebebeb"/><rect x="52.46" y="335.89" width="43.19" height="0.25" style="fill:#ebebeb"/><rect x="104.56" y="335.89" width="6.33" height="0.25" style="fill:#ebebeb"/><rect x="131.47" y="340.11" width="93.68" height="0.25" style="fill:#ebebeb"/><path d="M237,337.8H43.92a5.71,5.71,0,0,1-5.71-5.71V60.66A5.72,5.72,0,0,1,43.92,55H237a5.71,5.71,0,0,1,5.71,5.71h0V332.09A5.71,5.71,0,0,1,237,337.8ZM43.92,55.2a5.48,5.48,0,0,0-5.46,5.46V332.09a5.48,5.48,0,0,0,5.46,5.46H237a5.48,5.48,0,0,0,5.46-5.46V60.66A5.48,5.48,0,0,0,237,55.2Z" transform="translate(0 -55)" style="fill:#ebebeb"/><path d="M453.31,337.8H260.21a5.73,5.73,0,0,1-5.71-5.71V60.66A5.72,5.72,0,0,1,260.21,55h193.1A5.71,5.71,0,0,1,459,60.66V332.09A5.7,5.7,0,0,1,453.31,337.8ZM260.21,55.2a5.48,5.48,0,0,0-5.46,5.46V332.09a5.48,5.48,0,0,0,5.46,5.46h193.1a5.48,5.48,0,0,0,5.46-5.46V60.66a5.48,5.48,0,0,0-5.46-5.46Z" transform="translate(0 -55)" style="fill:#ebebeb"/><rect y="327.4" width="500" height="0.25" style="fill:#ebebeb"/><ellipse cx="245.18" cy="357.39" rx="193.89" ry="11.32" style="fill:#f5f5f5"/><path d="M386.33,103.59h-7.69a13.17,13.17,0,0,1,13.31,13c0,.32,0,.64,0,1L379.68,351.2a14.93,14.93,0,0,1-14.75,14h7.69a14.94,14.94,0,0,0,14.76-14l12.24-233.58a13.16,13.16,0,0,0-12.28-14C387,103.6,386.67,103.59,386.33,103.59Z" transform="translate(0 -55)" style="fill:#90caf9"/><path d="M386.33,103.59h-7.69a13.17,13.17,0,0,1,13.31,13c0,.32,0,.64,0,1L379.68,351.2a14.93,14.93,0,0,1-14.75,14h7.69a14.94,14.94,0,0,0,14.76-14l12.24-233.58a13.16,13.16,0,0,0-12.28-14C387,103.6,386.67,103.59,386.33,103.59Z" transform="translate(0 -55)" style="fill:#fff;opacity:0.10000000149011612;isolation:isolate"/><path d="M370.33,365.22H276.11a13.16,13.16,0,0,1-13.32-13c0-.33,0-.67,0-1l12.24-233.58a15,15,0,0,1,14.76-14H384a13.17,13.17,0,0,1,13.31,13c0,.32,0,.64,0,1L385.08,351.2A14.93,14.93,0,0,1,370.33,365.22Z" transform="translate(0 -55)" style="fill:#90caf9"/><path d="M370.33,365.22H276.11a13.16,13.16,0,0,1-13.32-13c0-.33,0-.67,0-1l12.24-233.58a15,15,0,0,1,14.76-14H384a13.17,13.17,0,0,1,13.31,13c0,.32,0,.64,0,1L385.08,351.2A14.93,14.93,0,0,1,370.33,365.22Z" transform="translate(0 -55)" style="fill:#fff;opacity:0.4000000059604645;isolation:isolate"/><path d="M326.05,99.06h15.69c.77,0,.87-1.2.1-1.2H326.16c-.77,0-.88,1.2-.11,1.2Z" transform="translate(0 -55)" style="fill:#90caf9"/><path d="M347.48,99.06H352c.77,0,.87-1.2.1-1.2h-4.5c-.78,0-.88,1.2-.11,1.2Z" transform="translate(0 -55)" style="fill:#90caf9"/><g style="opacity:0.30000001192092896"><path d="M326.05,99.06h15.69c.77,0,.87-1.2.1-1.2H326.16c-.77,0-.88,1.2-.11,1.2Z" transform="translate(0 -55)" style="fill:#fff"/></g><g style="opacity:0.30000001192092896"><path d="M347.48,99.06H352c.77,0,.87-1.2.1-1.2h-4.5c-.78,0-.88,1.2-.11,1.2Z" transform="translate(0 -55)" style="fill:#fff"/></g><path d="M290.15,108.09a10.41,10.41,0,0,0-10.26,9.76L267.65,351.44a8.66,8.66,0,0,0,8,9.26c.25,0,.51,0,.77,0h94.22A10.4,10.4,0,0,0,380.92,351l12.25-233.58a8.69,8.69,0,0,0-8.07-9.27c-.24,0-.49,0-.73,0Z" transform="translate(0 -55)" style="fill:#90caf9"/><path d="M337.44,332.19A12.57,12.57,0,0,1,325,344a11.08,11.08,0,0,1-11.2-11,7.85,7.85,0,0,1,0-.84,12.58,12.58,0,0,1,12.42-11.8,11.09,11.09,0,0,1,11.22,11C337.46,331.63,337.46,331.91,337.44,332.19Z" transform="translate(0 -55)" style="fill:#fff"/><path d="M332.93,331.12c-3.48-2.43-10.73-2.43-14.47,0a3,3,0,0,0-2.48,2.79c-.08,1.57,6.43,1.57,6.51,0a2.66,2.66,0,0,0-.55-1.78,17.79,17.79,0,0,1,7.41,0,2.93,2.93,0,0,0-.74,1.78c-.08,1.57,6.43,1.57,6.51,0A2.67,2.67,0,0,0,332.93,331.12Z" transform="translate(0 -55)" style="fill:#90caf9"/><path d="M332.93,331.12c-3.48-2.43-10.73-2.43-14.47,0a3,3,0,0,0-2.48,2.79c-.08,1.57,6.43,1.57,6.51,0a2.66,2.66,0,0,0-.55-1.78,17.79,17.79,0,0,1,7.41,0,2.93,2.93,0,0,0-.74,1.78c-.08,1.57,6.43,1.57,6.51,0A2.67,2.67,0,0,0,332.93,331.12Z" transform="translate(0 -55)" style="opacity:0.20000000298023224;isolation:isolate"/><path d="M325.28,194.61c0,.88-.65,1.39-1.65,1.39a1.42,1.42,0,0,1-1.48-.85V195l-.69.4v.1a2.11,2.11,0,0,0,2.14,1.24,2.25,2.25,0,0,0,2.47-2s0-.09,0-.14l.28-5.2h-.79Z" transform="translate(0 -55)" style="fill:#fff"/><path d="M329.89,191.29A2.9,2.9,0,0,0,327,194a2.55,2.55,0,0,0,2.36,2.72h.25a2.89,2.89,0,0,0,2.88-2.73,2.55,2.55,0,0,0-2.38-2.71Zm-.25,4.74a1.85,1.85,0,0,1-1.89-1.81,1.15,1.15,0,0,1,0-.19,2.09,2.09,0,0,1,2.09-2,1.85,1.85,0,0,1,1.89,1.81,1.15,1.15,0,0,1,0,.19,2.1,2.1,0,0,1-2.09,2Z" transform="translate(0 -55)" style="fill:#fff"/><path d="M336,191.29a2.14,2.14,0,0,0-1.7.76l.14-2.64h-.75l-.38,7.24h.75l.14-2.76c.06-1.17.71-1.87,1.72-1.87a1.2,1.2,0,0,1,1.29,1.1,1,1,0,0,1,0,.3l-.17,3.23h.76l.17-3.23a1.85,1.85,0,0,0-1.57-2.11A1.7,1.7,0,0,0,336,191.29Z" transform="translate(0 -55)" style="fill:#fff"/><path d="M341.64,191.29a2.14,2.14,0,0,0-1.7.76v-.65h-.75l-.27,5.25h.75l.14-2.76c.06-1.17.71-1.87,1.72-1.87a1.2,1.2,0,0,1,1.29,1.1,1,1,0,0,1,0,.3l-.17,3.23h.76l.17-3.23a1.85,1.85,0,0,0-1.57-2.11A1.45,1.45,0,0,0,341.64,191.29Z" transform="translate(0 -55)" style="fill:#fff"/><ellipse cx="334.31" cy="159.95" rx="22" ry="20.88" transform="translate(-16.77 223.65) rotate(-44.25)" style="fill:#fff"/><ellipse cx="334.32" cy="159.96" rx="20.32" ry="19.28" transform="translate(-16.77 223.66) rotate(-44.25)" style="fill:#90caf9"/><ellipse cx="334.32" cy="159.96" rx="20.32" ry="19.28" transform="translate(-16.77 223.66) rotate(-44.25)" style="fill:#fff;opacity:0.699999988079071;isolation:isolate"/><path d="M333.27,179.75a21,21,0,0,0,17-8.94c-4.38-3.76-13.48-.2-18.32.91-3.68.85-6.51,3.55-8.17,5.55A19,19,0,0,0,333.27,179.75Z" transform="translate(0 -55)" style="fill:#fff;opacity:0.699999988079071;isolation:isolate"/><path d="M328.22,150.51s-5.64-1.74-8.26,2.79l4.22-.89s-3.39,2.3-.14,8c0,0-.85-5,2.84-6S328.22,150.51,328.22,150.51Z" transform="translate(0 -55)" style="fill:#263238"/><path d="M328.22,150.51s-5.64-1.74-8.26,2.79l4.22-.89s-3.39,2.3-.14,8c0,0-.85-5,2.84-6S328.22,150.51,328.22,150.51Z" transform="translate(0 -55)" style="opacity:0.30000001192092896;isolation:isolate"/><path d="M330.8,174.47a4.35,4.35,0,0,1,1.25-2.45,3.65,3.65,0,0,0-.78-2.4l8.06-6.43c.3,3.23.55,5.78,2.17,6.76-1.41,1.78-4,5-7.58,6.29S330.65,175.93,330.8,174.47Z" transform="translate(0 -55)" style="fill:#b55b52"/><path d="M332,171.68c5.15-.8,6.51-6.57,6.51-6.57l-4.77,2.52-2.5,2A3.63,3.63,0,0,1,332,171.68Z" transform="translate(0 -55)" style="opacity:0.10000000149011612;isolation:isolate"/><path d="M339.67,155.74c.31,4.89.4,8.23-2.34,10.93-5.46,5.38-9.37,3.53-11.26-1-1.68-4.1-1.9-11.41,2.94-14.41S339.36,150.84,339.67,155.74Z" transform="translate(0 -55)" style="fill:#b55b52"/><path d="M329.68,158.83c-.07-.42.11-.81.38-.87s.56.24.63.66-.1.81-.38.87S329.75,159.25,329.68,158.83Z" transform="translate(0 -55)" style="fill:#263238"/><path d="M326.31,159.63c.07.42-.11.81-.36.85s-.56-.24-.62-.66.1-.81.36-.85S326.25,159.21,326.31,159.63Z" transform="translate(0 -55)" style="fill:#263238"/><path d="M327.83,159.67l.58,3.53a4.17,4.17,0,0,1-1.25.31.44.44,0,0,1-.46-.42v0a.44.44,0,0,1,.09-.27A8.8,8.8,0,0,0,327.83,159.67Z" transform="translate(0 -55)" style="fill:#a02724"/><path d="M332.79,157a.16.16,0,0,0,.11-.05.23.23,0,0,0,0-.32l0,0h0a2.46,2.46,0,0,0-2.21-.62.26.26,0,0,0-.2.3h0a.26.26,0,0,0,.3.18h0a2,2,0,0,1,1.74.51A.23.23,0,0,0,332.79,157Z" transform="translate(0 -55)" style="fill:#263238"/><path d="M324.44,158.83a.3.3,0,0,0,.19-.16,2.12,2.12,0,0,1,1.39-1.25.28.28,0,0,0,.21-.3.26.26,0,0,0-.29-.2,2.67,2.67,0,0,0-1.77,1.57.23.23,0,0,0,.09.31h0A.32.32,0,0,0,324.44,158.83Z" transform="translate(0 -55)" style="fill:#263238"/><path d="M326.88,165.19a37.92,37.92,0,0,1,6.67-2,4.32,4.32,0,0,1-3.71,3.66,2.24,2.24,0,0,1-2.87-1.34s0-.08,0-.12S326.9,165.26,326.88,165.19Z" transform="translate(0 -55)" style="fill:#263238"/><path d="M330.79,165.4a5,5,0,0,0-2.64,1.38,2.83,2.83,0,0,0,1.68.06,4.93,4.93,0,0,0,2.63-1.37A2.73,2.73,0,0,0,330.79,165.4Z" transform="translate(0 -55)" style="fill:#a02724"/><path d="M327.1,165.1a1,1,0,0,0,.92.55,30,30,0,0,0,4.33-1.42,1.56,1.56,0,0,0,1-1A43.62,43.62,0,0,0,327.1,165.1Z" transform="translate(0 -55)" style="fill:#fff"/><path d="M338.66,161.82s-6.27-3.37-2.77-7.39,6.72.53,6.14,3.53A5.25,5.25,0,0,1,338.66,161.82Z" transform="translate(0 -55)" style="fill:#263238"/><path d="M338.66,161.82s-6.27-3.37-2.77-7.39,6.72.53,6.14,3.53A5.25,5.25,0,0,1,338.66,161.82Z" transform="translate(0 -55)" style="opacity:0.20000000298023224;isolation:isolate"/><path d="M342.41,160.52a5.39,5.39,0,0,1-2.78,2.78c-1.65.71-2.64-.68-2.32-2.32.29-1.49,1.5-3.64,3.22-3.65a2.15,2.15,0,0,1,2.13,2.15c0,.05,0,.1,0,.15A2.31,2.31,0,0,1,342.41,160.52Z" transform="translate(0 -55)" style="fill:#b55b52"/><path d="M331.13,146.71s-7-2.61-7.29,2.78,9.89,7.69,13.64,7.51,5.33,1,5.33,1,.27-4.41-.88-6.2S340.38,144.45,331.13,146.71Z" transform="translate(0 -55)" style="fill:#263238"/><path d="M321.07,125.54a3,3,0,0,1,3.06-2.89,2.55,2.55,0,0,1,2.33,1.35l-.38.21a2.17,2.17,0,0,0-2-1.15,2.57,2.57,0,0,0-2.61,2.48,2.27,2.27,0,0,0,2,2.47h.3a2.41,2.41,0,0,0,2.1-1.18l.37.22a2.91,2.91,0,0,1-2.49,1.37,2.68,2.68,0,0,1-2.74-2.6A2.81,2.81,0,0,1,321.07,125.54Z" transform="translate(0 -55)" style="fill:#fff"/><path d="M331.27,124.34l-.21,4h-.41l.05-.9a2.07,2.07,0,0,1-1.77,1,1.93,1.93,0,0,1-2-1.87.81.81,0,0,1,0-.22,2.2,2.2,0,0,1,2.18-2.09,1.79,1.79,0,0,1,1.66,1l.05-.9Zm-.51,2a1.59,1.59,0,0,0-1.46-1.7h-.14a1.8,1.8,0,0,0-1.79,1.7,1.59,1.59,0,0,0,1.5,1.66H329a1.79,1.79,0,0,0,1.76-1.66Z" transform="translate(0 -55)" style="fill:#fff"/><path d="M332.6,122.5h.4l-.31,5.84h-.4Z" transform="translate(0 -55)" style="fill:#fff"/><path d="M334.23,122.5h.4l-.31,5.84h-.4Z" transform="translate(0 -55)" style="fill:#fff"/><path d="M335.71,123.05a.35.35,0,0,1,.34-.31.29.29,0,0,1,.3.3h0a.33.33,0,0,1-.33.32.29.29,0,0,1-.31-.29Zm.06,1.29h.4l-.21,4h-.4Z" transform="translate(0 -55)" style="fill:#fff"/><path d="M340.7,125.85l-.13,2.49h-.41l.13-2.49a1,1,0,0,0-.76-1.19.82.82,0,0,0-.35,0,1.46,1.46,0,0,0-1.48,1.45.65.65,0,0,0,0,.14l-.11,2.11h-.4l.21-4h.4v.76a1.61,1.61,0,0,1,1.47-.85,1.39,1.39,0,0,1,1.44,1.33A1.22,1.22,0,0,1,340.7,125.85Z" transform="translate(0 -55)" style="fill:#fff"/><path d="M345.86,124.34l-.2,3.81a2,2,0,0,1-2.09,1.88,1.87,1.87,0,0,1-1.84-1l.37-.2a1.44,1.44,0,0,0,1.49.77,1.52,1.52,0,0,0,1.66-1.36.57.57,0,0,0,0-.13v-.74a2,2,0,0,1-1.77,1,1.89,1.89,0,0,1-2-2.09,2.18,2.18,0,0,1,2.18-2.09,1.78,1.78,0,0,1,1.66,1v-.93Zm-.51,2a1.59,1.59,0,0,0-1.46-1.7h-.14a1.8,1.8,0,0,0-1.79,1.7,1.58,1.58,0,0,0,1.46,1.7h.15a1.79,1.79,0,0,0,1.78-1.7Z" transform="translate(0 -55)" style="fill:#fff"/><path d="M346.78,128.06a.38.38,0,0,1,.38-.36.34.34,0,0,1,.34.34v0a.38.38,0,0,1-.38.36.33.33,0,0,1-.34-.32Z" transform="translate(0 -55)" style="fill:#fff"/><path d="M348.48,128.06a.38.38,0,0,1,.38-.36.34.34,0,0,1,.34.34v0a.38.38,0,0,1-.38.36.34.34,0,0,1-.34-.34Z" transform="translate(0 -55)" style="fill:#fff"/><path d="M350.19,128.06a.38.38,0,0,1,.38-.36.34.34,0,0,1,.34.34v0a.38.38,0,0,1-.38.36.33.33,0,0,1-.34-.32Z" transform="translate(0 -55)" style="fill:#fff"/><path d="M288.05,252.86h-1.11l-.07,1.44h-.27l.18-3.5h1.39a1,1,0,0,1,1,1,1.11,1.11,0,0,1-.83,1l.8,1.47h-.31Zm-1.1-.25h1.12a.82.82,0,0,0,.81-.78.74.74,0,0,0-.68-.78H287Z" transform="translate(0 -55)" style="fill:#fff"/><path d="M291.92,253.06v.12h-2.27a1,1,0,0,0,1.89.48l.21.13a1.28,1.28,0,0,1-1.12.57,1.19,1.19,0,0,1-1.24-1.13.54.54,0,0,1,0-.18,1.34,1.34,0,0,1,1.35-1.31h0a1.2,1.2,0,0,1,1.18,1.2S291.92,253,291.92,253.06Zm-2.27-.13h2a.92.92,0,0,0-.82-1h-.1a1.07,1.07,0,0,0-1.08,1Z" transform="translate(0 -55)" style="fill:#fff"/><path d="M292.33,253.05a1.37,1.37,0,0,1,1.39-1.31,1.1,1.1,0,0,1,1,.64l-.21.12a.9.9,0,0,0-.86-.52,1.11,1.11,0,0,0-1.11,1.07,1,1,0,0,0,.93,1.07h.07a1.07,1.07,0,0,0,.93-.53l.2.13a1.32,1.32,0,0,1-1.14.64,1.2,1.2,0,0,1-1.2-1.22Z" transform="translate(0 -55)" style="fill:#fff"/><path d="M295.11,253.05a1.38,1.38,0,0,1,1.39-1.31,1.22,1.22,0,0,1,1.24,1.2v.11a1.39,1.39,0,0,1-1.38,1.31,1.22,1.22,0,0,1-1.25-1.19Zm2.37,0a1,1,0,0,0-.93-1.07h-.07a1.11,1.11,0,0,0-1.11,1.07,1,1,0,0,0,.93,1.07h.07a1.11,1.11,0,0,0,1.11-1.07Z" transform="translate(0 -55)" style="fill:#fff"/><path d="M299.49,251.76V252a.87.87,0,0,0-.89.85v.06l-.07,1.39h-.25l.13-2.5h.25v.49A.87.87,0,0,1,299.49,251.76Z" transform="translate(0 -55)" style="fill:#fff"/><path d="M302.35,250.8l-.18,3.5h-.25v-.58a1.29,1.29,0,0,1-1.11.64,1.21,1.21,0,0,1-1.23-1.19v-.12a1.38,1.38,0,0,1,1.37-1.31,1.1,1.1,0,0,1,1,.64l.08-1.58Zm-.37,2.25a1,1,0,0,0-.93-1.07H301a1.12,1.12,0,0,0-1.12,1.07,1,1,0,0,0,.93,1.07h.07a1.13,1.13,0,0,0,1.14-1.07Z" transform="translate(0 -55)" style="fill:#fff"/><g style="opacity:0.6000000238418579"><path d="M322.49,250.8l-.18,3.5H322l.09-1.68h-2L320,254.3h-.27l.19-3.5h.26l-.08,1.57h2l.08-1.57Z" transform="translate(0 -55)" style="fill:#fff"/><path d="M323,253.05a1.38,1.38,0,0,1,1.39-1.31,1.22,1.22,0,0,1,1.24,1.2v.11a1.38,1.38,0,0,1-1.38,1.31,1.22,1.22,0,0,1-1.25-1.19Zm2.37,0a1,1,0,0,0-.93-1.07h-.07a1.11,1.11,0,0,0-1.11,1.07,1,1,0,0,0,.93,1.07h.07a1.12,1.12,0,0,0,1.13-1.07Z" transform="translate(0 -55)" style="fill:#fff"/><path d="M326.37,250.65h.25l-.19,3.65h-.25Z" transform="translate(0 -55)" style="fill:#fff"/><path d="M329.84,250.8l-.18,3.5h-.25v-.58a1.27,1.27,0,0,1-1.11.64,1.21,1.21,0,0,1-1.23-1.19v-.12a1.38,1.38,0,0,1,1.37-1.31,1.1,1.1,0,0,1,1,.64l.08-1.58Zm-.36,2.25a1,1,0,0,0-.93-1.07h-.07a1.12,1.12,0,0,0-1.12,1.07,1,1,0,0,0,.93,1.07h.07A1.14,1.14,0,0,0,329.48,253.05Z" transform="translate(0 -55)" style="fill:#fff"/><path d="M331.66,253.05a1.36,1.36,0,0,1,1.38-1.31,1.11,1.11,0,0,1,1.06.64l-.21.12a.92.92,0,0,0-.89-.5,1.11,1.11,0,0,0-1.12,1.07,1,1,0,0,0,.93,1.07h.07a1.09,1.09,0,0,0,.93-.53l.2.13a1.32,1.32,0,0,1-1.14.64,1.22,1.22,0,0,1-1.22-1.2C331.65,253.13,331.66,253.09,331.66,253.05Z" transform="translate(0 -55)" style="fill:#fff"/><path d="M337.13,251.8l-.13,2.5h-.26v-.57a1.28,1.28,0,0,1-1.1.63,1.21,1.21,0,0,1-1.23-1.21v-.1a1.38,1.38,0,0,1,1.36-1.31,1.15,1.15,0,0,1,1.05.62v-.56Zm-.32,1.25a1,1,0,0,0-.93-1.07h-.07a1.12,1.12,0,0,0-1.12,1.07,1,1,0,0,0,.93,1.07h.07A1.12,1.12,0,0,0,336.81,253.05Z" transform="translate(0 -55)" style="fill:#fff"/><path d="M338,250.65h.25L338,254.3h-.25Z" transform="translate(0 -55)" style="fill:#fff"/><path d="M339,250.65h.25L339,254.3h-.25Z" transform="translate(0 -55)" style="fill:#fff"/></g><path d="M356.31,253.34a1,1,0,0,1-1,1H353.8l.18-3.5h1.4a.85.85,0,0,1,.87.85v.07a.88.88,0,0,1-.49.76A.85.85,0,0,1,356.31,253.34Zm-2.08-2.29-.07,1.34h1.13a.71.71,0,0,0,.69-.67.62.62,0,0,0-.57-.67h-1.18Zm1.81,2.29a.65.65,0,0,0-.6-.7h-1.3l-.07,1.41h1.24a.74.74,0,0,0,.69-.71Z" transform="translate(0 -55)" style="fill:#fff"/><path d="M357.05,250.65h.25l-.19,3.65h-.26Z" transform="translate(0 -55)" style="fill:#fff"/><path d="M360.06,251.8l-.13,2.5h-.25v-.48a1,1,0,0,1-.92.54.88.88,0,0,1-.93-.81,1.21,1.21,0,0,1,0-.19l.08-1.55h.26l-.09,1.55a.66.66,0,0,0,.54.76h.16a.93.93,0,0,0,.93-.93v-.07l.07-1.32Z" transform="translate(0 -55)" style="fill:#fff"/><path d="M363.12,253.06v.12h-2.27a1,1,0,0,0,1.89.48l.21.13a1.31,1.31,0,0,1-1.12.57,1.2,1.2,0,0,1-1.25-1.14.49.49,0,0,1,0-.17,1.34,1.34,0,0,1,1.36-1.31,1.17,1.17,0,0,1,1.19,1.15A1,1,0,0,1,363.12,253.06Zm-2.26-.13h2a.93.93,0,0,0-.84-1h-.09A1.08,1.08,0,0,0,360.86,252.93Z" transform="translate(0 -55)" style="fill:#fff"/><path d="M364.22,252l-.09,1.63c0,.44.21.45.73.41v.22c-.67.1-1-.06-1-.63L364,252h-.55v-.24H364v-.63l.26-.07v.7H365V252Z" transform="translate(0 -55)" style="fill:#fff"/><path d="M365.19,253.05a1.38,1.38,0,0,1,1.38-1.31,1.22,1.22,0,0,1,1.25,1.19v.12a1.39,1.39,0,0,1-1.38,1.31,1.22,1.22,0,0,1-1.25-1.19Zm2.37,0a1,1,0,0,0-.93-1.07h-.07a1.14,1.14,0,0,0-1.12,1.07,1,1,0,0,0,.93,1.07h.07A1.12,1.12,0,0,0,367.56,253.05Z" transform="translate(0 -55)" style="fill:#fff"/><path d="M368.24,253.05a1.38,1.38,0,0,1,1.39-1.31,1.22,1.22,0,0,1,1.24,1.2v.11a1.38,1.38,0,0,1-1.38,1.31,1.23,1.23,0,0,1-1.25-1.21Zm2.38,0a1,1,0,0,0-.93-1.07h-.07a1.12,1.12,0,0,0-1.12,1.07,1,1,0,0,0,.93,1.07h.07A1.12,1.12,0,0,0,370.62,253.05Z" transform="translate(0 -55)" style="fill:#fff"/><path d="M372,252l-.09,1.63c0,.44.22.45.73.41v.22c-.66.1-1-.06-1-.63l.08-1.63h-.55v-.24h.55v-.63l.26-.07v.7h.75V252Z" transform="translate(0 -55)" style="fill:#fff"/><path d="M375.43,252.74l-.08,1.56h-.25l.08-1.56a.65.65,0,0,0-.55-.75h-.15a.93.93,0,0,0-.93.93V253l-.07,1.32h-.25l.19-3.5h.25l-.08,1.47a1,1,0,0,1,.93-.53.87.87,0,0,1,.92.82A1.09,1.09,0,0,1,375.43,252.74Z" transform="translate(0 -55)" style="fill:#fff"/><path d="M283.09,292.76l.23-.13a.94.94,0,0,0,1,.7c.58,0,.89-.3.91-.7s-.34-.58-.86-.75-1.09-.36-1.06-1a1,1,0,0,1,1.05-.94h.06a1.1,1.1,0,0,1,1.09.74l-.24.12a.86.86,0,0,0-.87-.6.74.74,0,0,0-.82.65v0c0,.42.32.55.82.72s1.14.4,1.1,1a1.06,1.06,0,0,1-1.11,1h-.09A1.17,1.17,0,0,1,283.09,292.76Z" transform="translate(0 -55)" style="fill:#fff"/><path d="M288.76,292.28a1.38,1.38,0,0,1-1.36,1.31,1.1,1.1,0,0,1-1-.64l-.09,1.58H286l.19-3.5h.25v.58a1.24,1.24,0,0,1,1.11-.64,1.21,1.21,0,0,1,1.21,1.21Zm-.25,0a1,1,0,0,0-.93-1.07h-.07a1.12,1.12,0,0,0-1.12,1.07,1,1,0,0,0,.93,1.07h.07A1.12,1.12,0,0,0,288.51,292.28Z" transform="translate(0 -55)" style="fill:#fff"/><path d="M291.73,292.29v.12h-2.27a1,1,0,0,0,1.89.48l.21.13a1.28,1.28,0,0,1-1.12.57,1.18,1.18,0,0,1-1.25-1.11,1.49,1.49,0,0,1,1.36-1.51h0a1.2,1.2,0,0,1,1.18,1.2S291.73,292.25,291.73,292.29Zm-2.27-.12h2a.92.92,0,0,0-.82-1h-.1a1.07,1.07,0,0,0-1.08,1Z" transform="translate(0 -55)" style="fill:#fff"/><path d="M294.83,291l-.13,2.5h-.25v-.56a1.3,1.3,0,0,1-1.11.62,1.21,1.21,0,0,1-1.23-1.21v-.1A1.38,1.38,0,0,1,293.5,291a1.15,1.15,0,0,1,1.05.62v-.56Zm-.32,1.25a1,1,0,0,0-.93-1.07h-.07a1.11,1.11,0,0,0-1.11,1.07,1,1,0,0,0,.93,1.07h.07a1.11,1.11,0,0,0,1.11-1Z" transform="translate(0 -55)" style="fill:#fff"/><path d="M297.05,293.53l-1.27-1.23-.06,1.23h-.25l.18-3.5h.25l-.11,2.14,1.33-1.14h.35l-1.41,1.2,1.33,1.3Z" transform="translate(0 -55)" style="fill:#fff"/><path d="M300.06,292.29v.12h-2.27a1,1,0,0,0,1.89.48l.21.13a1.31,1.31,0,0,1-1.12.57,1.18,1.18,0,0,1-1.25-1.12.61.61,0,0,1,0-.19A1.35,1.35,0,0,1,298.9,291a1.17,1.17,0,0,1,1.17,1.17S300.06,292.25,300.06,292.29Zm-2.26-.12h2a.93.93,0,0,0-.84-1h-.09A1.08,1.08,0,0,0,297.8,292.17Z" transform="translate(0 -55)" style="fill:#fff"/><path d="M301.8,291v.24a.87.87,0,0,0-.89.85v.06l-.07,1.39h-.25l.13-2.5H301v.49A.89.89,0,0,1,301.8,291Z" transform="translate(0 -55)" style="fill:#fff"/><g style="opacity:0.6000000238418579"><path d="M325.15,293.53h-.27l.16-3.11-1.4,2.15h-.05l-1.18-2.15-.17,3.11H322l.18-3.5h.33l1.15,2.07L325,290h.34Z" transform="translate(0 -55)" style="fill:#fff"/><path d="M328.15,291l-.13,2.5h-.25V293a1,1,0,0,1-.92.53.88.88,0,0,1-.93-.81,1.21,1.21,0,0,1,0-.19L326,291h.26l-.09,1.56a.65.65,0,0,0,.55.75h.15a.93.93,0,0,0,.93-.93v-.07l.07-1.32Z" transform="translate(0 -55)" style="fill:#fff"/><path d="M329.44,291.27l-.09,1.63c0,.44.21.45.73.41v.22c-.66.1-1-.06-1-.63l.08-1.63h-.55V291h.55v-.63l.26-.07v.7h.75v.24Z" transform="translate(0 -55)" style="fill:#fff"/><path d="M332.94,292.29v.12h-2.27a1,1,0,0,0,1.89.48l.22.13a1.31,1.31,0,0,1-1.12.57,1.18,1.18,0,0,1-1.25-1.12.61.61,0,0,1,0-.19,1.34,1.34,0,0,1,1.36-1.31,1.18,1.18,0,0,1,1.18,1.18A.66.66,0,0,1,332.94,292.29Zm-2.26-.12h2a.93.93,0,0,0-.84-1h-.09A1.08,1.08,0,0,0,330.68,292.17Z" transform="translate(0 -55)" style="fill:#fff"/></g><path d="M356.06,293.53l-1.67-1.73-.09,1.73H354l.18-3.5h.27l-.09,1.63,1.79-1.63h.36l-1.86,1.7,1.73,1.8Z" transform="translate(0 -55)" style="fill:#fff"/><path d="M359.05,292.29v.12h-2.27a1,1,0,0,0,1.89.48l.22.13a1.31,1.31,0,0,1-1.12.57,1.18,1.18,0,0,1-1.25-1.12.61.61,0,0,1,0-.19,1.34,1.34,0,0,1,1.36-1.31,1.18,1.18,0,0,1,1.18,1.18A.66.66,0,0,1,359.05,292.29Zm-2.26-.12h2a.93.93,0,0,0-.84-1h-.09a1.08,1.08,0,0,0-1.07,1Z" transform="translate(0 -55)" style="fill:#fff"/><path d="M361.7,291l-1.22,2.73a1.1,1.1,0,0,1-1,.77v-.23a.89.89,0,0,0,.78-.59l.06-.13-1-2.55h.27l.89,2.23,1-2.23Z" transform="translate(0 -55)" style="fill:#fff"/><path d="M364.71,292.28a1.38,1.38,0,0,1-1.37,1.31,1.1,1.1,0,0,1-1-.64l-.08,1.58H362l.18-3.5h.25v.58a1.27,1.27,0,0,1,1.11-.64,1.22,1.22,0,0,1,1.17,1.27Zm-.25,0a1,1,0,0,0-.93-1.07h-.07a1.14,1.14,0,0,0-1.12,1.07,1,1,0,0,0,.93,1.07h.07A1.12,1.12,0,0,0,364.46,292.28Z" transform="translate(0 -55)" style="fill:#fff"/><path d="M367.83,291l-.13,2.5h-.25v-.56a1.3,1.3,0,0,1-1.11.62,1.21,1.21,0,0,1-1.23-1.21v-.1A1.38,1.38,0,0,1,366.5,291a1.15,1.15,0,0,1,1.05.62v-.56Zm-.32,1.25a1,1,0,0,0-.93-1.07h-.07a1.14,1.14,0,0,0-1.12,1.07,1,1,0,0,0,.93,1.07h.07a1.11,1.11,0,0,0,1.12-1Z" transform="translate(0 -55)" style="fill:#fff"/><path d="M371.11,290l-.18,3.5h-.25v-.58a1.27,1.27,0,0,1-1.11.64,1.21,1.21,0,0,1-1.23-1.19v-.12a1.38,1.38,0,0,1,1.36-1.31,1.1,1.1,0,0,1,1,.64l.08-1.58Zm-.37,2.25a1,1,0,0,0-.93-1.07h-.07a1.12,1.12,0,0,0-1.12,1.07,1,1,0,0,0,.93,1.07h.07a1.12,1.12,0,0,0,1.12-1Z" transform="translate(0 -55)" style="fill:#fff"/><path d="M293.05,242.79a1.18,1.18,0,0,0-1.18,1.12,1.06,1.06,0,0,0,1,1.13h.1a1.19,1.19,0,0,0,1.18-1.13,1,1,0,0,0-.87-1.12Z" transform="translate(0 -55)" style="fill:#fff"/><path d="M297.14,242.79a1.18,1.18,0,0,0-1.18,1.12,1.05,1.05,0,0,0,1,1.09h0a1.19,1.19,0,0,0,1.18-1.13,1,1,0,0,0-.92-1.08Z" transform="translate(0 -55)" style="fill:#fff"/><path d="M299.47,240.64H291a.9.9,0,0,0-.9.85l-.26,4.85a.8.8,0,0,0,.75.85h8.57a.9.9,0,0,0,.9-.85l.26-4.85a.8.8,0,0,0-.75-.85ZM297,245.69h-4.1a1.66,1.66,0,0,1-1.68-1.66v-.12a1.9,1.9,0,0,1,1.87-1.77,1.66,1.66,0,0,1,1.68,1.66v.11a1.89,1.89,0,0,1-.48,1.13h1.38a1.7,1.7,0,0,1-.36-1.13,1.9,1.9,0,0,1,1.87-1.77,1.66,1.66,0,0,1,1.68,1.66v.11A1.9,1.9,0,0,1,297,245.69Z" transform="translate(0 -55)" style="fill:#fff"/><path d="M368,242.19l-3.45-2.35-.18,3.45h0l-2-1.38-.4.56,2.12,1.44-2.27,1.45.34.56,2.18-1.38h0l-.18,3.45,3.69-2.35-2.53-1.73Zm-2.84-1.1,1.62,1.1-1.73,1.1Zm-.29,5.64.11-2.19,1.61,1.1Z" transform="translate(0 -55)" style="fill:#fff"/><g style="opacity:0.6000000238418579"><polygon points="328.02 192.35 329.02 192.35 329.38 185.47 328.38 185.47 328.02 192.35" style="fill:#fff"/><polygon points="332.19 185.47 331.82 192.35 332.82 192.35 333.19 185.47 332.19 185.47" style="fill:#fff"/></g><path d="M292.7,279.94l-2.14,1.82H288.7l-.14,2.68h1.86l1.95,1.83a.28.28,0,0,0,.39,0,.25.25,0,0,0,.06-.2l.3-5.84a.25.25,0,0,0-.18-.31A.27.27,0,0,0,292.7,279.94Z" transform="translate(0 -55)" style="fill:#fff"/><path d="M294.22,281.33a2.55,2.55,0,0,1-.19,3.54c-.34.36.16.89.5.53a3.33,3.33,0,0,0,.25-4.6C294.47,280.44,293.91,281,294.22,281.33Z" transform="translate(0 -55)" style="fill:#fff"/><path d="M295.31,279.42a5.31,5.31,0,0,1-.39,7.36c-.34.36.16.89.5.54a6.11,6.11,0,0,0,.45-8.43C295.56,278.53,295,279.06,295.31,279.42Z" transform="translate(0 -55)" style="fill:#fff"/><g style="opacity:0.6000000238418579"><path d="M331.56,284.43a4.19,4.19,0,0,0,.48-1.54c.06-.58-.84-.57-.9,0a3.12,3.12,0,0,1-.23.86Z" transform="translate(0 -55)" style="fill:#fff"/><path d="M330.52,284.46c-1.43,1.78-4.77,1.27-4.78-1.57a.45.45,0,0,0-.9,0,3.51,3.51,0,0,0,2.28,3.4l-.05,1.12h2.27l.06-1.13a3.67,3.67,0,0,0,1.71-1.19Z" transform="translate(0 -55)" style="fill:#fff"/><path d="M327.53,280.19a1.28,1.28,0,0,1,1.08-.65,1.12,1.12,0,0,1,1.14,1.1v.1l-.09,1.69.66.69a2.14,2.14,0,0,0,.08-.44l.1-1.94a1.83,1.83,0,0,0-1.71-1.95h-.14a2,2,0,0,0-1.63.85Z" transform="translate(0 -55)" style="fill:#fff"/><path d="M329.94,283.84l-.52-.54h0l-2.08-2.19h0l-.67-.71h0l-1.1-1.17-.56.53,1.58,1.67-.07,1.24a1.84,1.84,0,0,0,1.73,1.95h.12a2,2,0,0,0,1-.27l2.24,2.36.56-.54-2.2-2.32Zm-1.55,0a1.14,1.14,0,0,1-1.14-1.14v-.55l1.52,1.61a1.29,1.29,0,0,1-.38.12Z" transform="translate(0 -55)" style="fill:#fff"/></g><path d="M360.89,279a.62.62,0,0,0-.59.57.52.52,0,0,0,.48.56h.05a.59.59,0,0,0,.6-.56.54.54,0,0,0-.51-.57Z" transform="translate(0 -55)" style="fill:#fff"/><path d="M360.77,281.36a.6.6,0,0,0-.59.56.54.54,0,0,0,.49.57h0a.59.59,0,0,0,.59-.57.52.52,0,0,0-.48-.56Z" transform="translate(0 -55)" style="fill:#fff"/><path d="M360.65,283.71a.6.6,0,0,0-.6.57.54.54,0,0,0,.52.56h0a.6.6,0,0,0,.59-.56.54.54,0,0,0-.49-.57Z" transform="translate(0 -55)" style="fill:#fff"/><path d="M363.08,279a.59.59,0,0,0-.59.57.52.52,0,0,0,.48.56h0a.62.62,0,0,0,.6-.56.54.54,0,0,0-.51-.57Z" transform="translate(0 -55)" style="fill:#fff"/><path d="M363,281.36a.62.62,0,0,0-.6.56.54.54,0,0,0,.51.57h0a.59.59,0,0,0,.59-.57.52.52,0,0,0-.48-.56Z" transform="translate(0 -55)" style="fill:#fff"/><path d="M362.83,283.71a.62.62,0,0,0-.59.57.53.53,0,0,0,.5.56h0a.6.6,0,0,0,.59-.56.54.54,0,0,0-.49-.57Z" transform="translate(0 -55)" style="fill:#fff"/><path d="M362.71,286.07a.6.6,0,0,0-.59.56.54.54,0,0,0,.49.57h0a.62.62,0,0,0,.6-.57.54.54,0,0,0-.52-.56Z" transform="translate(0 -55)" style="fill:#fff"/><path d="M365.21,280.13a.6.6,0,0,0,.59-.56.54.54,0,0,0-.49-.57h0a.59.59,0,0,0-.59.57.52.52,0,0,0,.48.56Z" transform="translate(0 -55)" style="fill:#fff"/><path d="M365.15,281.36a.62.62,0,0,0-.6.56.54.54,0,0,0,.51.57h0a.59.59,0,0,0,.59-.57.52.52,0,0,0-.48-.56Z" transform="translate(0 -55)" style="fill:#fff"/><path d="M365,283.71a.62.62,0,0,0-.59.57.52.52,0,0,0,.48.56h.05a.59.59,0,0,0,.6-.56.54.54,0,0,0-.51-.57Z" transform="translate(0 -55)" style="fill:#fff"/><g style="opacity:0.10000000149011612"><path d="M295.8,360.72h37.57L320.06,108.09H289.82a10.3,10.3,0,0,0-7.18,3Z" transform="translate(0 -55)" style="fill:#fff"/><polygon points="340.12 305.72 348.57 305.72 335.26 53.09 326.81 53.09 340.12 305.72" style="fill:#fff"/></g><path d="M202.17,369h20.5L211.9,281.23a7.83,7.83,0,0,0-7.56-6.73H114.89L128,369Z" transform="translate(0 -55)" style="fill:#90caf9"/><path d="M202.17,369h20.5L211.9,281.23a7.83,7.83,0,0,0-7.56-6.73H114.89L128,369Z" transform="translate(0 -55)" style="fill:#fff;opacity:0.10000000149011612;isolation:isolate"/><path d="M137.16,369h-20.5l-10.78-87.77a5.83,5.83,0,0,1,4.86-6.66,5.15,5.15,0,0,1,1-.07h7a7.83,7.83,0,0,1,7.55,6.73Z" transform="translate(0 -55)" style="fill:#90caf9"/><path d="M137.16,369h-20.5l-10.78-87.77a5.83,5.83,0,0,1,4.86-6.66,5.15,5.15,0,0,1,1-.07h7a7.83,7.83,0,0,1,7.55,6.73Z" transform="translate(0 -55)" style="opacity:0.20000000298023224;isolation:isolate"/><path d="M149.24,380.86l-3.71-42.45a4,4,0,0,0-3.52-3.66l-1.53-.2a5.43,5.43,0,0,1-4.72-4.91l-.68-7.74a5.44,5.44,0,0,1,5-5.88l.45,0H106.23a5.45,5.45,0,0,0-5.43,5.45c0,.15,0,.3,0,.45l.68,7.74a5.43,5.43,0,0,0,4.72,4.91l1.53.2a4,4,0,0,1,3.52,3.66L115,380.86a6,6,0,0,0,6,5.47h34.26A6,6,0,0,1,149.24,380.86Z" transform="translate(0 -55)" style="fill:#90caf9"/><g style="opacity:0.30000001192092896"><path d="M149.24,380.86l-3.71-42.45a4,4,0,0,0-3.52-3.66l-1.53-.2a5.43,5.43,0,0,1-4.72-4.91l-.68-7.74a5.44,5.44,0,0,1,5-5.88l.45,0H106.23a5.45,5.45,0,0,0-5.43,5.45c0,.15,0,.3,0,.45l.68,7.74a5.43,5.43,0,0,0,4.72,4.91l1.53.2a4,4,0,0,1,3.52,3.66L115,380.86a6,6,0,0,0,6,5.47h34.26A6,6,0,0,1,149.24,380.86Z" transform="translate(0 -55)"/></g><path d="M243.52,327.78A12.92,12.92,0,0,1,256.38,316H226.55a12.9,12.9,0,0,0-12.85,11.78l-2.95,33.65h29.83Z" transform="translate(0 -55)" style="fill:#90caf9"/><path d="M243.52,327.78A12.92,12.92,0,0,1,256.38,316H226.55a12.9,12.9,0,0,0-12.85,11.78l-2.95,33.65h29.83Z" transform="translate(0 -55)" style="opacity:0.30000001192092896;isolation:isolate"/><path d="M157.64,386.33h7v17.6a1.72,1.72,0,0,1-1.73,1.73h-2.53a2.73,2.73,0,0,1-2.73-2.73h0v-16.6Z" transform="translate(0 -55)" style="fill:#263238"/><path d="M246,386.33h7v17.6a1.72,1.72,0,0,1-1.73,1.73h-2.53a2.73,2.73,0,0,1-2.73-2.73h0v-16.6Z" transform="translate(0 -55)" style="fill:#263238"/><path d="M122.7,386.33h7v17.6a1.72,1.72,0,0,1-1.73,1.73h-2.53a2.73,2.73,0,0,1-2.73-2.73h0v-16.6Z" transform="translate(0 -55)" style="fill:#263238"/><path d="M211.09,386.33h7v17.6a1.72,1.72,0,0,1-1.73,1.73h-2.53a2.73,2.73,0,0,1-2.73-2.73h0v-16.6Z" transform="translate(0 -55)" style="fill:#263238"/><path d="M175.39,341.25H163.07a5.43,5.43,0,0,0-5.43,5.42V356a5.42,5.42,0,0,0,5.42,5.42h12.33Z" transform="translate(0 -55)" style="fill:#90caf9"/><path d="M175.39,341.25H163.07a5.43,5.43,0,0,0-5.43,5.42V356a5.42,5.42,0,0,0,5.42,5.42h12.33Z" transform="translate(0 -55)" style="opacity:0.30000001192092896;isolation:isolate"/><rect x="170.39" y="286.25" width="70.19" height="20.18" rx="5.42" style="fill:#90caf9"/><path d="M269.63,316H256.38a12.92,12.92,0,0,0-12.86,11.78l-2.94,33.65h-71l-2.94-33.65A12.91,12.91,0,0,0,153.74,316H140.49a5.45,5.45,0,0,0-5.43,5.45c0,.15,0,.3,0,.45l.68,7.74a5.43,5.43,0,0,0,4.72,4.91l1.53.2a4,4,0,0,1,3.52,3.66l3.71,42.45a6,6,0,0,0,6,5.47h99.7a6,6,0,0,0,6-5.47l3.71-42.45a4,4,0,0,1,3.52-3.66l1.53-.2a5.43,5.43,0,0,0,4.72-4.91l.68-7.74a5.43,5.43,0,0,0-4.94-5.88A4.7,4.7,0,0,0,269.63,316Z" transform="translate(0 -55)" style="fill:#90caf9"/><path d="M269.63,316H256.38a12.92,12.92,0,0,0-12.86,11.78l-2.94,33.65h-71l-2.94-33.65A12.91,12.91,0,0,0,153.74,316H140.49a5.45,5.45,0,0,0-5.43,5.45c0,.15,0,.3,0,.45l.68,7.74a5.43,5.43,0,0,0,4.72,4.91l1.53.2a4,4,0,0,1,3.52,3.66l3.71,42.45a6,6,0,0,0,6,5.47h99.7a6,6,0,0,0,6-5.47l3.71-42.45a4,4,0,0,1,3.52-3.66l1.53-.2a5.43,5.43,0,0,0,4.72-4.91l.68-7.74a5.43,5.43,0,0,0-4.94-5.88A4.7,4.7,0,0,0,269.63,316Z" transform="translate(0 -55)" style="opacity:0.10000000149011612;isolation:isolate"/><polygon points="272.68 342.54 281.66 339.24 283.71 346.94 275.74 349.5 272.68 342.54" style="fill:#fab27b"/><path d="M286,402.12a.22.22,0,0,1-.23-.12.21.21,0,0,1,0-.26c.12-.13,2.76-3.05,4.46-3.13a1.19,1.19,0,0,1,.86.29.85.85,0,0,1,.33,1c-.22.62-1.35,1.22-2.51,1.6A16,16,0,0,1,286,402.12Zm.62-.53c1.81-.35,4.16-1.13,4.39-1.87a.47.47,0,0,0-.2-.47.62.62,0,0,0-.53-.17,1.63,1.63,0,0,0-.44.08,10.86,10.86,0,0,0-3.2,2.43Z" transform="translate(0 -55)" style="fill:#90caf9"/><path d="M285.9,402.15a.23.23,0,0,1-.16-.17c0-.12-.6-2.72.27-4.08a1.74,1.74,0,0,1,1.11-.78c.63-.13.92.11,1,.36.54,1-1,3.73-2,4.59H286A.22.22,0,0,1,285.9,402.15Zm1.21-4.56a1.22,1.22,0,0,0-.67.53,5.36,5.36,0,0,0-.31,3.26c.93-1.06,1.89-3.12,1.62-3.73,0-.06-.11-.21-.52-.11h-.12Z" transform="translate(0 -55)" style="fill:#90caf9"/><path d="M284.65,401.13l-10.18,3.31a.86.86,0,0,0-.59.9l.85,8.88a1.43,1.43,0,0,0,1.55,1.3h0a1.59,1.59,0,0,0,.3-.06c3.65-1.25,6.85-2.52,11.42-4,5.39-1.75,4.23-.66,10.6-2.63,3.84-1.2,3.12-5.76,1.44-5.45-7.72,1.48-9.22-.51-12.94-2.23A3.39,3.39,0,0,0,284.65,401.13Z" transform="translate(0 -55)" style="fill:#263238"/><polygon points="281.66 339.24 272.68 342.54 273.97 345.47 282.53 342.5 281.66 339.24" style="opacity:0.10000000149011612;isolation:isolate"/><path d="M172.34,210.65s-.65-12,16.77-12.32,15.44,13.42,14.07,17.68,5.11,9.92,5.11,9.92-4.08.08-5.42-2.09,4.12,6,2.92,11.55-3.34,11-.37,15.47c0,0-5.34-2.59-5.13-7.69,0,0,.4,4.21-3.81,3.25s-16.19-5-24.14-2.74c-3.93,1.13-5.38-.92-5.65-3.61s-1.21-6.8-1-1.25a20.11,20.11,0,0,0,.27,2.68s-7-5-2-11c1.49-1.83,5.46-4.17,5.46-7.69S167.24,214.73,172.34,210.65Z" transform="translate(0 -55)" style="fill:#263238"/><path d="M173.79,211.62s-3.58-3-1.22-8.7c0,0-6.08,7.84,2.17,10.2Z" transform="translate(0 -55)" style="fill:#263238"/><path d="M243.49,279.86s-24.71,17.4-31,11.47-11-21.53-11-21.53l10.7-5.2L218,279.15a2.85,2.85,0,0,0,3.65,1.59l18.66-6.54a15.25,15.25,0,0,1,1.76-6.47c1-1.8,3.33-2.73,4.74-4.26,3.7-4,2.89,1.87,2.89,1.87l1,7.15a3.2,3.2,0,0,1-.28,1.78L249.14,277a3.14,3.14,0,0,1-1.94,1.68Z" transform="translate(0 -55)" style="fill:#fab27b"/><path d="M200.14,269s-5.43-13.77-.86-20.39,14.43,13.11,14.43,13.11l.84.43,1.38,2.56s-9.93,3.76-14.7,7.89l-1.5-3.17Z" transform="translate(0 -55)" style="fill:#263238"/><g style="opacity:0.20000000298023224"><path d="M200.14,269s-5.43-13.77-.86-20.39,14.43,13.11,14.43,13.11l.84.43,1.38,2.56s-9.93,3.76-14.7,7.89l-1.5-3.17Z" transform="translate(0 -55)" style="fill:#fff"/></g><path d="M193.69,316.92s58-7.53,66.11,4.58,22.7,73.3,22.7,73.3l-11.82,4.62s-19.68-36.95-25.63-60l-14.36-.6-39.38,2.95S175.38,323.54,193.69,316.92Z" transform="translate(0 -55)" style="fill:#90caf9"/><path d="M193.69,316.92s58-7.53,66.11,4.58,22.7,73.3,22.7,73.3l-11.82,4.62s-19.68-36.95-25.63-60l-14.36-.6-39.38,2.95S175.38,323.54,193.69,316.92Z" transform="translate(0 -55)" style="fill:#fff;opacity:0.4000000059604645;isolation:isolate"/><path d="M155.94,259.86c.22,5.87,4.91,16.69,6.76,27.1a138,138,0,0,1,2.17,24.77s31.72,8.07,46.23-.09a162,162,0,0,1-2.64-22.17c-.77-16.28-.44-36.25-4.06-40.29-6.3-7-20.2-7.64-33.59-6.71S155.73,254.14,155.94,259.86Z" transform="translate(0 -55)" style="fill:#263238"/><g style="opacity:0.10000000149011612"><path d="M155.94,259.86c.22,5.87,4.91,16.69,6.76,27.1a138,138,0,0,1,2.17,24.77s31.72,8.07,46.23-.09a162,162,0,0,1-2.64-22.17c-.77-16.28-.44-36.25-4.06-40.29-6.3-7-20.2-7.64-33.59-6.71S155.73,254.14,155.94,259.86Z" transform="translate(0 -55)" style="fill:#fff"/></g><path d="M267.57,396.11l14.81-5.84s2.91.85,1.79,4.41l-14.76,5.38S268.13,400,267.57,396.11Z" transform="translate(0 -55)" style="fill:#90caf9"/><path d="M152.09,263.68s-5.58,16.63-3.79,25.71,35.16,9.84,35.16,9.84,4.71,1.45,7.22,1a20.64,20.64,0,0,1,6.36.59,2.47,2.47,0,0,0,2.38-.78l1.52-1.69a2.51,2.51,0,0,0,.55-2.36c-.65-2.31-2.28-6.67-5.25-6.53-4,.19-12,3.9-12,3.9L163,285.84a3,3,0,0,1-2.21-3.62v0l3.92-16.39Z" transform="translate(0 -55)" style="fill:#fab27b"/><path d="M149.65,263.08s4.75-16.58,13.67-19.46,4,22.36,4,22.36l.47,1-.54,3.35s-11.85-3.57-19.19-3.14l.86-4Z" transform="translate(0 -55)" style="fill:#263238"/><g style="opacity:0.20000000298023224"><path d="M149.65,263.08s4.75-16.58,13.67-19.46,4,22.36,4,22.36l.47,1-.54,3.35s-11.85-3.57-19.19-3.14l.86-4Z" transform="translate(0 -55)" style="fill:#fff"/></g><path d="M194.87,243.65l-.6-.19c-5.31-1.8-4.83-5.58-3.6-9.28l-8.56-8.73c.54,5,1.11,16.51-3.1,16.59l1.79,1.52,3,3.57,7.48,7.56,1.08-.21,1.79-1.48,1.44-3.82Z" transform="translate(0 -55)" style="fill:#fab27b"/><path d="M180.08,241.68s8,6.2,11.33,12.49a14.27,14.27,0,0,0,2.2-6.54c.06-2.21-1.85-4.11-1.85-5.69l3.76,1.59s6.16,9.51,3.44,14.86c0,0-1.89-4.77-6.58-2.86a1.73,1.73,0,0,1-2-.27,1.46,1.46,0,0,0-.9-.5c-1.27-.21-4.12-.16-6.55,3.68,0,0-1.71-11-6.23-16.36Z" transform="translate(0 -55)" style="fill:#fff"/><path d="M185.62,229.05l5.09,5.17a16,16,0,0,0-.7,2.64c-2-.48-5-2.61-5-4.8A8.88,8.88,0,0,1,185.62,229.05Z" transform="translate(0 -55)" style="opacity:0.20000000298023224;isolation:isolate"/><path d="M177.75,217.75c2.07,7.91,2.77,11.3,7.62,14.61,7.3,5,16.56.72,16.91-7.65.3-7.53-3.13-19.19-11.59-20.84a11.15,11.15,0,0,0-12.94,13.88Z" transform="translate(0 -55)" style="fill:#fab27b"/><path d="M191.14,217.48c.13.64.58,1.1,1,1s.67-.67.53-1.33-.57-1.11-1-1S191,216.82,191.14,217.48Z" transform="translate(0 -55)" style="fill:#263238"/><path d="M198.51,216c.13.65.58,1.1,1,1s.67-.67.54-1.33-.57-1.11-1-1S198.38,215.37,198.51,216Z" transform="translate(0 -55)" style="fill:#263238"/><path d="M198.87,214.77l1.48-.76S199.78,215.39,198.87,214.77Z" transform="translate(0 -55)" style="fill:#263238"/><path d="M196,217.65a18,18,0,0,0,3.14,3.71,2.88,2.88,0,0,1-2.23.9Z" transform="translate(0 -55)" style="fill:#ed893e"/><path d="M186.71,215h-.16a.32.32,0,0,1-.11-.44h0a3.81,3.81,0,0,1,2.94-1.9.33.33,0,0,1,.33.32.32.32,0,0,1-.3.33A3.19,3.19,0,0,0,187,214.9.33.33,0,0,1,186.71,215Z" transform="translate(0 -55)" style="fill:#263238"/><path d="M200.56,212.34a.48.48,0,0,1-.17-.05,3.16,3.16,0,0,0-2.87-.19.33.33,0,0,1-.44-.12h0a.33.33,0,0,1,.15-.44,3.81,3.81,0,0,1,3.49.2.32.32,0,0,1,.14.43.35.35,0,0,1-.3.18Z" transform="translate(0 -55)" style="fill:#263238"/><path d="M191.5,216.22l1.48-.76S192.41,216.84,191.5,216.22Z" transform="translate(0 -55)" style="fill:#263238"/><path d="M197.15,227.06a4.85,4.85,0,0,0,.91-.3.19.19,0,0,0,.12-.24h0a.2.2,0,0,0-.25-.09,5.19,5.19,0,0,1-4.65-.26.2.2,0,0,0-.27,0,.19.19,0,0,0,0,.27.1.1,0,0,0,0,0A5.26,5.26,0,0,0,197.15,227.06Z" transform="translate(0 -55)" style="fill:#263238"/><path d="M185,206.52s2.23,2.35,8.83,4.06l-1.89-2.67s7.26,3.58,11.89,2.67c0,0-6.85-13.88-21.21-8.14,0,0-15.2,14-6.86,30,0,0,4.5,2.6,5.44-2.19,0,0,2,3.22,0,5.19a8.23,8.23,0,0,0,2.34-8.75c-1.73-5.46-.79-7.8,1.46-12.24A8.27,8.27,0,0,0,185,206.52Z" transform="translate(0 -55)" style="fill:#263238"/><polygon points="244.28 347.85 247.1 356.14 255.01 353.65 253.73 344.54 244.28 347.85" style="fill:#fab27b"/><path d="M257.9,408.63a.24.24,0,0,1-.23-.14.25.25,0,0,1,.06-.26c.13-.12,3-2.76,4.75-2.67a1.2,1.2,0,0,1,.83.37.86.86,0,0,1,.23,1c-.28.6-1.46,1.09-2.65,1.35A16.61,16.61,0,0,1,257.9,408.63Zm.67-.46c1.83-.17,4.24-.72,4.55-1.44a.51.51,0,0,0-.16-.49.7.7,0,0,0-.51-.22H262A10.68,10.68,0,0,0,258.57,408.17Z" transform="translate(0 -55)" style="fill:#90caf9"/><path d="M257.78,408.65a.23.23,0,0,1-.15-.19c0-.12-.33-2.76.67-4a1.73,1.73,0,0,1,1.18-.66c.64-.08.9.19,1,.45.45,1-1.4,3.61-2.43,4.37H258A.17.17,0,0,1,257.78,408.65Zm1.64-4.42a1.19,1.19,0,0,0-.72.46,5.42,5.42,0,0,0-.62,3.21c1-1,2.18-2.92,2-3.55,0-.06-.09-.22-.51-.16h-.13Z" transform="translate(0 -55)" style="fill:#90caf9"/><path d="M256.63,407.51l-10.46,2.3a.87.87,0,0,0-.68.83v8.93a1.43,1.43,0,0,0,1.42,1.44h.3c3.76-.89,7.06-1.83,11.76-2.86,5.54-1.21,4.28-.24,10.81-1.58,3.93-.81,3.67-5.43,2-5.28-7.82.71-9.12-1.41-12.66-3.49A3.42,3.42,0,0,0,256.63,407.51Z" transform="translate(0 -55)" style="fill:#263238"/><polygon points="253.73 344.54 244.28 347.85 245.55 351.59 254.28 348.44 253.73 344.54" style="opacity:0.10000000149011612;isolation:isolate"/><path d="M166.1,311.89S163.35,342,178,342.83s46.21-7.1,46.21-7.1,1.42,25,9.08,43.92,8.55,22.8,8.55,22.8l12.9-4.38s-4.91-67.41-14.36-78.68c-11.59-13.84-65.25-5.67-65.25-5.67Z" transform="translate(0 -55)" style="fill:#90caf9"/><path d="M166.1,311.89S163.35,342,178,342.83s46.21-7.1,46.21-7.1,1.42,25,9.08,43.92,8.55,22.8,8.55,22.8l12.9-4.38s-4.91-67.41-14.36-78.68c-11.59-13.84-65.25-5.67-65.25-5.67Z" transform="translate(0 -55)" style="fill:#fff;opacity:0.5;isolation:isolate"/><path d="M239.52,401.78l16.22-5.84a3.71,3.71,0,0,1,1,4.14l-15.62,5.8S239.27,405.4,239.52,401.78Z" transform="translate(0 -55)" style="fill:#90caf9"/><path d="M178.1,223.45a6,6,0,0,0,3.51,2.92c2,.6,3-1.18,2.53-3.1-.47-1.72-2.08-4.11-4.11-3.88a2.71,2.71,0,0,0-2.28,3.06A2.78,2.78,0,0,0,178.1,223.45Z" transform="translate(0 -55)" style="fill:#fab27b"/><path d="M241.39,255.26l6.76,1.21a.94.94,0,0,1,.76,1.09.61.61,0,0,1,0,.13l-4.27,15.51a1.17,1.17,0,0,1-1.29.86l-6.77-1.2a.94.94,0,0,1-.75-1.1l0-.12,4.26-15.52A1.19,1.19,0,0,1,241.39,255.26Z" transform="translate(0 -55)" style="fill:#90caf9"/><path d="M241.39,255.26l6.76,1.21a.94.94,0,0,1,.76,1.09.61.61,0,0,1,0,.13l-4.27,15.51a1.17,1.17,0,0,1-1.29.86l-6.77-1.2a.94.94,0,0,1-.75-1.1l0-.12,4.26-15.52A1.19,1.19,0,0,1,241.39,255.26Z" transform="translate(0 -55)" style="fill:#fff;opacity:0.5;isolation:isolate"/><path d="M236.55,272.86l6.77,1.2a1.06,1.06,0,0,0,.61-.09l-6.38-1.14a1,1,0,0,1-.73-1.21h0l4.27-15.51a1.19,1.19,0,0,1,.68-.77l-.38-.07a1.19,1.19,0,0,0-1.3.86l-4.26,15.52a.94.94,0,0,0,.6,1.19Z" transform="translate(0 -55)" style="fill:#90caf9"/><path d="M243,256.73a.68.68,0,0,1-.63.61.52.52,0,0,1-.54-.5v-.08a.68.68,0,0,1,.63-.61.52.52,0,0,1,.54.5Z" transform="translate(0 -55)" style="fill:#263238"/><path d="M213.11,304.31c-12.06,0-14.31-22.24-15.39-32.95-.16-1.58-.3-3-.44-3.91-1.06-7.26-6.16-18.6-9.28-24s-6.69-16.08-6.72-16.19l.33-.11c0,.11,3.5,10.62,6.69,16.12s8.26,16.8,9.33,24.1c.13,1,.27,2.34.44,3.93,1.07,10.6,3.29,32.63,15,32.63h.07c13.52-.11,24.5-30.62,24.61-30.92l.33.11a107.1,107.1,0,0,1-7.23,15.51c-6,10.34-11.92,15.6-17.7,15.65Z" transform="translate(0 -55)" style="fill:#90caf9"/><path d="M181.65,223.68c.2.61.81,1,.2,1.16a1.17,1.17,0,0,1-.88-2.17l.16,0C181.74,222.42,181.45,223.07,181.65,223.68Z" transform="translate(0 -55)" style="fill:#fff"/><path d="M180.36,223.83s-.36,0,.93,4l.52-.17s-1-2.85-.31-3.16A1.64,1.64,0,0,0,180.36,223.83Z" transform="translate(0 -55)" style="fill:#fff"/><path d="M195.13,240.59a22.1,22.1,0,0,0,.92-6.9l-.34.13a22.44,22.44,0,0,1-.92,6.67c-1.62,5.49,2,24.15,2.12,24.94l.34-.07C197.21,265.17,193.53,246,195.13,240.59Z" transform="translate(0 -55)" style="fill:#90caf9"/><polygon points="236.98 221.52 238.3 218.1 237.72 217.93 236.41 221.31 236.98 221.52" style="fill:#90caf9"/><polygon points="236.98 221.52 238.3 218.1 237.72 217.93 236.41 221.31 236.98 221.52" style="opacity:0.30000001192092896;isolation:isolate"/><polygon points="198.28 256.58 230.39 256.58 245.36 229.66 227.81 229.66 217.21 248.4 212.86 256.03 199.54 255.61 198.28 256.58" style="fill:#90caf9"/><polygon points="198.28 256.58 230.39 256.58 245.36 229.66 227.81 229.66 217.21 248.4 212.86 256.03 199.54 255.61 198.28 256.58" style="fill:#fff;opacity:0.6000000238418579;isolation:isolate"/><path d="M227.33,284.66l-14.71,25.5H181.51v.65a.79.79,0,0,0,.77.77h31.34l15-26.92Z" transform="translate(0 -55)" style="fill:#90caf9"/><path d="M225.3,165.13h-36a3.17,3.17,0,0,0-3.14,3l-.87,16.59a2.81,2.81,0,0,0,2.61,3h12.39l5.49,6.69,6.19-6.69h12.17a3.18,3.18,0,0,0,3.14-3l.87-16.59a2.8,2.8,0,0,0-2.59-3Z" transform="translate(0 -55)" style="fill:#90caf9"/><path d="M225.3,165.13h-36a3.17,3.17,0,0,0-3.14,3l-.87,16.59a2.81,2.81,0,0,0,2.61,3h12.39l5.49,6.69,6.19-6.69h12.17a3.18,3.18,0,0,0,3.14-3l.87-16.59a2.8,2.8,0,0,0-2.59-3Z" transform="translate(0 -55)" style="fill:#fff;opacity:0.699999988079071;isolation:isolate"/><path d="M199.49,176.31a1.33,1.33,0,1,1,1.33,1.33A1.34,1.34,0,0,1,199.49,176.31Z" transform="translate(0 -55)" style="fill:#90caf9"/><path d="M205.37,176.31a1.33,1.33,0,1,1,1.33,1.33A1.34,1.34,0,0,1,205.37,176.31Z" transform="translate(0 -55)" style="fill:#90caf9"/><path d="M211.25,176.31a1.33,1.33,0,1,1,1.33,1.33A1.34,1.34,0,0,1,211.25,176.31Z" transform="translate(0 -55)" style="fill:#90caf9"/></svg>