<svg xmlns="http://www.w3.org/2000/svg" width="418.401" height="291.998" viewBox="0 0 418.401 291.998">
  <g id="best-matches" transform="translate(-40.055 -27.954)">
    <path id="Path_276" data-name="Path 276" d="M972.8,30.649a62.842,62.842,0,0,1,10.941,1.006c25.965,4.613,43.3,20.479,42.637,40.84-1.481,14.149-9.208,25.188-19.418,33.169-5.377,4.2-12.02,7.53-18.174,12.369,1.735-10.68-3.856-16.618-11.4-22.044-25.827-18.571-37.178-38.01-31.58-51.412,4.06-9.721,14.647-13.928,27-13.928m0-2.7v0h0a40.757,40.757,0,0,0-17.778,3.586,23,23,0,0,0-11.705,12c-3.12,7.471-1.672,16.532,4.188,26.2,5.677,9.37,15.466,19.2,28.306,28.436,7.447,5.355,11.77,10.472,10.315,19.424l-.935,5.754a.423.423,0,0,0,.679.4l4.582-3.6a111.949,111.949,0,0,1,9.537-6.507c3.059-1.934,5.948-3.76,8.631-5.858A57,57,0,0,0,1022.238,92.8a47.426,47.426,0,0,0,6.819-20.027l.01-.1,0-.1a35.414,35.414,0,0,0-2.954-15.492,39.646,39.646,0,0,0-9.219-12.88c-8.011-7.575-19.314-12.834-32.686-15.209A65.527,65.527,0,0,0,972.8,27.954Z" transform="translate(-737.104)" fill="#ff6ccd"/>
    <g id="Group_111" data-name="Group 111" transform="translate(262.281 51.695)">
      <g id="Group_107" data-name="Group 107" transform="translate(54.101 217.935)">
        <path id="Path_277" data-name="Path 277" d="M1656.392,1424.8c-.046.141-.1.315.017-.053.029-.088.025-.075.01-.027a26.257,26.257,0,0,1,1.765-4.006l1.328-38.281,3.039.105-1.337,38.554h0c.268.585.589,1.793.693,2.1a6.451,6.451,0,0,1,.173,3.839,6.185,6.185,0,0,1-1.956-2.687,13.941,13.941,0,0,1-.841,2.589,15.239,15.239,0,0,1-.538-3.426,17.219,17.219,0,0,1-2.842,3.171A13.354,13.354,0,0,1,1656.392,1424.8Z" transform="translate(-1637.338 -1376.916)"/>
        <path id="Path_278" data-name="Path 278" d="M1554.676,1396.95c-.047.149-.1.333.017-.056.029-.093.025-.079.01-.029a28.656,28.656,0,0,1,1.772-4.234l1.4-40.421,3.039.105-1.412,40.71h0c.267.617.586,1.892.689,2.219a7.169,7.169,0,0,1,.165,4.053,6.492,6.492,0,0,1-1.95-2.833,15.353,15.353,0,0,1-.847,2.736,16.9,16.9,0,0,1-.531-3.616,17.981,17.981,0,0,1-2.848,3.353A14.785,14.785,0,0,1,1554.676,1396.95Z" transform="translate(-1554.182 -1352.211)"/>
      </g>
      <path id="Path_279" data-name="Path 279" d="M1464.777,556.157a.583.583,0,0,0-1.1-.19c-6.283,12.059-15.534,18.056-26.88,19.775-10.9,1.217-18.974-9.338-28.4-22.351-23.711-32.722-53.848-48.567-74.7-39.238-27.391,12.257-38.685,41.1-38.128,72.593.643,36.289,20.265,68.6,51.834,79.447,37.457,12.867,78.371,8.753,98.425-20.856C1464.9,617.186,1468.92,586.419,1464.777,556.157Z" transform="translate(-1288.652 -446.999)" fill="#d7ace0"/>
      <path id="Path_280" data-name="Path 280" d="M1845.13,851.394a.494.494,0,0,1,.427-.755c9.418.093,13.045-5.157,8.274-13.916-7.705-14.144-32-18.758-41.43-14.285a2.88,2.88,0,0,0-1.348,1.336c-5.338,10.905,3.345,52.135,18.545,56.758,9.727,2.959,12.671-4.116,7.567-12.747a.5.5,0,0,1,.421-.748C1850.058,866.917,1851.028,860.913,1845.13,851.394Z" transform="translate(-1708.78 -699.841)" fill="#fff"/>
      <path id="Path_281" data-name="Path 281" d="M1276.887,696.288l-18.764-1.563a.358.358,0,0,0-.278.614l13.611,13.1a.358.358,0,0,0,.575-.112l5.152-11.535A.357.357,0,0,0,1276.887,696.288Z" transform="translate(-1257.735 -596.779)" fill="#fec417"/>
      <path id="Path_282" data-name="Path 282" d="M2184.12,575.586c1.807-4.38,7.256-6.017,13.883-8.542,7.478-2.849,7.4-8.053,2.07-13.334-3.008-2.982-5.742-2.149-10.46,1.063,1.462-8.744-4.274-12.828-9.895-10.767-5.57,2.042-5.473,10.519-2.938,15.922C2178.736,564.1,2181.663,569.448,2184.12,575.586Z" transform="translate(-2007.693 -473.139)" fill="#f784af"/>
      <path id="Path_283" data-name="Path 283" d="M1428.737,720.145c-2.688,1.465-5.465,2.974-7.263,5.551a10.361,10.361,0,0,0-1.632,3.631,14.824,14.824,0,0,0-.151,5.258c.091.677.226,1.345.36,2.015l-.055-.188c.835,2.189,1.952,4.506,4.212,5.508a6.748,6.748,0,0,0,3.993.269,22.748,22.748,0,0,0,5.091-1.736c.594-.264,1.175-.556,1.77-.818a20.248,20.248,0,0,1-4.277,3.4,10.9,10.9,0,0,1-4.076,1.511,8.042,8.042,0,0,1-4.064-.466,7.559,7.559,0,0,1-2.811-2.019,12.565,12.565,0,0,1-2.87-5.473,14.444,14.444,0,0,1,1.3-10.336c2.194-3.677,6.329-5.63,10.47-6.107C1428.531,720.257,1428.268,720.2,1428.737,720.145Z" transform="translate(-1387.579 -617.562)"/>
      <ellipse id="Ellipse_17" data-name="Ellipse 17" cx="5.658" cy="9.77" rx="5.658" ry="9.77" transform="translate(17.235 125.041) rotate(-19.439)" fill="#fff"/>
      <g id="Group_110" data-name="Group 110" transform="translate(39.085)">
        <g id="Group_108" data-name="Group 108" transform="translate(0 58.003)">
          <path id="Path_284" data-name="Path 284" d="M1537.823,503.246c-4.922,0-16.747-3.013-30.126-7.676-14.1-4.914-25.88-10.2-31.516-14.153a.726.726,0,0,1,0-1.19,3.194,3.194,0,0,1,1.811-.38c3.884,0,13.041,2.414,18.828,4.581a.725.725,0,0,1,.464.786l-.19,1.282,22.708,8.352.31-1.461a.726.726,0,0,1,1.013-.509c6.44,2.954,13.511,6.341,17.133,9.063a.726.726,0,0,1-.437,1.306Z" transform="translate(-1475.148 -479.121)" fill="#692cbd"/>
          <path id="Path_285" data-name="Path 285" d="M1474.751,477.321c3.619,0,12.642,2.314,18.574,4.535l-.276,1.866,24.048,8.845.484-2.28c7.223,3.314,13.646,6.463,17,8.983-10.3,0-48.994-13.13-61.225-21.7a2.7,2.7,0,0,1,1.4-.25m0-1.451v0h0a3.782,3.782,0,0,0-2.225.51,1.451,1.451,0,0,0,0,2.38c5.688,3.985,17.536,9.31,31.693,14.244,10.7,3.73,24.3,7.717,30.365,7.717a1.451,1.451,0,0,0,.872-2.611c-3.677-2.763-10.791-6.172-17.266-9.142a1.451,1.451,0,0,0-2.025,1.018l-.136.641-21.367-7.859.1-.7a1.451,1.451,0,0,0-.927-1.572c-5.846-2.188-15.12-4.627-19.082-4.627Z" transform="translate(-1471.903 -475.87)" fill="#d28aff"/>
        </g>
        <g id="Group_109" data-name="Group 109" transform="translate(22.182)">
          <path id="Path_286" data-name="Path 286" d="M1618.393,233.539a.723.723,0,0,1-.255-.046l-20.247-7.6a.726.726,0,0,1-.466-.762l7.187-62.469a.725.725,0,0,1,.985-.593l35.1,13.751a.725.725,0,0,1,.411.94l-22.044,56.319A.726.726,0,0,1,1618.393,233.539Z" transform="translate(-1596.696 -161.292)" fill="#692cbd"/>
          <path id="Path_287" data-name="Path 287" d="M1602.086,159.492l35.1,13.751-22.044,56.319-20.247-7.6,7.187-62.469m0-1.451a1.451,1.451,0,0,0-1.442,1.285l-7.187,62.469a1.451,1.451,0,0,0,.932,1.524l20.247,7.6a1.45,1.45,0,0,0,1.861-.83l22.044-56.319a1.451,1.451,0,0,0-.822-1.88l-35.1-13.751a1.455,1.455,0,0,0-.529-.1Z" transform="translate(-1593.448 -158.041)" fill="#d28aff"/>
        </g>
      </g>
    </g>
    <path id="Path_288" data-name="Path 288" d="M1107.531,159.478c-.95-12.007,6.461-17.6,14.131-14.132,8.735,3.954,7.884,16.153,1.071,26.363a83.038,83.038,0,0,0-8.154,16.861c-1.94-5.451-7.5-8.854-15.064-11.126-9.626-2.691-13.717-7.9-9.813-15.341C1093.492,154.879,1101.044,154.383,1107.531,159.478Z" transform="translate(-856.888 -95.137)" fill="#f784af"/>
    <g id="Group_188" data-name="Group 188" transform="translate(40.055 117.234)">
      <g id="Group_113" data-name="Group 113">
        <g id="Group_112" data-name="Group 112" transform="translate(110.843 153.362)">
          <path id="Path_289" data-name="Path 289" d="M653.344,1426.648c.042.143.093.319-.015-.053-.026-.089-.023-.076-.009-.028a26.264,26.264,0,0,0-1.625-4.065v-38.3h-3.041v38.577h0c-.288.576-.651,1.772-.765,2.078a6.45,6.45,0,0,0-.306,3.831,6.185,6.185,0,0,0,2.047-2.617,13.938,13.938,0,0,0,.751,2.617,15.244,15.244,0,0,0,.656-3.406,17.213,17.213,0,0,0,2.73,3.267A13.566,13.566,0,0,0,653.344,1426.648Z" transform="translate(-647.415 -1379.326)"/>
          <path id="Path_290" data-name="Path 290" d="M755.579,1402.324c.041.151.093.337-.015-.056-.026-.094-.023-.08-.009-.029a28.664,28.664,0,0,0-1.625-4.292V1357.5H750.89v40.734h0c-.288.608-.651,1.871-.765,2.194a7.168,7.168,0,0,0-.306,4.045,6.491,6.491,0,0,0,2.047-2.763,15.351,15.351,0,0,0,.751,2.763,16.89,16.89,0,0,0,.656-3.6,17.983,17.983,0,0,0,2.73,3.45A15.037,15.037,0,0,0,755.579,1402.324Z" transform="translate(-730.992 -1357.5)"/>
        </g>
        <path id="Path_291" data-name="Path 291" d="M135.514,557.709a.583.583,0,0,1,1.1-.152c5.861,12.27,14.9,18.583,26.178,20.7,10.855,1.594,19.287-8.675,29.162-21.353,24.831-31.88,55.5-46.671,76.013-36.625,26.95,13.2,37.237,42.418,35.588,73.871-1.9,36.244-22.631,67.859-54.557,77.6-37.881,11.561-78.627,6.03-97.642-24.255C133.276,618.7,130.325,587.809,135.514,557.709Z" transform="translate(-116.22 -517.159)" fill="#fbc2e2"/>
        <path id="Path_292" data-name="Path 292" d="M308.393,845.633a.494.494,0,0,0-.4-.769c-9.415-.234-12.859-5.606-7.786-14.194,8.191-13.868,32.633-17.638,41.9-12.84a2.88,2.88,0,0,1,1.3,1.382c4.957,11.084-5.15,51.988-20.5,56.081-9.824,2.62-12.52-4.553-7.12-13a.5.5,0,0,0-.395-.762C302.932,860.976,302.168,854.942,308.393,845.633Z" transform="translate(-250.818 -761.336)" fill="#f784af"/>
        <path id="Path_293" data-name="Path 293" d="M852.13,754.36a10.858,10.858,0,0,0,.43-1.651c.034-.186,0-.852.216-.841l1.442.067,2.888.135-2.624-.65-1.5-.372c-.044-.011-.193-.021-.226-.056A13.845,13.845,0,0,0,852.7,749a15.43,15.43,0,0,0-.273-1.757c-.033-.154-.3-.828-.165-.929l1.051-.8,2.278-1.736-3.633,1.727a18.888,18.888,0,0,0-1.534-3.455q-.459-.807-.988-1.571c-.11-.16-.7-.773-.57-.91l2.1-2.183-2.7,1.542c-.05.029-1.067-1.147-1.184-1.265-.484-.487-1-.944-1.522-1.386a21.107,21.107,0,0,0-2.77-1.932c4.457,4.217,8.4,9.806,8.325,16.209a8.933,8.933,0,0,1-4.13,7.895c-2.63,1.513-5.726,1.474-8.652,1.188a15.284,15.284,0,0,0,5.22.851,11.207,11.207,0,0,0,1.421-.135,4.479,4.479,0,0,1,1.014-.191l.547.647,3.39,4.011-2.953-5a8.734,8.734,0,0,0,1.884-1.007c.156-.11,1.347-1.182,1.371-1.167l1.361.868,3.277,2.09-2.585-2.349-1.338-1.215c-.257-.234.024-.354.2-.635a9.7,9.7,0,0,0,.989-2.045C852.412,753.554,851.812,755.279,852.13,754.36Z" transform="translate(-692.644 -694.709)"/>
        <path id="Path_294" data-name="Path 294" d="M1005.693,712.234l18.807-.912a.358.358,0,0,1,.256.624L1010.7,724.564a.358.358,0,0,1-.571-.132l-4.75-11.706A.358.358,0,0,1,1005.693,712.234Z" transform="translate(-829.186 -675.887)" fill="#fec417"/>
        <path id="Path_295" data-name="Path 295" d="M59.281,559.032c-1.654-4.44-7.043-6.265-13.579-9.018-7.375-3.106-7.112-8.3-1.607-13.4,3.11-2.876,5.813-1.949,10.417,1.425-1.158-8.79,4.716-12.672,10.262-10.417,5.5,2.234,5.1,10.7,2.384,16.015C65.059,547.738,61.949,552.982,59.281,559.032Z" transform="translate(-40.055 -525.2)" fill="#f784af"/>
        <ellipse id="Ellipse_18" data-name="Ellipse 18" cx="5.658" cy="9.77" rx="5.658" ry="9.77" transform="matrix(0.999, 0.053, -0.053, 0.999, 164.039, 59.171)" fill="#fff"/>
      </g>
      <g id="Group_147" data-name="Group 147" transform="translate(102.216 6.586)">
        <g id="Group_124" data-name="Group 124">
          <g id="Group_122" data-name="Group 122">
            <g id="Group_115" data-name="Group 115" transform="translate(10.798 15.86)">
              <g id="Group_114" data-name="Group 114">
                <path id="Path_296" data-name="Path 296" d="M666.563,658.533c-2.977,0-5.4-3.709-5.4-8.267s2.422-8.267,5.4-8.267,5.4,3.709,5.4,8.267S669.54,658.533,666.563,658.533Z" transform="translate(-660.827 -641.661)" fill="#ffe363"/>
                <path id="Path_297" data-name="Path 297" d="M665.052,640.824c2.8,0,5.062,3.55,5.062,7.93s-2.266,7.93-5.062,7.93-5.062-3.55-5.062-7.93,2.266-7.93,5.062-7.93m0-.675a5.017,5.017,0,0,0-4.148,2.634,12.014,12.014,0,0,0,0,11.941,4.583,4.583,0,0,0,8.3,0,12.014,12.014,0,0,0,0-11.941,5.017,5.017,0,0,0-4.148-2.634Z" transform="translate(-659.315 -640.149)" fill="#ec869a"/>
              </g>
            </g>
            <g id="Group_117" data-name="Group 117" transform="translate(0 10.798)">
              <g id="Group_116" data-name="Group 116">
                <path id="Path_298" data-name="Path 298" d="M610.263,625.061c-4.559,0-8.267-2.422-8.267-5.4s3.709-5.4,8.267-5.4,8.267,2.422,8.267,5.4S614.822,625.061,610.263,625.061Z" transform="translate(-601.658 -613.926)" fill="#ffe363"/>
                <path id="Path_299" data-name="Path 299" d="M608.752,613.089c4.38,0,7.93,2.266,7.93,5.062s-3.55,5.062-7.93,5.062-7.93-2.266-7.93-5.062,3.55-5.062,7.93-5.062m0-.675a11.216,11.216,0,0,0-5.97,1.589,4.583,4.583,0,0,0,0,8.3,12.014,12.014,0,0,0,11.941,0,4.583,4.583,0,0,0,0-8.3,11.215,11.215,0,0,0-5.97-1.589Z" transform="translate(-600.147 -612.414)" fill="#ec869a"/>
              </g>
            </g>
            <g id="Group_119" data-name="Group 119" transform="translate(10.798)">
              <g id="Group_118" data-name="Group 118">
                <path id="Path_300" data-name="Path 300" d="M666.563,571.628c-2.977,0-5.4-3.709-5.4-8.267s2.422-8.267,5.4-8.267,5.4,3.709,5.4,8.267S669.54,571.628,666.563,571.628Z" transform="translate(-660.827 -554.756)" fill="#ffe363"/>
                <path id="Path_301" data-name="Path 301" d="M665.052,553.92c2.8,0,5.062,3.55,5.062,7.93s-2.266,7.93-5.062,7.93-5.062-3.55-5.062-7.93,2.266-7.93,5.062-7.93m0-.675a5.017,5.017,0,0,0-4.148,2.634,12.014,12.014,0,0,0,0,11.941,4.583,4.583,0,0,0,8.3,0,12.014,12.014,0,0,0,0-11.941,5.017,5.017,0,0,0-4.148-2.634Z" transform="translate(-659.315 -553.245)" fill="#ec869a"/>
              </g>
            </g>
            <g id="Group_121" data-name="Group 121" transform="translate(15.86 10.798)">
              <g id="Group_120" data-name="Group 120">
                <path id="Path_302" data-name="Path 302" d="M697.167,625.061c-4.559,0-8.267-2.422-8.267-5.4s3.709-5.4,8.267-5.4,8.267,2.422,8.267,5.4S701.726,625.061,697.167,625.061Z" transform="translate(-688.563 -613.926)" fill="#ffe363"/>
                <path id="Path_303" data-name="Path 303" d="M695.656,613.089c4.38,0,7.93,2.266,7.93,5.062s-3.55,5.062-7.93,5.062-7.93-2.266-7.93-5.062,3.55-5.062,7.93-5.062m0-.675a11.216,11.216,0,0,0-5.97,1.589,4.583,4.583,0,0,0,0,8.3,12.014,12.014,0,0,0,11.941,0,4.583,4.583,0,0,0,0-8.3,11.215,11.215,0,0,0-5.97-1.589Z" transform="translate(-687.051 -612.414)" fill="#ec869a"/>
              </g>
            </g>
          </g>
          <g id="Group_123" data-name="Group 123" transform="translate(10.348 10.348)">
            <path id="Path_304" data-name="Path 304" d="M664.548,623.5a5.849,5.849,0,1,1,5.849-5.849A5.856,5.856,0,0,1,664.548,623.5Z" transform="translate(-658.361 -611.46)" fill="#ffe363"/>
            <path id="Path_305" data-name="Path 305" d="M663.037,610.623a5.512,5.512,0,1,1-5.512,5.512,5.512,5.512,0,0,1,5.512-5.512m0-.675a6.186,6.186,0,1,0,6.186,6.186,6.194,6.194,0,0,0-6.186-6.186Z" transform="translate(-656.85 -609.948)" fill="#ec869a"/>
          </g>
        </g>
        <g id="Group_135" data-name="Group 135" transform="translate(6.818 6.819)">
          <g id="Group_133" data-name="Group 133">
            <g id="Group_126" data-name="Group 126" transform="translate(8.423 8.423)">
              <g id="Group_125" data-name="Group 125">
                <path id="Path_306" data-name="Path 306" d="M692.41,648.655a7.462,7.462,0,0,1-4.976-2.383,8.168,8.168,0,0,1-2.259-3.89,3.526,3.526,0,0,1,.736-3.368,3.14,3.14,0,0,1,2.282-.86,7.462,7.462,0,0,1,4.976,2.383c2.421,2.421,3.1,5.677,1.523,7.258a3.139,3.139,0,0,1-2.282.86Z" transform="translate(-684.796 -637.901)" fill="#ffe363"/>
                <path id="Path_307" data-name="Path 307" d="M687.056,637.273a7.213,7.213,0,0,1,4.8,2.309c2.326,2.326,3.008,5.415,1.523,6.9a2.893,2.893,0,0,1-2.1.785,7.213,7.213,0,0,1-4.8-2.309c-2.326-2.326-3.008-5.415-1.523-6.9a2.893,2.893,0,0,1,2.1-.785m0-.507a3.387,3.387,0,0,0-2.462.934,3.768,3.768,0,0,0-.8,3.6,8.424,8.424,0,0,0,2.327,4.015,7.717,7.717,0,0,0,5.155,2.457,3.387,3.387,0,0,0,2.462-.934,3.768,3.768,0,0,0,.8-3.6,8.424,8.424,0,0,0-2.327-4.014,7.717,7.717,0,0,0-5.155-2.457Z" transform="translate(-683.659 -636.766)" fill="#ec869a"/>
              </g>
            </g>
            <g id="Group_128" data-name="Group 128" transform="translate(0 8.423)">
              <g id="Group_127" data-name="Group 127">
                <path id="Path_308" data-name="Path 308" d="M642.08,648.655a3.14,3.14,0,0,1-2.282-.859c-1.581-1.581-.9-4.837,1.523-7.258a7.462,7.462,0,0,1,4.976-2.383,3.14,3.14,0,0,1,2.283.86c1.581,1.581.9,4.837-1.523,7.258a7.462,7.462,0,0,1-4.975,2.383Z" transform="translate(-638.683 -637.901)" fill="#ffe363"/>
                <path id="Path_309" data-name="Path 309" d="M645.119,637.273a2.893,2.893,0,0,1,2.1.785c1.485,1.485.8,4.574-1.523,6.9a7.213,7.213,0,0,1-4.8,2.309,2.893,2.893,0,0,1-2.1-.785c-1.485-1.485-.8-4.574,1.523-6.9a7.213,7.213,0,0,1,4.8-2.309m0-.507a7.716,7.716,0,0,0-5.155,2.457,8.424,8.424,0,0,0-2.327,4.014,3.769,3.769,0,0,0,.8,3.6,3.387,3.387,0,0,0,2.462.934,7.717,7.717,0,0,0,5.155-2.457,8.425,8.425,0,0,0,2.327-4.015,3.768,3.768,0,0,0-.8-3.6,3.387,3.387,0,0,0-2.462-.934Z" transform="translate(-637.506 -636.766)" fill="#ec869a"/>
              </g>
            </g>
            <g id="Group_130" data-name="Group 130">
              <g id="Group_129" data-name="Group 129">
                <path id="Path_310" data-name="Path 310" d="M646.255,602.5a7.462,7.462,0,0,1-4.976-2.383,8.17,8.17,0,0,1-2.259-3.89,3.526,3.526,0,0,1,.736-3.368,3.139,3.139,0,0,1,2.283-.86,7.462,7.462,0,0,1,4.976,2.383c2.421,2.421,3.1,5.677,1.523,7.258a3.139,3.139,0,0,1-2.282.86Z" transform="translate(-638.642 -591.747)" fill="#ffe363"/>
                <path id="Path_311" data-name="Path 311" d="M640.9,591.119a7.213,7.213,0,0,1,4.8,2.309c2.326,2.326,3.008,5.415,1.523,6.9a2.893,2.893,0,0,1-2.1.785,7.213,7.213,0,0,1-4.8-2.309c-2.326-2.326-3.008-5.415-1.523-6.9a2.892,2.892,0,0,1,2.1-.785m0-.507a3.387,3.387,0,0,0-2.462.934,3.768,3.768,0,0,0-.8,3.6,8.424,8.424,0,0,0,2.327,4.015,7.717,7.717,0,0,0,5.155,2.457,3.387,3.387,0,0,0,2.462-.934,3.768,3.768,0,0,0,.8-3.6,8.425,8.425,0,0,0-2.327-4.015,7.717,7.717,0,0,0-5.155-2.457Z" transform="translate(-637.505 -590.612)" fill="#ec869a"/>
              </g>
            </g>
            <g id="Group_132" data-name="Group 132" transform="translate(8.423)">
              <g id="Group_131" data-name="Group 131">
                <path id="Path_312" data-name="Path 312" d="M688.193,602.5a3.139,3.139,0,0,1-2.282-.86,3.526,3.526,0,0,1-.736-3.368,8.169,8.169,0,0,1,2.259-3.89A7.462,7.462,0,0,1,692.409,592a3.139,3.139,0,0,1,2.283.86,3.526,3.526,0,0,1,.736,3.368,8.169,8.169,0,0,1-2.259,3.89,7.462,7.462,0,0,1-4.975,2.383Z" transform="translate(-684.796 -591.747)" fill="#ffe363"/>
                <path id="Path_313" data-name="Path 313" d="M691.273,591.119a2.893,2.893,0,0,1,2.1.785c1.485,1.485.8,4.574-1.523,6.9a7.213,7.213,0,0,1-4.8,2.309,2.893,2.893,0,0,1-2.1-.785c-1.485-1.485-.8-4.574,1.523-6.9a7.212,7.212,0,0,1,4.8-2.309m0-.507a7.717,7.717,0,0,0-5.155,2.457,8.424,8.424,0,0,0-2.327,4.015,3.768,3.768,0,0,0,.8,3.6,3.387,3.387,0,0,0,2.462.934,7.717,7.717,0,0,0,5.155-2.457,8.424,8.424,0,0,0,2.327-4.014,3.768,3.768,0,0,0-.8-3.6,3.387,3.387,0,0,0-2.462-.934Z" transform="translate(-683.66 -590.612)" fill="#ec869a"/>
              </g>
            </g>
          </g>
          <g id="Group_134" data-name="Group 134" transform="translate(5.073 5.069)">
            <path id="Path_314" data-name="Path 314" d="M671.07,628.562a4.393,4.393,0,1,1,3.106-1.287A4.364,4.364,0,0,1,671.07,628.562Z" transform="translate(-666.426 -619.522)" fill="#ffe363"/>
            <path id="Path_315" data-name="Path 315" d="M669.945,618.894a4.14,4.14,0,1,1-2.927,1.212,4.126,4.126,0,0,1,2.927-1.212m0-.507a4.646,4.646,0,1,0,3.286,1.361,4.616,4.616,0,0,0-3.286-1.361Z" transform="translate(-665.301 -618.387)" fill="#ec869a"/>
          </g>
        </g>
        <g id="Group_146" data-name="Group 146" transform="translate(9.46 9.459)">
          <g id="Group_144" data-name="Group 144">
            <g id="Group_137" data-name="Group 137" transform="translate(6.787 4.621)">
              <g id="Group_136" data-name="Group 136">
                <path id="Path_316" data-name="Path 316" d="M693.5,635.808c-1.951,0-3.538-1.036-3.538-2.31s1.587-2.31,3.538-2.31,3.538,1.036,3.538,2.31S695.447,635.808,693.5,635.808Z" transform="translate(-689.814 -631.043)" fill="#ffe363"/>
                <path id="Path_317" data-name="Path 317" d="M692.849,630.686c1.874,0,3.393.97,3.393,2.166s-1.519,2.166-3.393,2.166-3.393-.97-3.393-2.166,1.519-2.166,3.393-2.166m0-.289c-2.065,0-3.682,1.078-3.682,2.455s1.617,2.455,3.682,2.455,3.682-1.078,3.682-2.455-1.617-2.455-3.682-2.455Z" transform="translate(-689.167 -630.397)" fill="#ec869a"/>
              </g>
            </g>
            <g id="Group_139" data-name="Group 139" transform="translate(4.621 6.787)">
              <g id="Group_138" data-name="Group 138">
                <path id="Path_318" data-name="Path 318" d="M680.4,650.132c-1.274,0-2.31-1.587-2.31-3.538s1.036-3.538,2.31-3.538,2.31,1.587,2.31,3.538S681.674,650.132,680.4,650.132Z" transform="translate(-677.945 -642.912)" fill="#ffe363"/>
                <path id="Path_319" data-name="Path 319" d="M679.753,642.554c1.2,0,2.166,1.519,2.166,3.393s-.97,3.393-2.166,3.393-2.166-1.519-2.166-3.393.97-3.393,2.166-3.393m0-.289c-1.377,0-2.455,1.617-2.455,3.682s1.078,3.682,2.455,3.682,2.455-1.617,2.455-3.682-1.078-3.682-2.455-3.682Z" transform="translate(-677.299 -642.265)" fill="#ec869a"/>
              </g>
            </g>
            <g id="Group_141" data-name="Group 141" transform="translate(0 4.621)">
              <g id="Group_140" data-name="Group 140">
                <path id="Path_320" data-name="Path 320" d="M656.309,635.808c-1.951,0-3.538-1.036-3.538-2.31s1.587-2.31,3.538-2.31,3.538,1.036,3.538,2.31S658.26,635.808,656.309,635.808Z" transform="translate(-652.627 -631.043)" fill="#ffe363"/>
                <path id="Path_321" data-name="Path 321" d="M655.662,630.686c1.874,0,3.393.97,3.393,2.166s-1.519,2.166-3.393,2.166-3.393-.97-3.393-2.166,1.519-2.166,3.393-2.166m0-.289c-2.065,0-3.682,1.078-3.682,2.455s1.617,2.455,3.682,2.455,3.682-1.078,3.682-2.455-1.617-2.455-3.682-2.455Z" transform="translate(-651.98 -630.397)" fill="#ec869a"/>
              </g>
            </g>
            <g id="Group_143" data-name="Group 143" transform="translate(4.621)">
              <g id="Group_142" data-name="Group 142">
                <path id="Path_322" data-name="Path 322" d="M680.4,612.944c-1.274,0-2.31-1.587-2.31-3.538s1.036-3.538,2.31-3.538,2.31,1.587,2.31,3.538S681.674,612.944,680.4,612.944Z" transform="translate(-677.945 -605.725)" fill="#ffe363"/>
                <path id="Path_323" data-name="Path 323" d="M679.753,605.367c1.2,0,2.166,1.519,2.166,3.393s-.97,3.393-2.166,3.393-2.166-1.519-2.166-3.393.97-3.393,2.166-3.393m0-.289c-1.377,0-2.455,1.617-2.455,3.682s1.078,3.682,2.455,3.682,2.455-1.617,2.455-3.682-1.078-3.682-2.455-3.682Z" transform="translate(-677.299 -605.078)" fill="#ec869a"/>
              </g>
            </g>
          </g>
          <g id="Group_145" data-name="Group 145" transform="translate(4.428 4.428)">
            <path id="Path_324" data-name="Path 324" d="M679.537,635.138a2.5,2.5,0,1,1,2.5-2.5A2.506,2.506,0,0,1,679.537,635.138Z" transform="translate(-676.89 -629.988)" fill="#ffe363"/>
            <path id="Path_325" data-name="Path 325" d="M678.891,629.631a2.358,2.358,0,1,1-2.359,2.358,2.358,2.358,0,0,1,2.359-2.358m0-.289a2.647,2.647,0,1,0,2.647,2.647,2.65,2.65,0,0,0-2.647-2.647Z" transform="translate(-676.244 -629.342)" fill="#ec869a"/>
          </g>
        </g>
      </g>
      <g id="Group_181" data-name="Group 181" transform="translate(134.003 6.447)">
        <g id="Group_158" data-name="Group 158">
          <g id="Group_156" data-name="Group 156">
            <g id="Group_149" data-name="Group 149" transform="translate(10.798 15.86)">
              <g id="Group_148" data-name="Group 148">
                <path id="Path_326" data-name="Path 326" d="M840.742,657.775c-2.977,0-5.4-3.709-5.4-8.268s2.422-8.267,5.4-8.267,5.4,3.709,5.4,8.267S843.719,657.775,840.742,657.775Z" transform="translate(-835.005 -640.903)" fill="#ffe363"/>
                <path id="Path_327" data-name="Path 327" d="M839.23,640.067c2.8,0,5.062,3.55,5.062,7.93s-2.266,7.93-5.062,7.93-5.062-3.55-5.062-7.93,2.266-7.93,5.062-7.93m0-.675a5.017,5.017,0,0,0-4.148,2.634,12.014,12.014,0,0,0,0,11.941,4.583,4.583,0,0,0,8.3,0,12.014,12.014,0,0,0,0-11.941,5.016,5.016,0,0,0-4.148-2.634Z" transform="translate(-833.493 -639.392)" fill="#ec869a"/>
              </g>
            </g>
            <g id="Group_151" data-name="Group 151" transform="translate(0 10.798)">
              <g id="Group_150" data-name="Group 150">
                <path id="Path_328" data-name="Path 328" d="M784.442,624.3c-4.559,0-8.267-2.422-8.267-5.4s3.709-5.4,8.267-5.4,8.267,2.422,8.267,5.4S789,624.3,784.442,624.3Z" transform="translate(-775.837 -613.168)" fill="#ffe363"/>
                <path id="Path_329" data-name="Path 329" d="M782.93,612.331c4.38,0,7.93,2.266,7.93,5.062s-3.55,5.062-7.93,5.062-7.93-2.266-7.93-5.062,3.55-5.062,7.93-5.062m0-.675a11.216,11.216,0,0,0-5.97,1.589,4.583,4.583,0,0,0,0,8.3,12.014,12.014,0,0,0,11.941,0,4.583,4.583,0,0,0,0-8.3,11.217,11.217,0,0,0-5.97-1.589Z" transform="translate(-774.325 -611.656)" fill="#ec869a"/>
              </g>
            </g>
            <g id="Group_153" data-name="Group 153" transform="translate(10.798)">
              <g id="Group_152" data-name="Group 152">
                <path id="Path_330" data-name="Path 330" d="M840.742,570.871c-2.977,0-5.4-3.709-5.4-8.267s2.422-8.267,5.4-8.267,5.4,3.709,5.4,8.267S843.719,570.871,840.742,570.871Z" transform="translate(-835.005 -553.999)" fill="#ffe363"/>
                <path id="Path_331" data-name="Path 331" d="M839.23,553.162c2.8,0,5.062,3.55,5.062,7.93s-2.266,7.93-5.062,7.93-5.062-3.55-5.062-7.93,2.266-7.93,5.062-7.93m0-.675a5.017,5.017,0,0,0-4.148,2.634,12.014,12.014,0,0,0,0,11.941,4.583,4.583,0,0,0,8.3,0,12.014,12.014,0,0,0,0-11.941,5.017,5.017,0,0,0-4.148-2.634Z" transform="translate(-833.493 -552.487)" fill="#ec869a"/>
              </g>
            </g>
            <g id="Group_155" data-name="Group 155" transform="translate(15.86 10.798)">
              <g id="Group_154" data-name="Group 154">
                <path id="Path_332" data-name="Path 332" d="M871.345,624.3c-4.559,0-8.267-2.422-8.267-5.4s3.709-5.4,8.267-5.4,8.267,2.422,8.267,5.4S875.9,624.3,871.345,624.3Z" transform="translate(-862.74 -613.168)" fill="#ffe363"/>
                <path id="Path_333" data-name="Path 333" d="M869.835,612.331c4.38,0,7.93,2.266,7.93,5.062s-3.55,5.062-7.93,5.062-7.93-2.266-7.93-5.062,3.55-5.062,7.93-5.062m0-.675a11.216,11.216,0,0,0-5.97,1.589,4.583,4.583,0,0,0,0,8.3,12.014,12.014,0,0,0,11.941,0,4.583,4.583,0,0,0,0-8.3,11.219,11.219,0,0,0-5.97-1.589Z" transform="translate(-861.23 -611.656)" fill="#ec869a"/>
              </g>
            </g>
          </g>
          <g id="Group_157" data-name="Group 157" transform="translate(10.348 10.348)">
            <path id="Path_334" data-name="Path 334" d="M838.726,622.739a5.849,5.849,0,1,1,5.849-5.849A5.856,5.856,0,0,1,838.726,622.739Z" transform="translate(-832.54 -610.703)" fill="#ffe363"/>
            <path id="Path_335" data-name="Path 335" d="M837.215,609.866a5.512,5.512,0,1,1-5.512,5.512,5.512,5.512,0,0,1,5.512-5.512m0-.675a6.186,6.186,0,1,0,6.187,6.186,6.194,6.194,0,0,0-6.187-6.186Z" transform="translate(-831.028 -609.191)" fill="#ec869a"/>
          </g>
        </g>
        <g id="Group_169" data-name="Group 169" transform="translate(6.818 6.82)">
          <g id="Group_167" data-name="Group 167">
            <g id="Group_160" data-name="Group 160" transform="translate(8.423 8.423)">
              <g id="Group_159" data-name="Group 159">
                <path id="Path_336" data-name="Path 336" d="M866.628,647.9a7.462,7.462,0,0,1-4.976-2.383c-2.421-2.421-3.1-5.677-1.523-7.258a3.14,3.14,0,0,1,2.283-.86,7.462,7.462,0,0,1,4.976,2.383c2.421,2.421,3.1,5.677,1.523,7.258a3.139,3.139,0,0,1-2.282.86Z" transform="translate(-859.015 -637.144)" fill="#ffe363"/>
                <path id="Path_337" data-name="Path 337" d="M861.235,636.515a7.213,7.213,0,0,1,4.8,2.309c2.326,2.326,3.008,5.415,1.523,6.9a2.892,2.892,0,0,1-2.1.785,7.213,7.213,0,0,1-4.8-2.309c-2.326-2.326-3.008-5.415-1.523-6.9a2.893,2.893,0,0,1,2.1-.785m0-.507a3.387,3.387,0,0,0-2.462.934,3.768,3.768,0,0,0-.8,3.6,8.424,8.424,0,0,0,2.327,4.014,7.717,7.717,0,0,0,5.155,2.457,3.387,3.387,0,0,0,2.462-.934,3.768,3.768,0,0,0,.8-3.6,8.423,8.423,0,0,0-2.327-4.014,7.718,7.718,0,0,0-5.155-2.457Z" transform="translate(-857.838 -636.008)" fill="#ec869a"/>
              </g>
            </g>
            <g id="Group_162" data-name="Group 162" transform="translate(0 8.423)">
              <g id="Group_161" data-name="Group 161">
                <path id="Path_338" data-name="Path 338" d="M816.258,647.9a3.139,3.139,0,0,1-2.283-.86c-1.581-1.581-.9-4.837,1.523-7.258a7.462,7.462,0,0,1,4.976-2.383,3.139,3.139,0,0,1,2.282.86,3.526,3.526,0,0,1,.736,3.368,8.169,8.169,0,0,1-2.259,3.89,7.462,7.462,0,0,1-4.975,2.383Z" transform="translate(-812.861 -637.144)" fill="#ffe363"/>
                <path id="Path_339" data-name="Path 339" d="M819.3,636.515a2.893,2.893,0,0,1,2.1.785c1.485,1.485.8,4.574-1.523,6.9a7.212,7.212,0,0,1-4.8,2.309,2.893,2.893,0,0,1-2.1-.785c-1.485-1.485-.8-4.574,1.523-6.9a7.213,7.213,0,0,1,4.8-2.309m0-.507a7.717,7.717,0,0,0-5.155,2.457,8.424,8.424,0,0,0-2.327,4.014,3.768,3.768,0,0,0,.8,3.6,3.387,3.387,0,0,0,2.462.934,7.717,7.717,0,0,0,5.155-2.457,8.424,8.424,0,0,0,2.327-4.015,3.768,3.768,0,0,0-.8-3.6,3.387,3.387,0,0,0-2.462-.934Z" transform="translate(-811.684 -636.008)" fill="#ec869a"/>
              </g>
            </g>
            <g id="Group_164" data-name="Group 164" transform="translate(0)">
              <g id="Group_163" data-name="Group 163">
                <path id="Path_340" data-name="Path 340" d="M820.474,601.744a7.462,7.462,0,0,1-4.976-2.383c-2.421-2.421-3.1-5.677-1.523-7.258a3.14,3.14,0,0,1,2.283-.86,7.462,7.462,0,0,1,4.976,2.383,8.168,8.168,0,0,1,2.259,3.89,3.526,3.526,0,0,1-.736,3.368,3.14,3.14,0,0,1-2.282.86Z" transform="translate(-812.861 -590.99)" fill="#ffe363"/>
                <path id="Path_341" data-name="Path 341" d="M815.081,590.362a7.213,7.213,0,0,1,4.8,2.309c2.326,2.326,3.008,5.415,1.523,6.9a2.893,2.893,0,0,1-2.1.785,7.213,7.213,0,0,1-4.8-2.309c-2.326-2.326-3.008-5.415-1.523-6.9a2.893,2.893,0,0,1,2.1-.785m0-.507a3.387,3.387,0,0,0-2.462.934,3.768,3.768,0,0,0-.8,3.6,8.424,8.424,0,0,0,2.327,4.014,7.717,7.717,0,0,0,5.155,2.457,3.387,3.387,0,0,0,2.462-.934,3.768,3.768,0,0,0,.8-3.6,8.424,8.424,0,0,0-2.327-4.014,7.717,7.717,0,0,0-5.155-2.457Z" transform="translate(-811.684 -589.855)" fill="#ec869a"/>
              </g>
            </g>
            <g id="Group_166" data-name="Group 166" transform="translate(8.423)">
              <g id="Group_165" data-name="Group 165">
                <path id="Path_342" data-name="Path 342" d="M862.412,601.744a3.139,3.139,0,0,1-2.282-.86c-1.581-1.581-.9-4.837,1.523-7.258a7.462,7.462,0,0,1,4.976-2.383,3.14,3.14,0,0,1,2.283.86c1.581,1.581.9,4.837-1.523,7.258a7.462,7.462,0,0,1-4.975,2.383Z" transform="translate(-859.015 -590.99)" fill="#ffe363"/>
                <path id="Path_343" data-name="Path 343" d="M865.451,590.362a2.893,2.893,0,0,1,2.1.785c1.485,1.485.8,4.574-1.523,6.9a7.213,7.213,0,0,1-4.8,2.309,2.893,2.893,0,0,1-2.1-.785c-1.485-1.485-.8-4.574,1.523-6.9a7.212,7.212,0,0,1,4.8-2.309m0-.507a7.717,7.717,0,0,0-5.155,2.457,8.424,8.424,0,0,0-2.327,4.015,3.768,3.768,0,0,0,.8,3.6,3.387,3.387,0,0,0,2.462.934,7.717,7.717,0,0,0,5.155-2.457,8.425,8.425,0,0,0,2.327-4.014,3.768,3.768,0,0,0-.8-3.6,3.387,3.387,0,0,0-2.462-.934Z" transform="translate(-857.838 -589.855)" fill="#ec869a"/>
              </g>
            </g>
          </g>
          <g id="Group_168" data-name="Group 168" transform="translate(5.073 5.069)">
            <path id="Path_344" data-name="Path 344" d="M845.249,627.8a4.393,4.393,0,1,1,3.106-1.287A4.364,4.364,0,0,1,845.249,627.8Z" transform="translate(-840.604 -618.765)" fill="#ffe363"/>
            <path id="Path_345" data-name="Path 345" d="M844.123,618.136a4.14,4.14,0,1,1-2.927,1.212,4.127,4.127,0,0,1,2.927-1.212m0-.507a4.647,4.647,0,1,0,3.286,1.361,4.617,4.617,0,0,0-3.286-1.361Z" transform="translate(-839.478 -617.629)" fill="#ec869a"/>
          </g>
        </g>
        <g id="Group_180" data-name="Group 180" transform="translate(9.46 9.46)">
          <g id="Group_178" data-name="Group 178">
            <g id="Group_171" data-name="Group 171" transform="translate(6.787 4.621)">
              <g id="Group_170" data-name="Group 170">
                <path id="Path_346" data-name="Path 346" d="M867.674,635.051c-1.951,0-3.538-1.036-3.538-2.31s1.587-2.31,3.538-2.31,3.538,1.036,3.538,2.31S869.624,635.051,867.674,635.051Z" transform="translate(-863.992 -630.286)" fill="#ffe363"/>
                <path id="Path_347" data-name="Path 347" d="M867.027,629.928c1.874,0,3.393.97,3.393,2.166s-1.519,2.166-3.393,2.166-3.393-.97-3.393-2.166,1.519-2.166,3.393-2.166m0-.289c-2.065,0-3.682,1.078-3.682,2.455s1.617,2.455,3.682,2.455,3.682-1.078,3.682-2.455-1.617-2.455-3.682-2.455Z" transform="translate(-863.345 -629.639)" fill="#ec869a"/>
              </g>
            </g>
            <g id="Group_173" data-name="Group 173" transform="translate(4.621 6.786)">
              <g id="Group_172" data-name="Group 172">
                <path id="Path_348" data-name="Path 348" d="M854.578,649.374c-1.274,0-2.31-1.587-2.31-3.538s1.036-3.538,2.31-3.538,2.31,1.587,2.31,3.538S855.853,649.374,854.578,649.374Z" transform="translate(-852.124 -642.154)" fill="#ffe363"/>
                <path id="Path_349" data-name="Path 349" d="M853.931,641.8c1.2,0,2.166,1.519,2.166,3.393s-.97,3.393-2.166,3.393-2.166-1.519-2.166-3.393.97-3.393,2.166-3.393m0-.289c-1.377,0-2.455,1.617-2.455,3.682s1.078,3.682,2.455,3.682,2.455-1.617,2.455-3.682-1.078-3.682-2.455-3.682Z" transform="translate(-851.476 -641.507)" fill="#ec869a"/>
              </g>
            </g>
            <g id="Group_175" data-name="Group 175" transform="translate(0 4.621)">
              <g id="Group_174" data-name="Group 174">
                <path id="Path_350" data-name="Path 350" d="M830.487,635.051c-1.951,0-3.538-1.036-3.538-2.31s1.587-2.31,3.538-2.31,3.538,1.036,3.538,2.31S832.438,635.051,830.487,635.051Z" transform="translate(-826.805 -630.286)" fill="#ffe363"/>
                <path id="Path_351" data-name="Path 351" d="M829.84,629.928c1.874,0,3.393.97,3.393,2.166s-1.519,2.166-3.393,2.166-3.393-.97-3.393-2.166,1.519-2.166,3.393-2.166m0-.289c-2.065,0-3.682,1.078-3.682,2.455s1.617,2.455,3.682,2.455,3.682-1.078,3.682-2.455-1.617-2.455-3.682-2.455Z" transform="translate(-826.158 -629.639)" fill="#ec869a"/>
              </g>
            </g>
            <g id="Group_177" data-name="Group 177" transform="translate(4.621)">
              <g id="Group_176" data-name="Group 176">
                <path id="Path_352" data-name="Path 352" d="M854.578,612.187c-1.274,0-2.31-1.587-2.31-3.538s1.036-3.538,2.31-3.538,2.31,1.587,2.31,3.538S855.853,612.187,854.578,612.187Z" transform="translate(-852.124 -604.968)" fill="#ffe363"/>
                <path id="Path_353" data-name="Path 353" d="M853.931,604.61c1.2,0,2.166,1.519,2.166,3.393s-.97,3.393-2.166,3.393-2.166-1.519-2.166-3.393.97-3.393,2.166-3.393m0-.289c-1.377,0-2.455,1.617-2.455,3.682s1.078,3.682,2.455,3.682,2.455-1.617,2.455-3.682-1.078-3.682-2.455-3.682Z" transform="translate(-851.476 -604.321)" fill="#ec869a"/>
              </g>
            </g>
          </g>
          <g id="Group_179" data-name="Group 179" transform="translate(4.428 4.428)">
            <path id="Path_354" data-name="Path 354" d="M853.716,634.381a2.5,2.5,0,1,1,2.5-2.5A2.506,2.506,0,0,1,853.716,634.381Z" transform="translate(-851.069 -629.231)" fill="#ffe363"/>
            <path id="Path_355" data-name="Path 355" d="M853.069,628.873a2.358,2.358,0,1,1-2.358,2.358,2.358,2.358,0,0,1,2.358-2.358m0-.289a2.647,2.647,0,1,0,2.647,2.647,2.65,2.65,0,0,0-2.647-2.647Z" transform="translate(-850.422 -628.584)" fill="#ec869a"/>
          </g>
        </g>
      </g>
      <g id="Group_183" data-name="Group 183" transform="translate(83.072 5.637)">
        <g id="Group_182" data-name="Group 182">
          <path id="Path_356" data-name="Path 356" d="M520.159,584.19c-1.583,0-3.811-3.845-5.194-7.644a31.212,31.212,0,0,1-1.036-3.428,31.284,31.284,0,0,1-1.616,3.2c-2.258,3.911-4.828,6.642-6.251,6.642a.992.992,0,0,1-.5-.128c-.671-.387-.763-1.551-.266-3.366a25.743,25.743,0,0,1,2.531-5.739,31.223,31.223,0,0,1,1.96-3,31.238,31.238,0,0,1-3.487.817,28.91,28.91,0,0,1-4.9.466c-1.558,0-4.2-.189-4.427-1.453-.3-1.675,4.018-3.34,8.431-4.118a31.25,31.25,0,0,1,3.556-.425,31.215,31.215,0,0,1-2.867-2.146,25.738,25.738,0,0,1-4.341-4.528c-1.088-1.535-1.4-2.661-.9-3.254a1.209,1.209,0,0,1,.977-.379c1.557,0,4.609,1.684,7.6,4.19a31.213,31.213,0,0,1,2.612,2.451,31.242,31.242,0,0,1-.2-3.576c0-4.481.89-9.018,2.591-9.018s2.591,4.537,2.591,9.018a29.037,29.037,0,0,1-.39,4.894,29.042,29.042,0,0,1,4.044-2.785c3.043-1.757,5.992-2.849,7.7-2.849a1.5,1.5,0,0,1,1.41.584c.388.671-.115,1.725-1.453,3.048a25.746,25.746,0,0,1-5.061,3.7,31.252,31.252,0,0,1-3.2,1.616,31.239,31.239,0,0,1,3.428,1.036c4.211,1.533,8.17,3.921,7.588,5.52-.216.594-.985.9-2.283.9h0a22.981,22.981,0,0,1-7.077-1.545,31.235,31.235,0,0,1-3.292-1.41,31.256,31.256,0,0,1,1.41,3.292,25.739,25.739,0,0,1,1.5,6.091c.175,1.873-.118,3-.846,3.269A.95.95,0,0,1,520.159,584.19Z" transform="translate(-496.641 -549.442)" fill="#fce9dc"/>
          <path id="Path_357" data-name="Path 357" d="M513.027,548.671c1.259,0,2.28,3.9,2.28,8.707a26.554,26.554,0,0,1-.566,5.737,26.553,26.553,0,0,1,4.686-3.359c3.055-1.764,5.96-2.807,7.54-2.807.574,0,.973.138,1.141.428.63,1.091-2.236,3.924-6.4,6.328a29.188,29.188,0,0,1-4.09,1.977,29.178,29.178,0,0,1,4.371,1.237c4.519,1.645,7.833,3.937,7.4,5.121-.17.467-.9.691-1.991.691a22.464,22.464,0,0,1-6.971-1.526,29.192,29.192,0,0,1-4.143-1.862,29.172,29.172,0,0,1,1.862,4.143c1.645,4.519,2.019,8.531.835,8.962a.635.635,0,0,1-.219.038c-1.231,0-3.353-3.186-4.9-7.44a29.191,29.191,0,0,1-1.237-4.371,29.187,29.187,0,0,1-1.977,4.09c-2.181,3.778-4.716,6.487-5.982,6.487a.682.682,0,0,1-.347-.087c-1.091-.63-.026-4.516,2.379-8.681a29.186,29.186,0,0,1,2.553-3.757,29.2,29.2,0,0,1-4.4,1.114,28.562,28.562,0,0,1-4.85.462c-2.358,0-3.984-.419-4.121-1.2-.219-1.24,3.443-2.923,8.179-3.758a29.2,29.2,0,0,1,4.519-.459,29.178,29.178,0,0,1-3.684-2.657c-3.684-3.091-6.014-6.379-5.2-7.344a.92.92,0,0,1,.739-.268c1.443,0,4.406,1.608,7.4,4.118a29.179,29.179,0,0,1,3.256,3.167,29.186,29.186,0,0,1-.333-4.53c0-4.809,1.021-8.707,2.28-8.707m0-.622c-.945,0-1.69,1.014-2.214,3.015a26.054,26.054,0,0,0-.688,6.314c0,.929.038,1.847.112,2.723-.623-.619-1.3-1.238-2.014-1.836-3.086-2.59-6.146-4.263-7.8-4.263a1.5,1.5,0,0,0-1.216.49c-.608.724-.31,1.947.886,3.634a26.057,26.057,0,0,0,4.395,4.586c.712.6,1.44,1.158,2.158,1.664-.875.079-1.786.2-2.7.363a26.057,26.057,0,0,0-6.1,1.774c-1.879.863-2.748,1.773-2.584,2.7.249,1.413,2.711,1.71,4.733,1.71a29.224,29.224,0,0,0,4.958-.471c.915-.161,1.813-.358,2.662-.583-.5.721-.994,1.5-1.458,2.3a26.057,26.057,0,0,0-2.561,5.812c-.546,1.994-.408,3.245.41,3.718a1.3,1.3,0,0,0,.658.17c1.793,0,4.567-3.414,6.52-6.8.465-.8.891-1.619,1.264-2.414.23.848.508,1.724.826,2.6,1.422,3.907,3.67,7.849,5.486,7.849a1.26,1.26,0,0,0,.432-.075c.888-.323,1.241-1.531,1.049-3.59a26.054,26.054,0,0,0-1.513-6.169c-.318-.873-.668-1.723-1.036-2.52.8.369,1.647.718,2.52,1.036a22.947,22.947,0,0,0,7.183,1.564c1.443,0,2.31-.37,2.576-1.1.323-.888-.375-1.935-2.076-3.112a26.049,26.049,0,0,0-5.7-2.806c-.873-.318-1.749-.6-2.6-.826.795-.374,1.609-.8,2.414-1.265a26.056,26.056,0,0,0,5.124-3.753c1.47-1.454,1.976-2.606,1.5-3.425a1.779,1.779,0,0,0-1.679-.739c-1.755,0-4.763,1.107-7.851,2.89a30.753,30.753,0,0,0-3.457,2.307,30.738,30.738,0,0,0,.27-4.147,26.057,26.057,0,0,0-.688-6.314c-.524-2-1.269-3.015-2.214-3.015Z" transform="translate(-495.246 -548.049)" fill="#51eeff"/>
        </g>
        <circle id="Ellipse_19" data-name="Ellipse 19" cx="4.561" cy="4.561" r="4.561" transform="translate(12.842 12.969)" fill="#fcf057"/>
      </g>
      <g id="Group_185" data-name="Group 185" transform="translate(115.998 3.863)">
        <g id="Group_184" data-name="Group 184" transform="translate(0)">
          <path id="Path_358" data-name="Path 358" d="M700.579,574.468c-1.583,0-3.811-3.846-5.194-7.644a31.248,31.248,0,0,1-1.036-3.428,31.235,31.235,0,0,1-1.616,3.2c-2.258,3.911-4.828,6.643-6.251,6.643a.991.991,0,0,1-.5-.128c-1.473-.851.024-5.224,2.265-9.105a31.222,31.222,0,0,1,1.96-3,31.271,31.271,0,0,1-3.487.817,28.9,28.9,0,0,1-4.9.466c-1.558,0-4.2-.189-4.427-1.453-.135-.763.7-1.582,2.408-2.367a25.74,25.74,0,0,1,6.023-1.751,31.243,31.243,0,0,1,3.556-.425,31.215,31.215,0,0,1-2.867-2.146,25.74,25.74,0,0,1-4.341-4.528c-1.088-1.535-1.4-2.66-.9-3.254a1.21,1.21,0,0,1,.977-.379c1.557,0,4.609,1.684,7.6,4.19a31.266,31.266,0,0,1,2.612,2.451,31.247,31.247,0,0,1-.2-3.576c0-4.481.89-9.018,2.591-9.018s2.591,4.537,2.591,9.018a29.044,29.044,0,0,1-.39,4.894,29.035,29.035,0,0,1,4.044-2.785c3.043-1.757,5.992-2.848,7.7-2.848a1.5,1.5,0,0,1,1.41.584c.388.671-.115,1.725-1.453,3.048a25.744,25.744,0,0,1-5.061,3.705,31.284,31.284,0,0,1-3.2,1.616,31.224,31.224,0,0,1,3.428,1.036,25.741,25.741,0,0,1,5.628,2.77c1.547,1.07,2.225,2.021,1.96,2.75-.216.594-.985.9-2.283.9h0a22.983,22.983,0,0,1-7.077-1.545,31.232,31.232,0,0,1-3.292-1.41,31.235,31.235,0,0,1,1.41,3.292c1.533,4.211,2.248,8.779.649,9.36A.95.95,0,0,1,700.579,574.468Z" transform="translate(-677.061 -539.72)" fill="#fce9dc"/>
          <path id="Path_359" data-name="Path 359" d="M693.445,538.95c1.259,0,2.28,3.9,2.28,8.707a26.558,26.558,0,0,1-.566,5.737,26.555,26.555,0,0,1,4.686-3.359c3.055-1.764,5.96-2.807,7.54-2.807.574,0,.973.138,1.141.428.63,1.091-2.236,3.924-6.4,6.328a29.192,29.192,0,0,1-4.09,1.977,29.179,29.179,0,0,1,4.371,1.237c4.519,1.645,7.833,3.937,7.4,5.121-.17.467-.9.691-1.991.691a22.463,22.463,0,0,1-6.971-1.526,29.182,29.182,0,0,1-4.143-1.862,29.182,29.182,0,0,1,1.862,4.143c1.645,4.519,2.019,8.531.835,8.962a.637.637,0,0,1-.219.038c-1.231,0-3.353-3.186-4.9-7.44a29.189,29.189,0,0,1-1.237-4.371,29.2,29.2,0,0,1-1.977,4.09c-2.181,3.778-4.716,6.487-5.982,6.487a.682.682,0,0,1-.347-.087c-1.091-.63-.026-4.516,2.379-8.681a29.189,29.189,0,0,1,2.553-3.757,29.2,29.2,0,0,1-4.4,1.114,28.563,28.563,0,0,1-4.85.462c-2.358,0-3.984-.419-4.121-1.2-.219-1.24,3.443-2.923,8.179-3.758a29.187,29.187,0,0,1,4.519-.459,29.185,29.185,0,0,1-3.684-2.657c-3.684-3.091-6.014-6.379-5.2-7.344a.92.92,0,0,1,.739-.268c1.443,0,4.406,1.608,7.4,4.118a29.179,29.179,0,0,1,3.256,3.167,29.181,29.181,0,0,1-.333-4.53c0-4.809,1.021-8.707,2.28-8.707m0-.622c-.945,0-1.69,1.014-2.214,3.015a26.057,26.057,0,0,0-.688,6.314c0,.929.038,1.847.112,2.723-.623-.619-1.3-1.239-2.014-1.836-3.086-2.59-6.146-4.263-7.8-4.263a1.5,1.5,0,0,0-1.216.49c-.608.724-.309,1.947.886,3.634a26.061,26.061,0,0,0,4.395,4.586c.712.6,1.44,1.158,2.158,1.664-.875.079-1.786.2-2.7.363a26.054,26.054,0,0,0-6.1,1.774c-1.879.863-2.748,1.773-2.584,2.7.249,1.413,2.711,1.71,4.733,1.71a29.223,29.223,0,0,0,4.958-.471c.915-.161,1.813-.358,2.662-.583-.5.721-.994,1.5-1.458,2.3a26.057,26.057,0,0,0-2.561,5.812c-.546,1.994-.408,3.245.41,3.718a1.3,1.3,0,0,0,.658.17c1.793,0,4.567-3.414,6.52-6.8.465-.8.891-1.619,1.265-2.414.23.848.508,1.724.826,2.6,1.422,3.907,3.67,7.849,5.486,7.849a1.26,1.26,0,0,0,.432-.075c.888-.323,1.241-1.531,1.05-3.59a26.056,26.056,0,0,0-1.513-6.169c-.318-.873-.668-1.723-1.036-2.52.8.369,1.647.718,2.52,1.036a22.948,22.948,0,0,0,7.183,1.564c1.443,0,2.31-.37,2.576-1.1.323-.888-.375-1.935-2.076-3.112a26.058,26.058,0,0,0-5.7-2.806c-.873-.318-1.749-.6-2.6-.826.795-.374,1.609-.8,2.414-1.264a26.06,26.06,0,0,0,5.124-3.753c1.47-1.454,1.976-2.606,1.5-3.425a1.779,1.779,0,0,0-1.679-.739c-1.755,0-4.763,1.107-7.851,2.89a30.742,30.742,0,0,0-3.457,2.307,30.749,30.749,0,0,0,.27-4.147,26.057,26.057,0,0,0-.688-6.314c-.524-2-1.269-3.015-2.214-3.015Z" transform="translate(-675.664 -538.328)" fill="#51eeff"/>
        </g>
        <circle id="Ellipse_20" data-name="Ellipse 20" cx="4.561" cy="4.561" r="4.561" transform="translate(12.842 12.969)" fill="#fcf057"/>
      </g>
      <g id="Group_187" data-name="Group 187" transform="translate(150.033 5.637)">
        <g id="Group_186" data-name="Group 186" transform="translate(0)">
          <path id="Path_360" data-name="Path 360" d="M887.069,584.19c-1.583,0-3.811-3.845-5.194-7.644a31.225,31.225,0,0,1-1.036-3.428,31.271,31.271,0,0,1-1.616,3.2c-2.258,3.911-4.828,6.642-6.251,6.642a.992.992,0,0,1-.5-.128c-.671-.387-.763-1.551-.266-3.366a25.74,25.74,0,0,1,2.531-5.739,31.232,31.232,0,0,1,1.96-3,31.235,31.235,0,0,1-3.487.817,28.91,28.91,0,0,1-4.9.466c-1.558,0-4.2-.189-4.427-1.453-.3-1.675,4.018-3.34,8.431-4.118a31.251,31.251,0,0,1,3.556-.425A31.22,31.22,0,0,1,873,563.866a25.737,25.737,0,0,1-4.341-4.528c-1.088-1.535-1.4-2.661-.9-3.254a1.209,1.209,0,0,1,.977-.379c1.557,0,4.609,1.684,7.6,4.19a31.2,31.2,0,0,1,2.612,2.451,31.242,31.242,0,0,1-.2-3.576c0-4.481.89-9.018,2.591-9.018s2.591,4.537,2.591,9.018a29.043,29.043,0,0,1-.39,4.894,29.038,29.038,0,0,1,4.044-2.785c3.043-1.757,5.992-2.849,7.7-2.849a1.5,1.5,0,0,1,1.41.584c.388.671-.115,1.725-1.453,3.048a25.746,25.746,0,0,1-5.061,3.7,31.27,31.27,0,0,1-3.2,1.616,31.242,31.242,0,0,1,3.428,1.036c4.211,1.533,8.17,3.921,7.588,5.52-.216.594-.985.9-2.283.9h0a22.98,22.98,0,0,1-7.077-1.545,31.243,31.243,0,0,1-3.292-1.41,31.232,31.232,0,0,1,1.41,3.292,25.739,25.739,0,0,1,1.5,6.091c.175,1.873-.118,3-.846,3.269A.95.95,0,0,1,887.069,584.19Z" transform="translate(-863.551 -549.442)" fill="#fce9dc"/>
          <path id="Path_361" data-name="Path 361" d="M879.937,548.671c1.259,0,2.28,3.9,2.28,8.707a26.554,26.554,0,0,1-.566,5.737,26.549,26.549,0,0,1,4.686-3.359c3.055-1.764,5.96-2.807,7.54-2.807.574,0,.973.138,1.141.428.63,1.091-2.236,3.924-6.4,6.328a29.188,29.188,0,0,1-4.09,1.977,29.182,29.182,0,0,1,4.371,1.237c4.519,1.645,7.833,3.937,7.4,5.121-.17.467-.9.691-1.991.691a22.464,22.464,0,0,1-6.971-1.526,29.185,29.185,0,0,1-4.143-1.862,29.186,29.186,0,0,1,1.862,4.143c1.645,4.519,2.019,8.531.835,8.962a.636.636,0,0,1-.219.038c-1.231,0-3.353-3.186-4.9-7.44a29.189,29.189,0,0,1-1.237-4.371,29.188,29.188,0,0,1-1.977,4.09c-2.181,3.778-4.716,6.487-5.982,6.487a.682.682,0,0,1-.347-.087c-1.091-.63-.026-4.516,2.379-8.681a29.18,29.18,0,0,1,2.553-3.757,29.2,29.2,0,0,1-4.4,1.114,28.562,28.562,0,0,1-4.85.462c-2.358,0-3.984-.419-4.121-1.2-.219-1.24,3.443-2.923,8.179-3.758a29.194,29.194,0,0,1,4.519-.459,29.182,29.182,0,0,1-3.684-2.657c-3.684-3.091-6.014-6.379-5.2-7.344a.92.92,0,0,1,.739-.268c1.443,0,4.406,1.608,7.4,4.118a29.185,29.185,0,0,1,3.256,3.167,29.182,29.182,0,0,1-.333-4.53c0-4.809,1.021-8.707,2.28-8.707m0-.622c-.945,0-1.69,1.014-2.214,3.015a26.057,26.057,0,0,0-.688,6.314c0,.929.038,1.847.112,2.723-.623-.619-1.3-1.238-2.014-1.836-3.086-2.59-6.146-4.263-7.8-4.263a1.5,1.5,0,0,0-1.216.49c-.608.724-.31,1.947.886,3.634a26.053,26.053,0,0,0,4.395,4.586c.712.6,1.44,1.158,2.158,1.664-.875.079-1.786.2-2.7.363a26.06,26.06,0,0,0-6.1,1.774c-1.879.863-2.748,1.773-2.584,2.7.249,1.413,2.711,1.71,4.733,1.71a29.218,29.218,0,0,0,4.958-.471c.915-.161,1.813-.358,2.662-.583-.5.721-.994,1.5-1.458,2.3a26.057,26.057,0,0,0-2.561,5.812c-.546,1.994-.408,3.245.41,3.718a1.3,1.3,0,0,0,.658.17c1.793,0,4.567-3.414,6.52-6.8.465-.8.891-1.619,1.265-2.414.23.848.508,1.724.826,2.6,1.422,3.907,3.67,7.849,5.486,7.849a1.26,1.26,0,0,0,.432-.075c.888-.323,1.241-1.531,1.05-3.59a26.056,26.056,0,0,0-1.513-6.169c-.318-.873-.667-1.723-1.036-2.52.8.369,1.647.718,2.52,1.036a22.945,22.945,0,0,0,7.183,1.564c1.443,0,2.31-.37,2.576-1.1.323-.888-.375-1.935-2.076-3.112a26.055,26.055,0,0,0-5.7-2.806c-.873-.318-1.749-.6-2.6-.826.795-.374,1.609-.8,2.414-1.264a26.061,26.061,0,0,0,5.124-3.753c1.47-1.454,1.976-2.606,1.5-3.425a1.779,1.779,0,0,0-1.679-.739c-1.755,0-4.763,1.107-7.851,2.89a30.742,30.742,0,0,0-3.457,2.307,30.749,30.749,0,0,0,.27-4.147,26.057,26.057,0,0,0-.688-6.314c-.524-2-1.269-3.015-2.214-3.015Z" transform="translate(-862.156 -548.049)" fill="#51eeff"/>
        </g>
        <circle id="Ellipse_21" data-name="Ellipse 21" cx="4.561" cy="4.561" r="4.561" transform="translate(12.842 12.969)" fill="#fcf057"/>
      </g>
    </g>
  </g>
</svg>
