<svg xmlns="http://www.w3.org/2000/svg" xmlns:xlink="http://www.w3.org/1999/xlink" viewBox="0 0 500 372.56"><defs><clipPath id="a" transform="translate(0 -55)"><rect x="177.23" y="129.81" width="144.32" height="261.93" style="fill:none"/></clipPath></defs><rect y="327.4" width="500" height="0.25" style="fill:#e6e6e6"/><rect x="413.5" y="341.43" width="10.61" height="0.25" style="fill:#e6e6e6"/><rect x="363.01" y="341.55" width="43.15" height="0.25" style="fill:#e6e6e6"/><rect x="236.85" y="339.17" width="72.82" height="0.25" style="fill:#e6e6e6"/><rect x="171.85" y="343.51" width="23.11" height="0.25" style="fill:#e6e6e6"/><rect x="86.13" y="339.29" width="31.82" height="0.25" style="fill:#e6e6e6"/><rect x="123.5" y="339.29" width="29.74" height="0.25" style="fill:#e6e6e6"/><rect x="65.29" y="334.92" width="30.37" height="0.25" style="fill:#e6e6e6"/><path d="M237,337.8H43.91a5.71,5.71,0,0,1-5.7-5.71V60.66A5.71,5.71,0,0,1,43.91,55H237a5.71,5.71,0,0,1,5.71,5.71h0V332.09A5.71,5.71,0,0,1,237,337.8ZM43.91,55.2a5.46,5.46,0,0,0-5.45,5.46V332.09a5.46,5.46,0,0,0,5.45,5.46H237a5.48,5.48,0,0,0,5.46-5.46V60.66A5.48,5.48,0,0,0,237,55.2Z" transform="translate(0 -55)" style="fill:#e6e6e6"/><path d="M453.31,337.8H260.21a5.73,5.73,0,0,1-5.71-5.71V60.66A5.72,5.72,0,0,1,260.21,55h193.1A5.71,5.71,0,0,1,459,60.66V332.09A5.7,5.7,0,0,1,453.31,337.8ZM260.21,55.2a5.48,5.48,0,0,0-5.46,5.46V332.09a5.48,5.48,0,0,0,5.46,5.46h193.1a5.48,5.48,0,0,0,5.46-5.46V60.66a5.48,5.48,0,0,0-5.46-5.46Z" transform="translate(0 -55)" style="fill:#e6e6e6"/><rect x="54.09" y="21.47" width="155.75" height="135.53" style="fill:#e6e6e6"/><rect x="57.07" y="21.47" width="159.15" height="135.53" style="fill:#f0f0f0"/><rect x="54.09" y="157" width="155.75" height="5.44" style="fill:#e6e6e6"/><rect x="67.69" y="157" width="159.15" height="5.44" style="fill:#f0f0f0"/><rect x="66" y="30.39" width="141.3" height="117.69" style="fill:#fafafa"/><polygon points="88.88 148.08 116.14 30.39 153.55 30.39 126.29 148.08 88.88 148.08" style="fill:#fff"/><path d="M71.14,183.41a.64.64,0,0,1-.64-.64V91.19a.64.64,0,0,1,1.28,0v91.58A.64.64,0,0,1,71.14,183.41Z" transform="translate(0 -55)" style="fill:#e6e6e6"/><polygon points="133.96 148.08 161.22 30.39 174.16 30.39 146.9 148.08 133.96 148.08" style="fill:#fff"/><rect x="206.16" y="30.38" width="1.13" height="117.69" style="fill:#e6e6e6"/><polygon points="218.33 31.36 62.58 31.36 61.76 28.65 217.51 28.65 218.33 31.36" style="fill:#e0e0e0"/><polygon points="218.33 35.83 62.58 35.83 61.76 33.12 217.51 33.12 218.33 35.83" style="fill:#e0e0e0"/><polygon points="218.33 40.3 62.58 40.3 61.76 37.59 217.51 37.59 218.33 40.3" style="fill:#e0e0e0"/><polygon points="218.33 44.77 62.58 44.77 61.76 42.06 217.51 42.06 218.33 44.77" style="fill:#e0e0e0"/><polygon points="218.33 49.24 62.58 49.24 61.76 46.53 217.51 46.53 218.33 49.24" style="fill:#e0e0e0"/><polygon points="218.33 53.71 62.58 53.71 61.76 51 217.51 51 218.33 53.71" style="fill:#e0e0e0"/><rect x="337.7" y="30.29" width="65.49" height="116.75" style="fill:#e6e6e6"/><path d="M374.59,91.46a5,5,0,1,1,5.05-5A5,5,0,0,1,374.59,91.46Zm0-9.1a4,4,0,1,0,.05,0Z" transform="translate(0 -55)" style="fill:#e0e0e0"/><rect x="342.63" y="30.29" width="67.64" height="116.75" style="fill:#f0f0f0"/><rect x="348.3" y="35.95" width="56.31" height="105.42" style="fill:#fafafa"/><rect x="403.91" y="35.95" width="0.7" height="105.42" style="fill:#e0e0e0"/><path d="M354.76,243.56s.7,11.77,27.45,11.77,27.44-11.77,27.44-11.77Z" transform="translate(0 -55)" style="fill:#e6e6e6"/><rect x="273.34" y="209.57" width="27.32" height="112.52" style="fill:#e6e6e6"/><rect x="278.59" y="322.09" width="142.74" height="5.31" style="fill:#e6e6e6"/><rect x="300.66" y="209.57" width="125.91" height="112.52" style="fill:#f5f5f5"/><rect x="311.4" y="252.09" width="104.43" height="27.48" style="fill:#e6e6e6"/><rect x="311.4" y="284.59" width="104.43" height="27.48" style="fill:#e6e6e6"/><path d="M379.23,310.1H348a1.88,1.88,0,0,1-1.88-1.88h0a1.89,1.89,0,0,1,1.88-1.89h31.23a1.89,1.89,0,0,1,1.88,1.89h0a1.88,1.88,0,0,1-1.88,1.88Z" transform="translate(0 -55)" style="fill:#f5f5f5"/><rect x="311.4" y="219.59" width="104.43" height="27.48" style="fill:#e6e6e6"/><path d="M379.23,277.61H348a1.89,1.89,0,0,1-1.88-1.89h0a1.88,1.88,0,0,1,1.88-1.88h31.23a1.88,1.88,0,0,1,1.88,1.88h0A1.89,1.89,0,0,1,379.23,277.61Z" transform="translate(0 -55)" style="fill:#f5f5f5"/><path d="M379.23,342.6H348a1.89,1.89,0,0,1-1.88-1.89h0a1.88,1.88,0,0,1,1.88-1.88h31.23a1.88,1.88,0,0,1,1.88,1.88h0A1.89,1.89,0,0,1,379.23,342.6Z" transform="translate(0 -55)" style="fill:#f5f5f5"/><rect x="300.66" y="200.33" width="129.55" height="9.24" style="fill:#ebebeb"/><rect x="269.52" y="200.34" width="31.14" height="9.24" style="fill:#e0e0e0"/><rect x="283.86" y="167.79" width="27.15" height="32.54" style="fill:#e6e6e6"/><rect x="311.01" y="167.8" width="48.18" height="32.54" style="fill:#fafafa"/><path d="M346.21,240c0,2.33-5,4.21-11.11,4.21S324,242.3,324,240s5-4.21,11.12-4.21S346.21,237.65,346.21,240Z" transform="translate(0 -55)" style="fill:#fff"/><rect x="283.86" y="171.96" width="75.61" height="2.23" style="fill:#e0e0e0;opacity:0.699999988079071;isolation:isolate"/><rect x="282.35" y="166.45" width="28.65" height="6.46" style="fill:#e6e6e6"/><rect x="311.01" y="166.44" width="49.67" height="6.46" style="fill:#fafafa"/><polygon points="173.84 184.06 70.34 184.06 76.8 327.4 180.3 327.4 173.84 184.06" style="fill:#e6e6e6"/><polygon points="175.34 184.06 71.84 184.06 78.3 327.4 181.8 327.4 175.34 184.06" style="fill:#fafafa"/><rect x="94.66" y="294.86" width="27.15" height="32.54" style="fill:#e0e0e0"/><rect x="121.82" y="294.86" width="129.97" height="32.54" style="fill:#f0f0f0"/><rect x="94.66" y="299.03" width="157.41" height="2.23" style="fill:#e0e0e0;opacity:0.699999988079071;isolation:isolate"/><rect x="93.17" y="293.51" width="28.65" height="6.46" style="fill:#e0e0e0"/><rect x="121.82" y="293.51" width="131.47" height="6.46" style="fill:#f0f0f0"/><rect x="117.17" y="234.72" width="35.33" height="58.79" style="fill:#e6e6e6"/><rect x="152.49" y="234.72" width="88.28" height="58.79" style="fill:#ebebeb"/><rect x="117.16" y="240.14" width="123.98" height="2.9" style="fill:#e0e0e0;opacity:0.699999988079071;isolation:isolate"/><rect x="115.22" y="228" width="37.28" height="13.36" style="fill:#e6e6e6"/><rect x="152.49" y="228" width="90.23" height="13.36" style="fill:#ebebeb"/><circle cx="77.81" cy="302.43" r="24.97" style="fill:#f0f0f0"/><path d="M65.58,342.54c1.48-1.54,2.08-3.38,1.32-4.1s-2.57-.07-4.05,1.47-2.08,3.38-1.33,4.11S64.09,344.09,65.58,342.54Z" transform="translate(0 -55)" style="fill:#e0e0e0;opacity:0.699999988079071;isolation:isolate"/><path d="M76,337.86c2.1-.4,3.65-1.56,3.45-2.59s-2.06-1.54-4.17-1.13-3.64,1.56-3.45,2.59S73.85,338.27,76,337.86Z" transform="translate(0 -55)" style="fill:#e0e0e0;opacity:0.699999988079071;isolation:isolate"/><path d="M73.82,346.58c2-.71,3.31-2.29,2.87-3.53s-2.43-1.67-4.45-1-3.3,2.29-2.87,3.53S71.8,347.29,73.82,346.58Z" transform="translate(0 -55)" style="fill:#e0e0e0;opacity:0.699999988079071;isolation:isolate"/><ellipse cx="250" cy="361.24" rx="193.89" ry="11.32" style="fill:#f5f5f5"/><rect x="177.54" y="56.44" width="144.32" height="304.79" rx="14.62" style="fill:#90caf9"/><rect x="177.54" y="56.44" width="144.32" height="304.79" rx="14.62" style="fill:#fff;opacity:0.699999988079071;isolation:isolate"/><rect x="181.4" y="55.92" width="144.32" height="304.79" rx="14.62" style="fill:#90caf9"/><rect x="181.4" y="55.92" width="144.32" height="304.79" rx="14.62" style="opacity:0.20000000298023224;isolation:isolate"/><path d="M259.19,402.28a6.51,6.51,0,1,1-6.52-6.5h0A6.5,6.5,0,0,1,259.19,402.28Z" transform="translate(0 -55)" style="fill:#90caf9"/><path d="M259.19,402.28a6.51,6.51,0,1,1-6.52-6.5h0A6.5,6.5,0,0,1,259.19,402.28Z" transform="translate(0 -55)" style="opacity:0.4000000059604645;isolation:isolate"/><polygon points="324.56 337.75 180.96 337.75 180.96 75.83 325.56 75.83 324.56 337.75" style="fill:#90caf9"/><polygon points="325.83 337.61 180.88 337.78 180.88 75.85 325.7 75.7 325.83 337.61" style="fill:#fff;opacity:0.800000011920929;isolation:isolate"/><rect x="169.03" y="80.22" width="1" height="13.22" style="fill:#90caf9;opacity:0.33000001311302185;isolation:isolate"/><rect x="169.03" y="97.11" width="1" height="4.14" style="fill:#90caf9;opacity:0.33000001311302185;isolation:isolate"/><rect x="184.95" y="86.67" width="119.49" height="79.34" rx="9.94" style="fill:#fff"/><circle cx="203.25" cy="105" r="13.23" style="fill:#90caf9;opacity:0.27000001072883606;isolation:isolate"/><path d="M214.18,160a10.72,10.72,0,0,1-1.32,5.2,10.91,10.91,0,1,1,1.32-5.2Z" transform="translate(0 -55)" style="fill:#fff"/><path d="M212.86,165.19a10.92,10.92,0,0,1-19.2,0A17.29,17.29,0,0,1,212.86,165.19Z" transform="translate(0 -55)" style="fill:#90caf9;opacity:0.27000001072883606;isolation:isolate"/><circle cx="203.26" cy="101.25" r="4.86" style="fill:#90caf9;opacity:0.27000001072883606;isolation:isolate"/><rect x="184.95" y="173.34" width="119.49" height="27.77" rx="7.33" style="fill:#fff"/><path d="M324.75,258.8l14.13,38.94a4.1,4.1,0,0,1-2.45,5.23L262.3,329.86a4.1,4.1,0,0,1-5.23-2.44l-14.13-38.95a4.08,4.08,0,0,1,2.45-5.22l74.13-26.9a4.1,4.1,0,0,1,5.23,2.45Z" transform="translate(0 -55)" style="fill:#90caf9;opacity:0.6000000238418579;isolation:isolate"/><path d="M322.51,256.44l-21.19,34.87a16.59,16.59,0,0,1-19.55,7.09l-38.62-13.18a4.11,4.11,0,0,1,2.24-2l74.13-26.9A4.07,4.07,0,0,1,322.51,256.44Z" transform="translate(0 -55)" style="fill:#90caf9"/><path d="M322.51,256.44l-21.19,34.87a16.59,16.59,0,0,1-19.55,7.09l-38.62-13.18a4.11,4.11,0,0,1,2.24-2l74.13-26.9A4.07,4.07,0,0,1,322.51,256.44Z" transform="translate(0 -55)" style="fill:#fff;opacity:0.5;isolation:isolate"/><path d="M301.5,325.73l-.68,35.08a3.47,3.47,0,0,1-3.52,3.39l-66.79-1.3a3.45,3.45,0,0,1-3.38-3.52h0l.67-35.08a3.45,3.45,0,0,1,3.52-3.39l66.79,1.29a3.47,3.47,0,0,1,3.39,3.53Z" transform="translate(0 -55)" style="fill:#90caf9;opacity:0.6000000238418579;isolation:isolate"/><path d="M300.45,323.18,273.09,344.3a14.08,14.08,0,0,1-17.62-.34L229,321.79a3.45,3.45,0,0,1,2.37-.88l66.79,1.29A3.46,3.46,0,0,1,300.45,323.18Z" transform="translate(0 -55)" style="fill:#90caf9"/><path d="M300.45,323.18,273.09,344.3a14.08,14.08,0,0,1-17.62-.34L229,321.79a3.45,3.45,0,0,1,2.37-.88l66.79,1.29A3.46,3.46,0,0,1,300.45,323.18Z" transform="translate(0 -55)" style="fill:#fff;opacity:0.5;isolation:isolate"/><path d="M234.13,119.17a2.3,2.3,0,1,1,2.3,2.31,2.3,2.3,0,0,1-2.3-2.31Z" transform="translate(0 -55)" style="fill:#90caf9"/><path d="M244.38,116.87h19.11a2.31,2.31,0,0,1,2.3,2.3h0a2.32,2.32,0,0,1-2.3,2.31H244.38a2.32,2.32,0,0,1-2.3-2.31h0A2.31,2.31,0,0,1,244.38,116.87Z" transform="translate(0 -55)" style="fill:#90caf9"/><path d="M234.13,119.17a2.3,2.3,0,1,1,2.3,2.31,2.3,2.3,0,0,1-2.3-2.31Z" transform="translate(0 -55)" style="opacity:0.4000000059604645;isolation:isolate"/><path d="M244.38,116.87h19.11a2.31,2.31,0,0,1,2.3,2.3h0a2.32,2.32,0,0,1-2.3,2.31H244.38a2.32,2.32,0,0,1-2.3-2.31h0A2.31,2.31,0,0,1,244.38,116.87Z" transform="translate(0 -55)" style="opacity:0.4000000059604645;isolation:isolate"/><rect x="312.38" y="108.21" width="17.55" height="37.05" rx="4.01" style="fill:#90caf9"/><rect x="312.38" y="108.21" width="17.55" height="37.05" rx="4.01" style="fill:#fff;opacity:0.800000011920929;isolation:isolate"/><rect x="312.38" y="155.95" width="17.55" height="20.9" rx="3.01" style="fill:#90caf9"/><rect x="312.38" y="155.95" width="17.55" height="20.9" rx="3.01" style="fill:#fff;opacity:0.800000011920929;isolation:isolate"/><g style="clip-path:url(#a)"><rect x="177.23" y="74.81" width="144.32" height="261.93" style="fill:none"/><polygon points="198.98 330.43 206.33 331.14 213.98 313.65 206.63 312.93 198.98 330.43" style="fill:#e4897b"/><polygon points="124.37 276.86 128.56 283.21 144.62 275.54 140.42 269.18 124.37 276.86" style="fill:#e4897b"/><polygon points="213.98 313.65 210.04 322.67 202.37 322.67 206.62 312.93 213.98 313.65" style="fill:#ce6f64"/><polygon points="140.42 269.19 144.61 275.54 136.34 279.49 132.14 273.14 140.42 269.19" style="fill:#ce6f64"/><path d="M281.63,206.42l.24.54.31.63c.2.42.43.85.66,1.28.47.85,1,1.71,1.5,2.53a45.61,45.61,0,0,0,3.47,4.82,52.2,52.2,0,0,0,4.09,4.32c.75.66,1.48,1.34,2.26,2l1.17.92.27.22h0a1.8,1.8,0,0,0-.39-.08,1.66,1.66,0,0,0-.85.13.9.9,0,0,0-.42.27c-.07.1.11-.06.26-.32a10.66,10.66,0,0,0,.93-2.3,49.8,49.8,0,0,0,1.29-5.91c.34-2.06.62-4.17.84-6.28s.45-4.26.65-6.36l3.86-.06c.24,2.23.34,4.4.43,6.62s.05,4.42,0,6.67a45.58,45.58,0,0,1-.79,6.89,16.83,16.83,0,0,1-1.21,3.8,8.1,8.1,0,0,1-1.62,2.31,5.54,5.54,0,0,1-1.8,1.13,5.33,5.33,0,0,1-2.44.3,5.89,5.89,0,0,1-1.92-.6,7,7,0,0,1-.7-.4l-.38-.25-1.46-1c-1-.66-1.88-1.39-2.79-2.12a47.5,47.5,0,0,1-5-4.88,50.34,50.34,0,0,1-4.27-5.59c-.64-1-1.23-2-1.8-3-.28-.53-.55-1.05-.81-1.6l-.38-.85c-.13-.3-.23-.54-.39-.95Z" transform="translate(0 -55)" style="fill:#e4897b"/><polygon points="285.01 156.59 278.29 165.86 281.07 168.59 288.22 159.99 285.01 156.59" style="fill:#f5f5f5"/><path d="M274.47,199.36c7.57,2,12.79,12.62,12.79,12.62l-8.74,12.25S268,211,268.27,206.82C268.53,202.44,269.91,198.13,274.47,199.36Z" transform="translate(0 -55)" style="fill:#90caf9"/><path d="M274.47,199.36c7.57,2,12.79,12.62,12.79,12.62l-8.74,12.25S268,211,268.27,206.82C268.53,202.44,269.91,198.13,274.47,199.36Z" transform="translate(0 -55)" style="fill:#fff;opacity:0.699999988079071;isolation:isolate"/><path d="M281,203.27s2.49,2.94-26.33,37.82L228,225.47c6.8-10.59,10.73-17.28,18.58-42.6A91.49,91.49,0,0,1,258.8,188a113.81,113.81,0,0,1,12.12,7.09C275.84,198.61,281,203.27,281,203.27Z" transform="translate(0 -55)" style="fill:#90caf9"/><path d="M281,203.27s2.49,2.94-26.33,37.82L228,225.47c6.8-10.59,10.73-17.28,18.58-42.6A91.49,91.49,0,0,1,258.8,188a113.81,113.81,0,0,1,12.12,7.09C275.84,198.61,281,203.27,281,203.27Z" transform="translate(0 -55)" style="fill:#fff;opacity:0.699999988079071;isolation:isolate"/><path d="M277.54,200.26c-1.88-1.56-4.29-3.49-6.62-5.17A98.62,98.62,0,0,0,258.8,188c-2.36-1.23-4.78-2.31-6.84-3.13-.33.55-.06,2.23.95,4.69,3.84,4.95,12.76,12.24,20.2,13.69C276.57,202.75,277.65,201.65,277.54,200.26Z" transform="translate(0 -55)" style="fill:#f5f5f5"/><path d="M252.91,189.56a54.14,54.14,0,0,0,8.85,13.72,56.64,56.64,0,0,0,11.35,0C265.67,201.8,256.75,194.51,252.91,189.56Z" transform="translate(0 -55)" style="fill:#f5f5f5"/><path d="M254.7,241.09s.43,68.52-11.72,88.3c-12.64,20.57-29.12,45.66-29.12,45.66l-14.27-.69s16.64-37.12,22.92-54.35c8.65-23.75,12.65-90.36,12.65-90.36Z" transform="translate(0 -55)" style="fill:#90caf9"/><path d="M254.7,241.09s.43,68.52-11.72,88.3c-12.64,20.57-29.12,45.66-29.12,45.66l-14.27-.69s16.64-37.12,22.92-54.35c8.65-23.75,12.65-90.36,12.65-90.36Z" transform="translate(0 -55)" style="opacity:0.4000000059604645;isolation:isolate"/><path d="M239.52,243a28.81,28.81,0,0,0-5.89,6.85c-.45,5.1-1,10.83-1.63,16.83C236.35,260.77,239.79,250.4,239.52,243Z" transform="translate(0 -55)" style="opacity:0.20000000298023224;isolation:isolate"/><path d="M247.65,237s-30.19,42.86-49,66c-15.2,18.65-59.2,32-59.2,32l-5.37-9s35-19.54,45.44-32.16c33.42-40.4,33-61.35,48.52-68.26Z" transform="translate(0 -55)" style="fill:#90caf9"/><path d="M247.65,237s-30.19,42.86-49,66c-15.2,18.65-59.2,32-59.2,32l-5.37-9s35-19.54,45.44-32.16c33.42-40.4,33-61.35,48.52-68.26Z" transform="translate(0 -55)" style="opacity:0.4000000059604645;isolation:isolate"/><path d="M298,203.77l-2-8,7.63,2.22s-.21,5.38-2.85,7.13Z" transform="translate(0 -55)" style="fill:#e4897b"/><polygon points="298.43 134.35 303.79 137.06 303.66 143.03 296.03 140.81 298.43 134.35" style="fill:#e4897b"/><path d="M202.58,192.29l-7-4.3,7-3.74s3.59,4,2.93,7.1Z" transform="translate(0 -55)" style="fill:#e4897b"/><polygon points="192.81 126.68 198.54 124.88 202.62 129.25 195.59 132.99 192.81 126.68" style="fill:#e4897b"/><path d="M130.32,337.54l-2.49-8.18a.61.61,0,0,0-.68-.42l-6.75,1a1.21,1.21,0,0,0-1,1.42.58.58,0,0,0,0,.14c.92,2.83,1.5,4.16,2.6,7.75.67,2.22,1.84,7.21,2.77,10.27s4,2.3,3.89.94c-.51-6.08.49-9.19,1.52-11.6A2,2,0,0,0,130.32,337.54Z" transform="translate(0 -55)" style="fill:#263238"/><path d="M207.31,383.87h-9a.75.75,0,0,0-.71.55l-2,7.15a1.12,1.12,0,0,0,.76,1.38,1.27,1.27,0,0,0,.34,0c3.16-.05,4.7-.23,8.67-.23,2.44,0,8.76.25,12.13.25s4-3.34,2.63-3.64c-6.13-1.35-9.65-3.22-11.54-5A1.91,1.91,0,0,0,207.31,383.87Z" transform="translate(0 -55)" style="fill:#263238"/><path d="M228.53,223.67l-2.6,1.69c-.2.13-.09.45.22.63l28,16.37c.24.14.51.14.61,0l1.64-2.25c.11-.16,0-.42-.28-.57l-27-15.81A.57.57,0,0,0,228.53,223.67Z" transform="translate(0 -55)" style="fill:#263238"/><path d="M244.39,194.34c-1.89,1.51-3.69,2.73-5.6,4s-3.85,2.36-5.85,3.44a67.85,67.85,0,0,1-12.61,5.33c-.54.19-1.12.32-1.67.47s-1.08.3-1.74.44a12.84,12.84,0,0,1-4.37.22,10.63,10.63,0,0,1-4.36-1.52,12.24,12.24,0,0,1-3.19-2.94,19.37,19.37,0,0,1-3.12-6.87,24.07,24.07,0,0,1-.64-3.47,24.39,24.39,0,0,1-.23-3.52l3.84-.33a36,36,0,0,0,1.87,5.71,14.87,14.87,0,0,0,2.91,4.58,4.91,4.91,0,0,0,3.54,1.66,7.29,7.29,0,0,0,2.08-.33c.87-.28,1.89-.6,2.82-.94A75,75,0,0,0,229.2,195c1.82-1,3.56-2.15,5.32-3.26s3.49-2.36,5-3.5Z" transform="translate(0 -55)" style="fill:#e4897b"/><polygon points="232.02 136.72 235.48 147.18 238.73 145.23 235.69 134.86 232.02 136.72" style="fill:#f5f5f5"/><path d="M131.09,341.83a1,1,0,0,1-.48-.13c-.83-.5-1.06-2.27-1.13-3.28a.19.19,0,0,1,.1-.17.23.23,0,0,1,.2,0c.24.2,2.34,2,2.21,2.94a.6.6,0,0,1-.38.49A1.2,1.2,0,0,1,131.09,341.83Zm-1.21-3c.13,1.35.46,2.29.91,2.56a.72.72,0,0,0,.67,0c.14-.07.17-.15.17-.22.07-.51-.93-1.6-1.75-2.34Z" transform="translate(0 -55)" style="fill:#90caf9"/><path d="M132.35,339.66a5.26,5.26,0,0,1-2.81-1.12.17.17,0,0,1,0-.17.18.18,0,0,1,.12-.13c.09,0,2.19-.66,3.13-.08a.92.92,0,0,1,.45.66.63.63,0,0,1-.3.73A1.32,1.32,0,0,1,132.35,339.66Zm-2.3-1.17c.77.53,2.2,1,2.67.74.07,0,.16-.12.12-.35a.61.61,0,0,0-.29-.41A4.1,4.1,0,0,0,130.05,338.49Z" transform="translate(0 -55)" style="fill:#90caf9"/><path d="M211.31,385.36a12.1,12.1,0,0,1-2.47-.31.19.19,0,0,1-.14-.16.19.19,0,0,1,.11-.18c.6-.29,3.68-1.68,4.5-1.13a.54.54,0,0,1,.22.5,1.09,1.09,0,0,1-.45.86A3,3,0,0,1,211.31,385.36Zm-1.84-.55c1,.18,2.68.38,3.39-.16a.72.72,0,0,0,.31-.6.18.18,0,0,0-.06-.17C212.66,383.58,210.81,384.22,209.47,384.81Z" transform="translate(0 -55)" style="fill:#90caf9"/><path d="M208.88,385.05h-.11a.16.16,0,0,1-.06-.18c0-.14.78-3.41,2.58-3.18.47.05.59.29.62.47.12.86-1.94,2.5-3,2.92Zm2.25-3.05c-1.08,0-1.73,1.75-2,2.54,1-.57,2.46-1.87,2.39-2.37,0-.08-.11-.14-.3-.16Z" transform="translate(0 -55)" style="fill:#90caf9"/><path d="M230.39,228.82l-.72-.42c-.14-.09-.21-.23-.15-.31l2.16-2.91c.06-.08.23-.08.37,0l.73.43c.14.08.21.22.15.3l-2.16,2.91C230.71,228.9,230.54,228.9,230.39,228.82Z" transform="translate(0 -55)" style="fill:#90caf9"/><path d="M251.94,241.43l-.72-.43c-.14-.08-.21-.22-.15-.3l2.16-2.91c.06-.08.23-.08.37,0l.73.42c.14.09.21.23.14.31l-2.15,2.91C252.26,241.51,252.09,241.51,251.94,241.43Z" transform="translate(0 -55)" style="fill:#90caf9"/><path d="M241.17,235.12l-.73-.42c-.14-.08-.21-.22-.14-.31l2.15-2.9c.07-.09.23-.09.38,0l.72.42c.15.08.21.22.15.31l-2.16,2.9C241.48,235.21,241.31,235.21,241.17,235.12Z" transform="translate(0 -55)" style="fill:#90caf9"/><path d="M230.39,228.82l-.72-.42c-.14-.09-.21-.23-.15-.31l2.16-2.91c.06-.08.23-.08.37,0l.73.43c.14.08.21.22.15.3l-2.16,2.91C230.71,228.9,230.54,228.9,230.39,228.82Z" transform="translate(0 -55)" style="opacity:0.4000000059604645;isolation:isolate"/><path d="M251.94,241.43l-.72-.43c-.14-.08-.21-.22-.15-.3l2.16-2.91c.06-.08.23-.08.37,0l.73.42c.14.09.21.23.14.31l-2.15,2.91C252.26,241.51,252.09,241.51,251.94,241.43Z" transform="translate(0 -55)" style="opacity:0.4000000059604645;isolation:isolate"/><path d="M241.17,235.12l-.73-.42c-.14-.08-.21-.22-.14-.31l2.15-2.9c.07-.09.23-.09.38,0l.72.42c.15.08.21.22.15.31l-2.16,2.9C241.48,235.21,241.31,235.21,241.17,235.12Z" transform="translate(0 -55)" style="opacity:0.4000000059604645;isolation:isolate"/><path d="M261.18,190c0-6-2-29.61,7.84-31.61,3.11-3.28,18.52-3.62,20.88,4.72,3.12,10.95-1.5,37.67-1.5,37.67L261.18,190" transform="translate(0 -55)" style="fill:#263238"/><path d="M290.45,200.84h0a.25.25,0,0,1-.22-.28h0c0-.27,3.25-27-.34-37.58-1-2.9-3.78-4.93-7.9-5.73-5.36-1.05-11.16.26-12.77,2.12a.24.24,0,0,1-.35,0,.25.25,0,0,1,0-.36c1.88-2.18,8.19-3.27,13.25-2.28,4.3.83,7.24,3,8.28,6.06,3.62,10.71.39,37.53.36,37.8a.25.25,0,0,1-.27.25Z" transform="translate(0 -55)" style="fill:#263238"/><path d="M268,175.07c-1.51,4.34-4.93,11.93-9.18,12.93,0,0-1.25,4.58,6,8.82,8,4.66,6.12-1.73,6.12-1.73-3.74-3.58-1.75-6.74.78-9.32Z" transform="translate(0 -55)" style="fill:#e4897b"/><path d="M269.5,179.43l2.2,6.33a15,15,0,0,0-1.63,1.93c-1.52-1.21-3.15-4.16-2.31-6A8,8,0,0,1,269.5,179.43Z" transform="translate(0 -55)" style="fill:#ce6f64"/><path d="M268.06,166.42c-2.07,7.27-3.1,10.3-.79,15.21,3.47,7.4,12.84,8.35,17,1.85,3.78-5.85,6.52-16.75.56-22a10.3,10.3,0,0,0-16.77,4.94Z" transform="translate(0 -55)" style="fill:#e4897b"/><path d="M265.93,171c5.17,1.93,17.32-4.48,20.63-8.41.44-6.06-13.77-3.67-13.77-3.67S265.21,156.59,265.93,171Z" transform="translate(0 -55)" style="fill:#263238"/><path d="M264.7,172.45a5.47,5.47,0,0,0,.67,4.16c1,1.64,2.84,1,3.64-.62s1.05-4.13-.5-5.2a2.49,2.49,0,0,0-3.44.71A2.45,2.45,0,0,0,264.7,172.45Z" transform="translate(0 -55)" style="fill:#e4897b"/><path d="M278.15,172.21c-.21.58-.07,1.16.31,1.29s.85-.23,1.06-.81.06-1.15-.32-1.29S278.35,171.63,278.15,172.21Z" transform="translate(0 -55)" style="fill:#263238"/><path d="M284.69,174.52c-.2.58-.06,1.15.32,1.29s.85-.23,1.05-.81.06-1.16-.31-1.29S284.9,173.94,284.69,174.52Z" transform="translate(0 -55)" style="fill:#263238"/><path d="M285.57,173.68l1.53.09S286,174.61,285.57,173.68Z" transform="translate(0 -55)" style="fill:#263238"/><path d="M282.61,174.9a16.59,16.59,0,0,0,.76,4.42,2.64,2.64,0,0,1-2.2-.34Z" transform="translate(0 -55)" style="fill:#de5753"/><path d="M278.39,180.56h-.06a5.18,5.18,0,0,1-3.34-3.37.18.18,0,0,1,.14-.22.18.18,0,0,1,.21.12v0a4.91,4.91,0,0,0,3.11,3.11.19.19,0,0,1,.11.23.17.17,0,0,1-.17.12Z" transform="translate(0 -55)" style="fill:#263238"/><path d="M277.86,169.92a.36.36,0,0,1-.17-.68,3.58,3.58,0,0,1,3.28-.13.36.36,0,0,1-.27.67l-.07,0a2.87,2.87,0,0,0-2.6.14A.33.33,0,0,1,277.86,169.92Z" transform="translate(0 -55)" style="fill:#263238"/><path d="M288.84,172.57a.35.35,0,0,1-.34-.27,2.87,2.87,0,0,0-1.66-2,.37.37,0,0,1-.23-.46.36.36,0,0,1,.44-.23h0a3.58,3.58,0,0,1,2.12,2.51.36.36,0,0,1-.26.44h-.09Z" transform="translate(0 -55)" style="fill:#263238"/><path d="M279,171.38l1.53.09S279.46,172.3,279,171.38Z" transform="translate(0 -55)" style="fill:#263238"/><path d="M246.6,182.87c-3.15-.75-12.84,6.63-12.84,6.63l4.11,13.11S248,197,248.94,192.87C249.87,188.59,250.19,183.73,246.6,182.87Z" transform="translate(0 -55)" style="fill:#90caf9"/><path d="M246.6,182.87c-3.15-.75-12.84,6.63-12.84,6.63l4.11,13.11S248,197,248.94,192.87C249.87,188.59,250.19,183.73,246.6,182.87Z" transform="translate(0 -55)" style="fill:#fff;opacity:0.699999988079071;isolation:isolate"/></g><path d="M362,99.44H287.8a12,12,0,0,0-12,12h0v23a12,12,0,0,0,12,12H294v11.8l11.8-11.8H362a12,12,0,0,0,12-12v-23a12,12,0,0,0-12-12Z" transform="translate(0 -55)" style="fill:#90caf9"/><path d="M362,99.44H287.8a12,12,0,0,0-12,12h0v23a12,12,0,0,0,12,12H294v11.8l11.8-11.8H362a12,12,0,0,0,12-12v-23a12,12,0,0,0-12-12Z" transform="translate(0 -55)" style="opacity:0.30000001192092896;isolation:isolate"/><g style="opacity:0.5400000214576721"><path d="M289.52,109h70.74a2.75,2.75,0,0,1,2.75,2.75h0a2.75,2.75,0,0,1-2.75,2.75H289.52a2.75,2.75,0,0,1-2.75-2.75h0A2.75,2.75,0,0,1,289.52,109Z" transform="translate(0 -55)" style="fill:#f5f5f5"/></g><g style="opacity:0.5400000214576721"><path d="M360.25,125.43H314.91a2.78,2.78,0,0,1-2.76-2.76h0a2.76,2.76,0,0,1,2.76-2.75h45.34a2.75,2.75,0,0,1,2.75,2.75h0A2.76,2.76,0,0,1,360.25,125.43Z" transform="translate(0 -55)" style="fill:#f5f5f5"/></g><g style="opacity:0.5400000214576721"><path d="M301.45,125.43H289.52a2.76,2.76,0,0,1-2.75-2.76h0a2.75,2.75,0,0,1,2.75-2.75h11.93a2.75,2.75,0,0,1,2.75,2.75h0A2.76,2.76,0,0,1,301.45,125.43Z" transform="translate(0 -55)" style="fill:#f5f5f5"/></g><g style="opacity:0.5400000214576721"><path d="M342.59,136.35H289.52a2.75,2.75,0,0,1-2.75-2.75h0a2.76,2.76,0,0,1,2.75-2.76h53.07a2.76,2.76,0,0,1,2.75,2.76h0A2.75,2.75,0,0,1,342.59,136.35Z" transform="translate(0 -55)" style="fill:#f5f5f5"/></g></svg>