<svg xmlns="http://www.w3.org/2000/svg" viewBox="0 0 693.4 378.05"><path d="M100.47,386.86c25-11.67,34.83-39.44,38.27-65.31.57-4.32,1.81-8.77.37-12.88s-5.83-7.5-10-6.34c-3.49,1-5.52,4.43-7.84,7.2a25.64,25.64,0,0,1-11.82,7.91c-3,1-6.58,1.25-9.07-.7-3.41-2.67-3-7.86-2.25-12.13q2.09-11.92,4.16-23.85c.75-4.26,1.49-8.62.83-12.9s-3-8.54-6.94-10.37-9.41-.33-11,3.7c-.65,1.68-.6,3.55-1,5.3s-1.59,3.57-3.38,3.78-3.34-1.29-4.42-2.75c-3.74-5.06-5.84-11.12-7.75-17.12s-3.7-12.11-7-17.49-8.25-10-14.39-11.43-13.37,1.28-16,7,0,12.46,3,18a97.53,97.53,0,0,0,16.93,22.28c1.21,1.19,2.51,2.47,2.77,4.14.46,3-2.75,5.37-5.75,5.83-3.41.52-6.85-.4-10.29-.57s-7.34.69-9.15,3.62c-2.5,4.07.43,9.26,3.56,12.87a84.2,84.2,0,0,0,22.15,18c3,1.69,6.17,3.26,8.37,5.89s3.1,6.74,1,9.48-6.2,3.05-9.44,1.89-5.91-3.46-8.89-5.17c-5.58-3.21-13.32-4.09-18,.34-3.06,2.92-4.06,7.52-3.46,11.71s2.59,8,4.79,11.65C36.61,361.07,47.32,372,60.32,379s25.57,10.45,40.11,7.79" transform="translate(-23.97 -62.66)" style="fill:#ebebeb"/><path d="M96.38,369.62a384.94,384.94,0,0,0-8.48-43.76l-2.82-11.37c-.93-3.73-1.85-7.42-3-11A195,195,0,0,0,74.4,283.4c-2.76-6.28-5.6-12.14-8.31-17.6s-5.33-10.49-7.93-15a156.8,156.8,0,0,0-13.79-20.29c-1.82-2.26-3.28-4-4.28-5.12l-1.15-1.3a5.16,5.16,0,0,0-.41-.42s.11.16.36.47l1.1,1.34c1,1.17,2.4,2.91,4.18,5.19A164.28,164.28,0,0,1,57.76,251c2.56,4.5,5.16,9.54,7.85,15s5.5,11.33,8.24,17.6a197.8,197.8,0,0,1,7.62,20c1.12,3.55,2,7.22,3,10.95L87.27,326a393.24,393.24,0,0,1,8.51,43.69" transform="translate(-23.97 -62.66)" style="fill:#e0e0e0"/><path d="M82,303.42a9.93,9.93,0,0,0,.7-1.76c.41-1.14,1-2.82,1.62-4.9,1.31-4.15,2.94-9.94,4.71-16.34s3.5-12.15,4.9-16.26c.69-2.06,1.27-3.72,1.69-4.86a8.88,8.88,0,0,0,.58-1.81,11.12,11.12,0,0,0-.81,1.71c-.5,1.12-1.15,2.76-1.9,4.8-1.51,4.09-3.31,9.84-5.09,16.25s-3.4,12.08-4.57,16.38l-1.43,4.95A9.75,9.75,0,0,0,82,303.42Z" transform="translate(-23.97 -62.66)" style="fill:#e0e0e0"/><path d="M28,283.85a1.77,1.77,0,0,0,.56.19l1.62.42c1.41.35,3.45.86,6,1.57,5,1.38,11.86,3.54,19.31,6.26s14.08,5.49,18.82,7.63c2.37,1.06,4.27,2,5.59,2.58l1.51.71a1.8,1.8,0,0,0,.56.21,2,2,0,0,0-.49-.32L80,302.28c-1.28-.69-3.15-1.67-5.51-2.78-4.69-2.25-11.32-5.09-18.78-7.82a203.16,203.16,0,0,0-19.42-6.09c-2.52-.66-4.58-1.1-6-1.38l-1.65-.3A2.28,2.28,0,0,0,28,283.85Z" transform="translate(-23.97 -62.66)" style="fill:#e0e0e0"/><path d="M95.94,368.49a4.11,4.11,0,0,0,.48-.62L97.69,366c1.1-1.6,2.64-4,4.5-6.87,3.73-5.85,8.63-14.08,13.92-23.24s10.13-17.41,13.75-23.32l4.32-7,1.17-1.9a3.83,3.83,0,0,0,.37-.69,4,4,0,0,0-.48.61L134,305.5c-1.1,1.59-2.64,3.94-4.5,6.87-3.73,5.84-8.63,14.08-13.92,23.24S105.42,353,101.8,358.92l-4.32,7-1.17,1.9A3.36,3.36,0,0,0,95.94,368.49Z" transform="translate(-23.97 -62.66)" style="fill:#e0e0e0"/><path d="M26,332.61a3.65,3.65,0,0,0,.69.4l2,1.06,7.5,3.84c6.33,3.24,15,7.83,24.61,12.93s18.32,9.62,24.71,12.76c3.2,1.58,5.79,2.82,7.6,3.65l2.09.95a4,4,0,0,0,.75.29,4,4,0,0,0-.69-.41l-2-1.06-7.5-3.83c-6.33-3.25-15-7.84-24.61-12.93s-18.32-9.63-24.71-12.77c-3.2-1.57-5.79-2.82-7.6-3.65l-2.09-.94A4,4,0,0,0,26,332.61Z" transform="translate(-23.97 -62.66)" style="fill:#e0e0e0"/><rect x="110.94" width="547.44" height="329.9" style="fill:#f5f5f5"/><rect x="93.94" y="17" width="547.44" height="329.9" style="fill:#ebebeb"/><path d="M73.2,388.94a16.67,16.67,0,0,0-9,5.21,8.56,8.56,0,0,0-2.72,4.9c-.17,1.89,1.12,4,3,4.11a4.93,4.93,0,0,0,3.07-1.28c2.17-1.67,4.31-3.88,7-3.88,1.56,0,3.16.76,4.63.23a3.54,3.54,0,0,0,2.07-3.71A6,6,0,0,0,79,390.7,6.83,6.83,0,0,0,73.2,388.94Z" transform="translate(-23.97 -62.66)" style="fill:#90caf9"/><path d="M70.61,373.48c.11,3.36-3.43,4.87-5.82,4.57s-4.44-1.8-6.37-3.25c-4.4-3.32-9-6.84-11.3-11.84a9,9,0,0,1-1-4.78,4.71,4.71,0,0,1,2.68-3.87c1.81-.74,3.86,0,5.59.93a39,39,0,0,1,13,11,13.85,13.85,0,0,1,3.17,7.24" transform="translate(-23.97 -62.66)" style="fill:#90caf9"/><path d="M77.2,373.46A10,10,0,0,1,70.43,367a17.8,17.8,0,0,1-.39-9.6A29.24,29.24,0,0,1,74.38,347a10.26,10.26,0,0,1,3.06-3.23,4.61,4.61,0,0,1,4.29-.44c2,.95,2.64,3.45,3,5.64a74.42,74.42,0,0,1,.74,11.65c0,3.14-.34,6.42-2,9.07s-4.18,4.38-6.64,3.69" transform="translate(-23.97 -62.66)" style="fill:#90caf9"/><path d="M95.62,406.55a5.35,5.35,0,0,1-.89-.89l-2.31-2.53a46.39,46.39,0,0,0-3.62-3.53,37,37,0,0,0-5-3.63,21.76,21.76,0,0,0-5.61-2.46,11.12,11.12,0,0,0-5-.24A10.27,10.27,0,0,0,70,394.4a5.57,5.57,0,0,1-1.1.6,5.38,5.38,0,0,1,1-.78,9.74,9.74,0,0,1,3.2-1.31,11.26,11.26,0,0,1,5.13.14A21.38,21.38,0,0,1,84,395.53a36,36,0,0,1,5,3.71,45.53,45.53,0,0,1,3.57,3.65c1,1.09,1.69,2,2.19,2.64A5.57,5.57,0,0,1,95.62,406.55Z" transform="translate(-23.97 -62.66)" style="fill:#263238"/><path d="M93.86,404.6a3.91,3.91,0,0,1-.38-.44l-1-1.33c-.86-1.15-2.11-2.82-3.72-4.83-3.19-4-6.86-8.19-12.23-13.91-5.06-5.38-11-11.55-15.3-15.3-1-.86-1.84-1.62-2.62-2.27s-1.45-1.24-2-1.69l-1.28-1.05c-.29-.25-.43-.38-.42-.4a3.17,3.17,0,0,1,.49.32l1.33,1c.59.42,1.28,1,2.07,1.62s1.7,1.37,2.68,2.22a187.72,187.72,0,0,1,14.49,14,196.81,196.81,0,0,1,13.09,15.29c1.57,2,2.78,3.74,3.59,4.93.38.56.68,1,.92,1.39A2.66,2.66,0,0,1,93.86,404.6Z" transform="translate(-23.97 -62.66)" style="fill:#263238"/><path d="M85.58,393.65a12.68,12.68,0,0,1-1-1.4c-.61-.92-1.46-2.3-2.39-4.06a64.2,64.2,0,0,1-2.89-6.38,57.18,57.18,0,0,1-2.57-8.19,43.23,43.23,0,0,1-1.14-15.49,19.9,19.9,0,0,1,.48-2.65c.09-.39.15-.75.24-1.08s.21-.61.3-.88a12.15,12.15,0,0,1,.6-1.62A55.83,55.83,0,0,0,76,358.18,45.19,45.19,0,0,0,77.2,373.5a64.22,64.22,0,0,0,2.52,8.13Q81,384.89,82.49,388c.88,1.77,1.67,3.17,2.23,4.13A9.89,9.89,0,0,1,85.58,393.65Z" transform="translate(-23.97 -62.66)" style="fill:#263238"/><path d="M714.53,242.53s-6.15-4.47-14.54,10.35-11.7,23.43-11.7,23.43-2.18,3.08-4.27.91-4.82-8.19-8.57-7.29c-3.9.93-5.35,5.16-4.9,11.5s1,20.26,1,21.52-.75,3-2.41,1.77-11-12.66-16.17-7.89-1,22.22-.56,24.14,0,2.7-.9,3.13-3.71-3.7-6.51-6.83-6.6-6.27-9.34-3.27-4.13,15.89,7.25,37.43l5.92,9.64,11.37-.13c24.29-1.76,34.49-9.78,35.58-13.69s-3.58-5.47-7.72-6.18-9.12-.89-9.25-1.89.34-1.78,2.18-2.44,18.86-6.36,20.18-13.25-13.32-8.8-15.26-9.54-.85-2.36.22-3,13.16-7.6,18.77-10.57,8.44-6.45,7.17-10.24-7.78-2.79-10.73-3.41-1.49-4.1-1.49-4.1,5.55-7.37,13.67-22.34.88-17.85.88-17.85" transform="translate(-23.97 -62.66)" style="fill:#90caf9"/><path d="M707,255.79a1.87,1.87,0,0,1-.15.32q-.18.33-.48.93l-1.89,3.55c-1.65,3.09-4.06,7.54-7.07,13-6,11-14.42,26.05-23.78,42.67S655.81,348,649.74,358.91c-3,5.46-5.46,9.88-7.17,12.95-.84,1.52-1.49,2.7-2,3.52l-.51.91c-.12.21-.19.31-.19.31a1.87,1.87,0,0,1,.15-.32l.48-.93,1.89-3.56c1.65-3.08,4.06-7.53,7.07-13,6-11,14.42-26,23.78-42.68s17.81-31.69,23.88-42.62c3-5.46,5.46-9.88,7.17-13,.84-1.51,1.49-2.7,2-3.52l.52-.91Z" transform="translate(-23.97 -62.66)" style="fill:#263238"/><path d="M678.92,278.5a3.11,3.11,0,0,1,.26.78c.14.5.33,1.24.55,2.16.43,1.83,1,4.37,1.51,7.18s1,5.28,1.34,7.22c.17.85.31,1.58.42,2.18a3.69,3.69,0,0,1,.12.81,3.14,3.14,0,0,1-.27-.78c-.14-.5-.32-1.24-.53-2.16-.42-1.83-.92-4.38-1.46-7.2s-1-5.26-1.4-7.2c-.16-.85-.31-1.58-.42-2.18A3.69,3.69,0,0,1,678.92,278.5Z" transform="translate(-23.97 -62.66)" style="fill:#263238"/><path d="M684.15,299.08c0-.11,5.16-1.44,11.59-3s11.66-2.72,11.68-2.61-5.16,1.44-11.59,3S684.17,299.18,684.15,299.08Z" transform="translate(-23.97 -62.66)" style="fill:#263238"/><path d="M668.62,324a3.93,3.93,0,0,1,.84,0l2.27.11c1.91.08,4.56.19,7.48.2s5.57,0,7.48-.11l2.27-.07a3.93,3.93,0,0,1,.84,0,3.35,3.35,0,0,1-.83.14c-.53,0-1.31.13-2.26.19-1.92.14-4.57.25-7.5.23s-5.59-.17-7.5-.32c-1-.08-1.73-.16-2.26-.23A3.35,3.35,0,0,1,668.62,324Z" transform="translate(-23.97 -62.66)" style="fill:#263238"/><path d="M659.8,306.39a2.62,2.62,0,0,1,.43.65c.24.43.59,1.06,1,1.84.85,1.55,2,3.72,3.24,6.12s2.35,4.58,3.13,6.17c.4.8.71,1.44.92,1.89a2.76,2.76,0,0,1,.28.72,3.44,3.44,0,0,1-.42-.65c-.25-.43-.59-1.06-1-1.83-.84-1.56-2-3.73-3.23-6.13S661.8,310.59,661,309c-.39-.79-.7-1.44-.91-1.89A3.23,3.23,0,0,1,659.8,306.39Z" transform="translate(-23.97 -62.66)" style="fill:#263238"/><path d="M643.31,326.62a5.18,5.18,0,0,1,.53.84c.35.62.79,1.4,1.31,2.34,1.1,2,2.59,4.76,4.21,7.82s3.07,5.84,4.11,7.86c.48,1,.89,1.77,1.2,2.41a6,6,0,0,1,.4.9,4.86,4.86,0,0,1-.53-.83l-1.31-2.35c-1.1-2-2.59-4.75-4.21-7.81s-3.07-5.85-4.11-7.87l-1.2-2.4A4.93,4.93,0,0,1,643.31,326.62Z" transform="translate(-23.97 -62.66)" style="fill:#263238"/><path d="M654.94,348.19a4.7,4.7,0,0,1,1.06,0h12.37c3.7,0,7.07-.23,9.5-.36l2.87-.15a6.25,6.25,0,0,1,1.06,0,5.63,5.63,0,0,1-1,.16c-.67.08-1.65.17-2.87.27-2.42.2-5.78.4-9.5.47s-7.08,0-9.51-.07c-1.22-.05-2.2-.1-2.88-.15A6.8,6.8,0,0,1,654.94,348.19Z" transform="translate(-23.97 -62.66)" style="fill:#263238"/><rect x="64.2" y="39.95" width="560.63" height="337.85" style="fill:#fff"/><circle cx="80.56" cy="56.58" r="2.6" style="fill:#90caf9"/><circle cx="90.02" cy="56.58" r="2.6" style="fill:#90caf9"/><circle cx="99.49" cy="56.58" r="2.6" style="fill:#90caf9"/><rect x="64.2" y="174.61" width="192.75" height="102.11" style="fill:#90caf9"/><g style="opacity:0.4000000059604645"><rect x="63.94" y="174.36" width="192.75" height="102.11" style="fill:#fff"/></g><path d="M649.89,136c0,.15-125.71.28-280.75.28S88.37,136.16,88.37,136s125.68-.27,280.77-.27S649.89,135.86,649.89,136Z" transform="translate(-23.97 -62.66)" style="fill:#90caf9"/><path d="M545.33,428h.36a4.54,4.54,0,0,0,1-.09,12,12,0,0,0,3.91-1.2,11.78,11.78,0,0,0,4.82-4.49,11.94,11.94,0,0,0,1.49-4,17.69,17.69,0,0,0,.07-4.82,12.16,12.16,0,0,0-1.91-5,12,12,0,0,0-4.43-3.88,11.51,11.51,0,0,0-3-1,16.56,16.56,0,0,0-3.3-.24h-7l-33.26,0-192.6.08a11.71,11.71,0,0,0-11.59,10.48,24.26,24.26,0,0,0,0,3.41,12.66,12.66,0,0,0,.81,3.26,12,12,0,0,0,1.7,2.89,11.7,11.7,0,0,0,5.42,3.76c2.1.76,4.38.58,6.64.6H379l86.59.06,58.38.08,15.87.06h0l-15.87.05-58.38.09H311a12.18,12.18,0,0,1-11.71-11,25.7,25.7,0,0,1,0-3.51,12.08,12.08,0,0,1,2.71-6.49,13,13,0,0,1,2.64-2.39,12,12,0,0,1,6.79-2.06l192.6.08h40.35a17.17,17.17,0,0,1,3.36.25,12.8,12.8,0,0,1,3,1.08,12,12,0,0,1,6.43,9.1,17.8,17.8,0,0,1-.1,4.89,11.9,11.9,0,0,1-10.44,9.67A11.67,11.67,0,0,1,545.33,428Z" transform="translate(-23.97 -62.66)" style="fill:#90caf9"/><path d="M315.24,413.19h-1.9v-.49h4.37v.49h-1.9v4.91h-.57Z" transform="translate(-23.97 -62.66)" style="fill:#263238"/><path d="M321.65,414l-2,4.55c-.34.79-.77,1.05-1.35,1.05a1.41,1.41,0,0,1-1-.37l.26-.41a1,1,0,0,0,.74.31c.36,0,.61-.17.84-.68l.18-.4-1.82-4h.57l1.53,3.45,1.53-3.45Z" transform="translate(-23.97 -62.66)" style="fill:#263238"/><path d="M326.53,416.07a2,2,0,0,1-1.93,2.07h-.07a1.76,1.76,0,0,1-1.54-.8v2.26h-.55V414H323v.8a1.74,1.74,0,0,1,1.56-.83,2,2,0,0,1,2,2Zm-.54,0a1.52,1.52,0,1,0-1.52,1.58,1.5,1.5,0,0,0,1.53-1.47v-.11Z" transform="translate(-23.97 -62.66)" style="fill:#263238"/><path d="M331.19,416.24h-3.4a1.5,1.5,0,0,0,1.58,1.41h0a1.58,1.58,0,0,0,1.24-.53l.31.36a2.15,2.15,0,0,1-3.7-1.41,2,2,0,0,1,1.94-2.06h.06a1.92,1.92,0,0,1,2,1.85,1.47,1.47,0,0,1,0,.21Zm-3.4-.41h2.88a1.44,1.44,0,0,0-2.88,0Z" transform="translate(-23.97 -62.66)" style="fill:#263238"/><path d="M341,415.75v2.35h-.55v-2.3c0-.86-.43-1.3-1.16-1.3a1.31,1.31,0,0,0-1.31,1.29,1.49,1.49,0,0,0,0,.21v2.13h-.55v-2.3c0-.86-.43-1.3-1.17-1.3a1.32,1.32,0,0,0-1.37,1.25,1.62,1.62,0,0,0,0,.22v2.13h-.55V414h.53v.74a1.66,1.66,0,0,1,1.49-.77,1.46,1.46,0,0,1,1.44.86,1.76,1.76,0,0,1,1.61-.86,1.53,1.53,0,0,1,1.58,1.48A1.51,1.51,0,0,1,341,415.75Z" transform="translate(-23.97 -62.66)" style="fill:#263238"/><path d="M346.07,416.24h-3.4a1.5,1.5,0,0,0,1.58,1.41h0a1.58,1.58,0,0,0,1.24-.53l.31.36a2.15,2.15,0,0,1-3.7-1.41,2,2,0,0,1,1.94-2.06h.06a1.92,1.92,0,0,1,2,1.85,1.47,1.47,0,0,1,0,.21Zm-3.4-.41h2.88a1.44,1.44,0,0,0-2.88,0Z" transform="translate(-23.97 -62.66)" style="fill:#263238"/><path d="M346.63,417.64l.24-.43a2.51,2.51,0,0,0,1.45.45c.77,0,1.09-.26,1.09-.66,0-1.06-2.64-.23-2.64-1.83,0-.67.58-1.16,1.61-1.16a2.8,2.8,0,0,1,1.44.38l-.24.44a2,2,0,0,0-1.2-.35c-.73,0-1.06.29-1.06.67,0,1.1,2.63.27,2.63,1.83,0,.7-.61,1.16-1.67,1.16A2.7,2.7,0,0,1,346.63,417.64Z" transform="translate(-23.97 -62.66)" style="fill:#263238"/><path d="M350.4,417.64l.25-.43a2.46,2.46,0,0,0,1.44.45c.77,0,1.09-.26,1.09-.66,0-1.06-2.63-.23-2.63-1.83,0-.67.57-1.16,1.6-1.16a2.7,2.7,0,0,1,1.44.38l-.24.44a2,2,0,0,0-1.2-.35c-.73,0-1,.29-1,.67,0,1.1,2.63.27,2.63,1.83,0,.7-.62,1.16-1.68,1.16A2.72,2.72,0,0,1,350.4,417.64Z" transform="translate(-23.97 -62.66)" style="fill:#263238"/><path d="M357.8,415.58v2.52h-.52v-.63a1.53,1.53,0,0,1-1.4.67c-.92,0-1.48-.48-1.48-1.18s.4-1.15,1.56-1.15h1.29v-.25c0-.69-.39-1.07-1.15-1.07a2,2,0,0,0-1.35.48l-.25-.41a2.61,2.61,0,0,1,1.66-.55,1.44,1.44,0,0,1,1.63,1.22A1.36,1.36,0,0,1,357.8,415.58Zm-.55,1.3v-.66H356c-.79,0-1,.31-1,.72s.37.77,1,.77a1.3,1.3,0,0,0,1.25-.83Z" transform="translate(-23.97 -62.66)" style="fill:#263238"/><path d="M363.06,414v3.57a1.79,1.79,0,0,1-1.55,2,1.69,1.69,0,0,1-.45,0,2.86,2.86,0,0,1-1.89-.63l.28-.42a2.36,2.36,0,0,0,1.6.56,1.3,1.3,0,0,0,1.49-1.47v-.52a1.8,1.8,0,0,1-1.58.79,2,2,0,1,1,0-3.94,1.85,1.85,0,0,1,1.61.81V414Zm-.53,1.93a1.54,1.54,0,1,0-1.59,1.49H361a1.45,1.45,0,0,0,1.54-1.36v-.13Z" transform="translate(-23.97 -62.66)" style="fill:#263238"/><path d="M368.13,416.24h-3.4a1.51,1.51,0,0,0,1.6,1.41,1.55,1.55,0,0,0,1.24-.53l.31.36a2.16,2.16,0,0,1-3.69-1.2v-.21a2,2,0,1,1,3.95-.63,2.22,2.22,0,0,1,0,.63C368.14,416.12,368.13,416.18,368.13,416.24Zm-3.4-.41h2.88a1.44,1.44,0,0,0-2.88,0Z" transform="translate(-23.97 -62.66)" style="fill:#263238"/><path d="M368.9,417.71a.41.41,0,0,1,.41-.41h0a.42.42,0,0,1,.42.41.44.44,0,0,1-.42.43.42.42,0,0,1-.41-.43Z" transform="translate(-23.97 -62.66)" style="fill:#263238"/><path d="M370.53,417.71a.42.42,0,0,1,.48-.35.42.42,0,0,1,.35.35.42.42,0,1,1-.83.13A.29.29,0,0,1,370.53,417.71Z" transform="translate(-23.97 -62.66)" style="fill:#263238"/><path d="M372.17,417.71a.41.41,0,0,1,.41-.41h0a.42.42,0,0,1,.42.41.44.44,0,0,1-.42.43.42.42,0,0,1-.41-.43Z" transform="translate(-23.97 -62.66)" style="fill:#263238"/><path d="M582.35,414.11c-.06,0-.12-.51-.49-1.34A5.79,5.79,0,0,0,579.3,410a5.58,5.58,0,1,0,1.32,8.85,5.77,5.77,0,0,0,1.65-3.36c.11-.9,0-1.42.08-1.42s0,.12.09.36a3.91,3.91,0,0,1,0,1.08,5.77,5.77,0,0,1-1.59,3.61,6,6,0,0,1-10.31-5.24,5.78,5.78,0,0,1,.64-1.8,5.87,5.87,0,0,1,2.49-2.49,6,6,0,0,1,5.78.07,5.81,5.81,0,0,1,2.57,3,5.68,5.68,0,0,1,.27,1C582.36,414,582.37,414.11,582.35,414.11Z" transform="translate(-23.97 -62.66)" style="fill:#263238"/><path d="M575.16,413.91a.85.85,0,1,1-.85-.85h0A.85.85,0,0,1,575.16,413.91Z" transform="translate(-23.97 -62.66)" style="fill:#263238"/><path d="M579.63,413.91a.85.85,0,1,1-.85-.85h0A.85.85,0,0,1,579.63,413.91Z" transform="translate(-23.97 -62.66)" style="fill:#263238"/><path d="M579,415.43c.07,0,.14.42-.08,1.07a2.34,2.34,0,0,1-.7,1,2.31,2.31,0,0,1-1.43.46,2.71,2.71,0,0,1-2.25-1.27c-.36-.58-.38-1-.32-1s.24.34.63.78a2.62,2.62,0,0,0,1.95,1,1.91,1.91,0,0,0,1.76-1.05C578.83,415.82,578.9,415.42,579,415.43Z" transform="translate(-23.97 -62.66)" style="fill:#263238"/><path d="M597,416.83a1.31,1.31,0,0,0,.62-.23,1.61,1.61,0,0,0,.88-1.33v-2.72a2,2,0,0,0-.31-1.38,1.49,1.49,0,0,0-1.3-.57,1.44,1.44,0,0,0-1.22.68,1.51,1.51,0,0,0-.21.65v.78c0,1-.06,2,0,2.69a1.62,1.62,0,0,0,1,1.25c.38.15.64.13.64.18s-.24.12-.7,0a1.82,1.82,0,0,1-1.32-1.39c-.09-.84-.06-1.72-.09-2.76v-.81a1.8,1.8,0,0,1,.28-.9,2.09,2.09,0,0,1,3.4-.15,1.73,1.73,0,0,1,.36.87,5.75,5.75,0,0,1,0,.83c0,1,0,1.94-.07,2.75a1.79,1.79,0,0,1-1.18,1.5C597.24,416.94,597,416.86,597,416.83Z" transform="translate(-23.97 -62.66)" style="fill:#263238"/><path d="M599.81,413.19a6.47,6.47,0,0,1,.2,1.91,3.1,3.1,0,0,1-5.07,2.53,2.74,2.74,0,0,1-.45-.45,3.14,3.14,0,0,1-.68-2.08,6.47,6.47,0,0,1,.2-1.91,7.25,7.25,0,0,1,.19,1.91,2.83,2.83,0,0,0,.68,1.75,2.68,2.68,0,0,0,3.78.28l.28-.28a2.83,2.83,0,0,0,.68-1.75A7.25,7.25,0,0,1,599.81,413.19Z" transform="translate(-23.97 -62.66)" style="fill:#263238"/><path d="M597.08,420.76c-.15,0-.27-.6-.27-1.33s.12-1.33.27-1.33.28.59.28,1.33S597.23,420.76,597.08,420.76Z" transform="translate(-23.97 -62.66)" style="fill:#263238"/><path d="M620.14,414.16A4.55,4.55,0,0,1,620,413a2.76,2.76,0,0,0-.23-1.3,1.63,1.63,0,0,0-1.37-.83,1.57,1.57,0,0,0-1.53,1.07,1.89,1.89,0,0,0-.08.53v6.35a1.47,1.47,0,0,0,.51,1.18,1.51,1.51,0,0,0,2.13-.14,1.24,1.24,0,0,0,.14-.18,2,2,0,0,0,.24-1.26v-2.74a4.6,4.6,0,0,0-.06-1.17,1.08,1.08,0,0,0-1.4-.6l-.17.08a1.08,1.08,0,0,0-.48.66,3.93,3.93,0,0,0,0,.84v1.41a4.4,4.4,0,0,1-.11,1.2,6.08,6.08,0,0,1-.1-1.2c0-.43,0-.89,0-1.41a7.06,7.06,0,0,1,0-.92,1.46,1.46,0,0,1,2.67-.48,1.3,1.3,0,0,1,.14.26,1.79,1.79,0,0,1,.11.69v3.38a2.6,2.6,0,0,1-.31,1.55,2,2,0,0,1-3.78-1.15v-6.35a2,2,0,0,1,.12-.69,2,2,0,0,1,2-1.3,1.93,1.93,0,0,1,1.63,1.08,2.73,2.73,0,0,1,.18,1.44A5.61,5.61,0,0,1,620.14,414.16Z" transform="translate(-23.97 -62.66)" style="fill:#263238"/><rect x="274.25" y="93.25" width="42.78" height="42.78" rx="19.45" style="fill:#ebebeb"/><path d="M304.28,192.21a50.36,50.36,0,0,1,13.81-3.14c11.68-.6,17.36,2.6,17.36,2.6S330,199,318.4,198.72C308.57,198.44,304.28,192.21,304.28,192.21Z" transform="translate(-23.97 -62.66)" style="fill:#263238"/><path d="M321,197.67h0a6.14,6.14,0,0,1-6-5.87c-.1-2.37-.18-4.54-.18-4.54s-5-.53-5.26-5.45,0-16.25,0-16.25h0a17.12,17.12,0,0,1,17.29,1.32l.75.53-.36,24.23a6.12,6.12,0,0,1-6.21,6Z" transform="translate(-23.97 -62.66)" style="fill:#ffbe9d"/><path d="M314.79,187.19a11.43,11.43,0,0,0,6.33-2.14s-1.35,3.62-6.28,3.41Z" transform="translate(-23.97 -62.66)" style="fill:#eb996e"/><path d="M327.23,172.54c.09,0,3.33-1.17,3.39,2.2s-3.34,2.73-3.34,2.63S327.23,172.54,327.23,172.54Z" transform="translate(-23.97 -62.66)" style="fill:#ffbe9d"/><path d="M328.28,176.08a.3.3,0,0,1,.16.08.56.56,0,0,0,.44,0,1.46,1.46,0,0,0,.65-1.32,1.74,1.74,0,0,0-.18-.84.68.68,0,0,0-.45-.44.29.29,0,0,0-.34.17v.17s-.07-.06,0-.2a.36.36,0,0,1,.13-.21.47.47,0,0,1,.33-.09.83.83,0,0,1,.62.51,2,2,0,0,1,.22.93,1.53,1.53,0,0,1-.84,1.47.59.59,0,0,1-.53-.08C328.29,176.16,328.27,176.09,328.28,176.08Z" transform="translate(-23.97 -62.66)" style="fill:#eb996e"/><path d="M311.9,173.67a.71.71,0,0,0,.68.71.68.68,0,0,0,.73-.63h0a.71.71,0,0,0-.68-.71.68.68,0,0,0-.73.61Z" transform="translate(-23.97 -62.66)" style="fill:#263238"/><path d="M311.05,172.29c.08.09.62-.3,1.37-.3s1.31.38,1.4.29-.05-.21-.29-.38a2,2,0,0,0-1.12-.35,1.88,1.88,0,0,0-1.1.36C311.08,172.09,311,172.25,311.05,172.29Z" transform="translate(-23.97 -62.66)" style="fill:#263238"/><path d="M319.17,173.76a.71.71,0,0,0,.68.71.67.67,0,0,0,.72-.62v0a.7.7,0,0,0-.67-.71.68.68,0,0,0-.73.63Z" transform="translate(-23.97 -62.66)" style="fill:#263238"/><path d="M318.49,172.43c.08.1.62-.3,1.37-.3s1.32.38,1.4.29-.05-.21-.29-.38a2,2,0,0,0-1.12-.35,1.87,1.87,0,0,0-1.09.36C318.52,172.23,318.44,172.39,318.49,172.43Z" transform="translate(-23.97 -62.66)" style="fill:#263238"/><path d="M315.74,178.05a4.3,4.3,0,0,0-1.23-.22c-.19,0-.38-.06-.41-.19a1.08,1.08,0,0,1,.13-.58l.57-1.47a26,26,0,0,0,1.29-3.85,24.14,24.14,0,0,0-1.59,3.74c-.2.52-.38,1-.55,1.48a1.05,1.05,0,0,0-.1.76.47.47,0,0,0,.32.28,1.13,1.13,0,0,0,.32.05A5.23,5.23,0,0,0,315.74,178.05Z" transform="translate(-23.97 -62.66)" style="fill:#263238"/><path d="M318,178.57c-.13,0-.13.82-.83,1.4s-1.58.49-1.58.61.19.16.56.17a2.1,2.1,0,0,0,1.32-.46,1.77,1.77,0,0,0,.64-1.18A1.06,1.06,0,0,0,318,178.57Z" transform="translate(-23.97 -62.66)" style="fill:#263238"/><path d="M318.29,169.47c.08.2.83.11,1.72.21s1.61.35,1.72.17-.07-.28-.36-.48a2.77,2.77,0,0,0-1.28-.45,2.92,2.92,0,0,0-1.34.16C318.42,169.21,318.26,169.37,318.29,169.47Z" transform="translate(-23.97 -62.66)" style="fill:#263238"/><path d="M311.32,170.1c.14.17.66,0,1.29,0s1.15.11,1.28-.07,0-.26-.27-.42a1.88,1.88,0,0,0-2.06.06C311.34,169.84,311.27,170,311.32,170.1Z" transform="translate(-23.97 -62.66)" style="fill:#263238"/><path d="M307,162.31a1.8,1.8,0,0,1,.67-1.63,1.29,1.29,0,0,1,1.67.13,1.51,1.51,0,0,1,1.14-1.8l.15,0c.81,0,1.49.56,2.27.77a3.72,3.72,0,0,0,2.3-.26c.73-.3,1.41-.7,2.15-1a6.29,6.29,0,0,1,8,3.7,2.81,2.81,0,0,1,3,1.12,4.65,4.65,0,0,1,.7,3.23,10.54,10.54,0,0,1-.56,2.21V169c-.05,2.71-.36,5.89-1.51,5.91-2,0-1.53-3.77-1.53-3.77-2.48-1-1.56-4.66-2.17-5.22s-1.91-1.86-7.09.78a9.9,9.9,0,0,1-6.14.66h-.2a4.9,4.9,0,0,1-1.33-.57,2.61,2.61,0,0,1-1.09-1.21,1.45,1.45,0,0,1,.28-1.55A3.07,3.07,0,0,1,307,162.31Z" transform="translate(-23.97 -62.66)" style="fill:#263238"/><path d="M387.46,269.35H366.73a8.92,8.92,0,0,1-8.92-8.92h0v-10.7h29.65a8.92,8.92,0,0,1,8.92,8.92h0v1.78a8.92,8.92,0,0,1-8.92,8.92Z" transform="translate(-23.97 -62.66)" style="fill:#f5f5f5"/><circle cx="358.32" cy="196.88" r="2" style="fill:#263238"/><circle cx="352.2" cy="196.88" r="2" style="fill:#263238"/><circle cx="346.28" cy="196.88" r="2" style="fill:#263238"/><path d="M357.8,160.89H458.62a18,18,0,0,1,18,18v3.59a18,18,0,0,1-18,18H375.77a18,18,0,0,1-18-18V160.89Z" transform="translate(-23.97 -62.66)" style="fill:#f5f5f5"/><path d="M455.91,174c0,.15-18.16.27-40.56.27s-40.57-.12-40.57-.27,18.16-.28,40.57-.28S455.91,173.84,455.91,174Z" transform="translate(-23.97 -62.66)" style="fill:#263238"/><path d="M455.91,180.61c0,.15-18.16.27-40.56.27s-40.57-.12-40.57-.27,18.16-.27,40.57-.27S455.91,180.46,455.91,180.61Z" transform="translate(-23.97 -62.66)" style="fill:#263238"/><path d="M422.24,186.76c0,.15-10.62.27-23.73.27s-23.73-.12-23.73-.27,10.62-.27,23.73-.27S422.24,186.61,422.24,186.76Z" transform="translate(-23.97 -62.66)" style="fill:#263238"/><path d="M357.8,205.65H495.64a18.07,18.07,0,0,1,18.08,18.08h0v3.61a18.07,18.07,0,0,1-18.08,18.08H375.88a18.07,18.07,0,0,1-18.08-18.08V205.65Z" transform="translate(-23.97 -62.66)" style="fill:#f5f5f5"/><path d="M496.27,218.92c0,.15-27.2.27-60.74.27s-60.75-.12-60.75-.27,27.19-.28,60.75-.28S496.27,218.77,496.27,218.92Z" transform="translate(-23.97 -62.66)" style="fill:#263238"/><path d="M496.27,225.54c0,.15-27.2.28-60.74.28s-60.75-.13-60.75-.28,27.19-.27,60.75-.27S496.27,225.39,496.27,225.54Z" transform="translate(-23.97 -62.66)" style="fill:#263238"/><path d="M445.86,231.69c0,.15-15.92.28-35.54.28s-35.54-.13-35.54-.28,15.91-.27,35.54-.27S445.86,231.54,445.86,231.69Z" transform="translate(-23.97 -62.66)" style="fill:#263238"/><path d="M546.88,340.67h29.65v10.7a8.92,8.92,0,0,1-8.92,8.92H546.88a8.92,8.92,0,0,1-8.92-8.92v-1.78A8.92,8.92,0,0,1,546.88,340.67Z" transform="translate(-23.97 -62.66)" style="fill:#f5f5f5"/><circle cx="528.07" cy="287.82" r="2" style="fill:#263238"/><circle cx="534.2" cy="287.82" r="2" style="fill:#263238"/><circle cx="540.11" cy="287.82" r="2" style="fill:#263238"/><rect x="568.7" y="187.38" width="42.78" height="42.78" rx="19.45" style="fill:#ebebeb"/><path d="M598.23,285.81a43.69,43.69,0,0,1,13.52-2.65c6.79,0,17.51,3.32,17.51,3.32s-6,7-17.51,6.33C601.94,292.22,598.23,285.81,598.23,285.81Z" transform="translate(-23.97 -62.66)" style="fill:#455a64"/><path d="M603.84,257.17c-1.59.93-2,3-2.16,4.86s-.44,3.92-1.94,5c-1.23.89-3.19,1-3.7,2.44a1.73,1.73,0,0,0,2.52,2.07,3,3,0,0,0,.26,3.49,2,2,0,0,0,2.83.08,2.12,2.12,0,0,0,.35-.44,1.52,1.52,0,1,0,2.84,1.09h0" transform="translate(-23.97 -62.66)" style="fill:#263238"/><path d="M622.87,273.25a1.83,1.83,0,0,0,3.59-.72v0c-.19-.75-.84-1.38-.77-2.15s1.13-1.4,2-1.64,2-.58,2.22-1.47a2.91,2.91,0,0,0-1-2.4c-.59-.71-1-1.74-.47-2.45.28-.36.76-.51,1.1-.81a2,2,0,0,0,0-2.75,3.72,3.72,0,0,0-2.77-1.06,27.26,27.26,0,0,0-3,.34,12.18,12.18,0,0,1-9.29-3" transform="translate(-23.97 -62.66)" style="fill:#263238"/><path d="M603.85,264.33l.71,20.78a6.6,6.6,0,0,0,6.82,6.37h0a6.6,6.6,0,0,0,6.32-6.28c.09-1.82.16-3.33.16-3.33s5.26-.61,5.53-5.84c.13-2.53,0-7.75-.21-12.48a9.76,9.76,0,0,0-9.37-9.34h-.5a9.69,9.69,0,0,0-9.51,9.87C603.84,264.16,603.85,264.25,603.85,264.33Z" transform="translate(-23.97 -62.66)" style="fill:#eb996e"/><path d="M617.91,281.79a12.18,12.18,0,0,1-6.75-2.2s1.47,3.82,6.71,3.56Z" transform="translate(-23.97 -62.66)" style="fill:#aa6550"/><path d="M621,267a.74.74,0,0,1-.75.72.71.71,0,0,1-.75-.67v0a.77.77,0,0,1,.75-.73.72.72,0,0,1,.75.69Z" transform="translate(-23.97 -62.66)" style="fill:#263238"/><path d="M622,266.07c-.1.1-.64-.35-1.45-.38s-1.41.35-1.49.25.06-.22.32-.39a2,2,0,0,1,1.2-.32,1.93,1.93,0,0,1,1.15.42C622,265.85,622,266,622,266.07Z" transform="translate(-23.97 -62.66)" style="fill:#263238"/><path d="M613.25,266.78a.74.74,0,0,1-.75.72.71.71,0,0,1-.75-.67v0a.77.77,0,0,1,.75-.73.72.72,0,0,1,.75.69Z" transform="translate(-23.97 -62.66)" style="fill:#263238"/><path d="M614.08,265.91c-.1.09-.65-.35-1.45-.38s-1.41.35-1.49.25.06-.22.32-.39a2,2,0,0,1,1.2-.32,1.93,1.93,0,0,1,1.15.42C614.05,265.69,614.13,265.87,614.08,265.91Z" transform="translate(-23.97 -62.66)" style="fill:#263238"/><path d="M616.76,272a5.33,5.33,0,0,1,1.32-.19c.21,0,.4,0,.44-.18a1,1,0,0,0-.11-.61c-.18-.51-.36-1-.55-1.59a27.33,27.33,0,0,1-1.2-4.15,26.16,26.16,0,0,1,1.53,4c.18.56.36,1.09.52,1.6a1.19,1.19,0,0,1,.08.81.52.52,0,0,1-.35.28,1,1,0,0,1-.35,0A5.92,5.92,0,0,1,616.76,272Z" transform="translate(-23.97 -62.66)" style="fill:#263238"/><path d="M614.38,272.45c.13,0,.09.87.82,1.52s1.65.59,1.65.71-.21.16-.6.16a2.17,2.17,0,0,1-1.39-.55,1.83,1.83,0,0,1-.63-1.27C614.21,272.66,614.32,272.44,614.38,272.45Z" transform="translate(-23.97 -62.66)" style="fill:#263238"/><path d="M614.41,262.77c-.08.21-.88.08-1.83.15s-1.72.31-1.84.11.09-.3.4-.5a3.24,3.24,0,0,1,2.8-.2C614.28,262.49,614.45,262.66,614.41,262.77Z" transform="translate(-23.97 -62.66)" style="fill:#263238"/><path d="M621.79,263.73c-.15.18-.7,0-1.36-.07s-1.24.08-1.36-.12,0-.27.3-.44a2,2,0,0,1,2.19.16C621.78,263.46,621.85,263.65,621.79,263.73Z" transform="translate(-23.97 -62.66)" style="fill:#263238"/><path d="M609.76,258.81h0a4.11,4.11,0,0,0-1.64,2.6v.1c-.26,1.49-.28,3-.56,4.49a6.81,6.81,0,0,1-2,4c-.47.4-1.28.66-1.63.15a1.28,1.28,0,0,1-.16-.69c-.14-3.61-1-6.85-.84-10.62a3.16,3.16,0,0,1,1.42-2.53c.81-.54,1.8-1.08,2.66-.63s1.93,2.13,2.58,2.85" transform="translate(-23.97 -62.66)" style="fill:#263238"/><path d="M605.52,266.76c-.09,0-3.55-1.2-3.58,2.38s3.57,2.87,3.58,2.77S605.52,266.76,605.52,266.76Z" transform="translate(-23.97 -62.66)" style="fill:#eb996e"/><path d="M604.44,270.54a.29.29,0,0,0-.17.09.64.64,0,0,1-.47,0,1.52,1.52,0,0,1-.7-1.39,2,2,0,0,1,.18-.89.71.71,0,0,1,.47-.48.32.32,0,0,1,.37.18v.17a.19.19,0,0,0,0-.2.42.42,0,0,0-.48-.32.86.86,0,0,0-.66.55,2.15,2.15,0,0,0-.22,1,1.63,1.63,0,0,0,.9,1.56.68.68,0,0,0,.57-.09C604.43,270.63,604.45,270.55,604.44,270.54Z" transform="translate(-23.97 -62.66)" style="fill:#aa6550"/><path d="M606.81,256.21c-.82-1.46,1.67-3.42,3.46-3.91s4.08.47,5.81,1.12a9.83,9.83,0,0,0,3.35,1,8.22,8.22,0,0,0,2.29-.49,5.69,5.69,0,0,1,2.31-.36,2.15,2.15,0,0,1,1.83,1.26,1.36,1.36,0,0,1-.81,1.75l-.19.05a1.76,1.76,0,1,1,1.59,3.14,1.75,1.75,0,0,1-1.25.13c.52-.37,1.28.3,1.19.93a1.84,1.84,0,0,1-1.28,1.31,6.71,6.71,0,0,1-4.77-.26c-1.52-.58-2.92-1.45-4.43-2.07s-4-1.72-5.59-1.24c-1.15.36-2,1.69-2.62,1.36a2.17,2.17,0,0,1-1.07-1.65,6.74,6.74,0,0,1,.15-2" transform="translate(-23.97 -62.66)" style="fill:#263238"/><path d="M623,256a1,1,0,0,1,.89.15,1.81,1.81,0,0,1,.67.85,1.78,1.78,0,0,1,0,1.43,3.17,3.17,0,0,1-3.24,1.49,8.74,8.74,0,0,1-4.1-1.78,21.77,21.77,0,0,0-3.71-2.36,5.45,5.45,0,0,0-1.82-.48,4.4,4.4,0,0,0-1.61.2,3.35,3.35,0,0,0-1.87,1.39,6.33,6.33,0,0,0-.36.8.89.89,0,0,1,0-.23,2.45,2.45,0,0,1,.23-.64,3.41,3.41,0,0,1,1.9-1.54,4.34,4.34,0,0,1,1.71-.26,6.07,6.07,0,0,1,1.92.47,21.42,21.42,0,0,1,3.78,2.37,8.58,8.58,0,0,0,3.94,1.75,2.92,2.92,0,0,0,3-1.28,1.56,1.56,0,0,0,.06-1.27,1.67,1.67,0,0,0-.58-.8A1.39,1.39,0,0,0,623,256Z" transform="translate(-23.97 -62.66)" style="fill:#455a64"/><path d="M613.34,253.79c0,.06-.48-.11-1.23-.17a5.48,5.48,0,0,0-2.84.6,5.28,5.28,0,0,0-2,2.06c-.37.66-.47,1.13-.53,1.12a2.54,2.54,0,0,1,.32-1.23,4.87,4.87,0,0,1,5.12-2.78A2.68,2.68,0,0,1,613.34,253.79Z" transform="translate(-23.97 -62.66)" style="fill:#455a64"/><path d="M603.46,262.68a1.7,1.7,0,0,1-.27-1,3.65,3.65,0,0,1,2.7-3.76,1.71,1.71,0,0,1,1-.06c0,.05-.38.07-.94.28a3.8,3.8,0,0,0-2.53,3.54C603.41,262.29,603.51,262.67,603.46,262.68Z" transform="translate(-23.97 -62.66)" style="fill:#455a64"/><path d="M475,259.54H581.43V315a19.28,19.28,0,0,1-19.28,19.28H475A19.28,19.28,0,0,1,455.77,315V278.82A19.28,19.28,0,0,1,475,259.54Z" transform="translate(-23.97 -62.66)" style="fill:#f5f5f5"/><path d="M560,279.11c0,.15-18.16.27-40.57.27s-40.57-.12-40.57-.27,18.16-.28,40.57-.28S560,279,560,279.11Z" transform="translate(-23.97 -62.66)" style="fill:#263238"/><path d="M560,285.73c0,.15-18.16.27-40.57.27s-40.57-.12-40.57-.27,18.16-.27,40.57-.27S560,285.58,560,285.73Z" transform="translate(-23.97 -62.66)" style="fill:#263238"/><path d="M560,291.88c0,.15-18.16.27-40.57.27s-40.57-.12-40.57-.27,18.16-.27,40.57-.27S560,291.73,560,291.88Z" transform="translate(-23.97 -62.66)" style="fill:#263238"/><path d="M560,298.57c0,.15-18.16.27-40.57.27s-40.57-.12-40.57-.27,18.16-.27,40.57-.27S560,298.42,560,298.57Z" transform="translate(-23.97 -62.66)" style="fill:#263238"/><path d="M489.43,305.79a2.82,2.82,0,0,0-.75-1.51,2.76,2.76,0,0,0-1.42-.84,2.23,2.23,0,0,0-1.7.37,1.6,1.6,0,0,1-3.05-.2,2.93,2.93,0,0,0-2.08,2.43,3.4,3.4,0,0,0,.47,2.09,4.78,4.78,0,0,0,1.69,1.53c1.1.63,2.55,1.43,2.55,1.43s1.19-.93,2.27-1.61A4.71,4.71,0,0,0,489,307.9,3.39,3.39,0,0,0,489.43,305.79Z" transform="translate(-23.97 -62.66)" style="fill:#90caf9"/><path d="M501.25,305.79a2.82,2.82,0,0,0-.75-1.51,2.72,2.72,0,0,0-1.43-.84,2.18,2.18,0,0,0-2.37,1.17,2.17,2.17,0,0,0-2.37-1,2.93,2.93,0,0,0-2.08,2.43,3.33,3.33,0,0,0,.46,2.09,5,5,0,0,0,1.7,1.53c1.1.63,2.55,1.43,2.55,1.43s1.19-.93,2.27-1.61a4.86,4.86,0,0,0,1.63-1.59A3.41,3.41,0,0,0,501.25,305.79Z" transform="translate(-23.97 -62.66)" style="fill:#90caf9"/><path d="M513.07,305.79a2.82,2.82,0,0,0-.75-1.51,2.72,2.72,0,0,0-1.43-.84,2.18,2.18,0,0,0-2.37,1.17,2.17,2.17,0,0,0-2.37-1,2.92,2.92,0,0,0-2.08,2.43,3.33,3.33,0,0,0,.46,2.09,5,5,0,0,0,1.7,1.53c1.1.63,2.55,1.43,2.55,1.43s1.19-.93,2.27-1.61a4.86,4.86,0,0,0,1.63-1.59A3.41,3.41,0,0,0,513.07,305.79Z" transform="translate(-23.97 -62.66)" style="fill:#90caf9"/><path d="M524.89,305.79a2.89,2.89,0,0,0-.75-1.51,2.72,2.72,0,0,0-1.43-.84,2.18,2.18,0,0,0-2.37,1.17,2.29,2.29,0,0,0-.66-.69,2.19,2.19,0,0,0-1.71-.3,2.62,2.62,0,0,0-1.39.89,2.78,2.78,0,0,0-.69,1.54,3.33,3.33,0,0,0,.46,2.09,4.89,4.89,0,0,0,1.7,1.53c1.1.63,2.55,1.43,2.55,1.43s1.19-.93,2.27-1.61a4.86,4.86,0,0,0,1.63-1.59A3.43,3.43,0,0,0,524.89,305.79Z" transform="translate(-23.97 -62.66)" style="fill:#90caf9"/><path d="M536.71,305.79a2.89,2.89,0,0,0-.75-1.51,2.79,2.79,0,0,0-1.43-.84,2.18,2.18,0,0,0-2.37,1.17,2.29,2.29,0,0,0-.66-.69,2.19,2.19,0,0,0-1.71-.3,2.62,2.62,0,0,0-1.39.89,2.78,2.78,0,0,0-.69,1.54,3.33,3.33,0,0,0,.46,2.09,4.89,4.89,0,0,0,1.7,1.53c1.1.63,2.55,1.43,2.55,1.43s1.19-.93,2.27-1.61a4.86,4.86,0,0,0,1.63-1.59A3.43,3.43,0,0,0,536.71,305.79Z" transform="translate(-23.97 -62.66)" style="fill:#90caf9"/><path d="M329.78,365.82a7,7,0,0,1-2.12-.45l.06,3.72a31.58,31.58,0,0,1,7,2.11,21.48,21.48,0,0,0,5.93-8.85Q337.38,363.8,334,365A11.28,11.28,0,0,1,329.78,365.82Z" transform="translate(-23.97 -62.66)" style="fill:#ebebeb"/><path d="M320.45,333.86h0a21.39,21.39,0,0,0-21.39,21.39h0a21.36,21.36,0,0,0,8.3,16.91,28.69,28.69,0,0,1,8.48-3v-2.32h-.52c-3.26-.18-6.53-.86-9.76-.41a2.5,2.5,0,0,1-1.53-.07,2.36,2.36,0,0,1-.91-1.65c-.29-1.41-.45-3.08.55-4.11.68-.7,1.83-1,2.06-2s-.55-1.67-1-2.47a4.12,4.12,0,0,1,.53-4.69c.77-.84,1.88-1.35,2.44-2.33a8,8,0,0,0,.57-3.06,5.67,5.67,0,0,1,2.48-4.17,4,4,0,0,1,2.94-.48c1.45-1.95,4.53-.84,6.08-.91,2-.09,4.17-.15,6,.8h0a3.55,3.55,0,0,1,.72-2.37,3.89,3.89,0,0,1,3.43-1.38,2.71,2.71,0,0,1,1.83.94A2.77,2.77,0,0,1,332,341a3.77,3.77,0,0,1-3.13,2.53h0v.07a1.84,1.84,0,0,1,.07.47c.34.62.61,1.29.94,1.91a4.18,4.18,0,0,0,1.94,2c.62.25,1.33.26,1.94.54a3.9,3.9,0,0,1,1.88,2.86A10.63,10.63,0,0,0,336,353a2,2,0,0,0,1.09,1.17,12.75,12.75,0,0,0,1.51.21,2.38,2.38,0,0,1,1.43,1.13,7.19,7.19,0,0,1,.69,1.73c.23.74.45,1.48.68,2.21a21.62,21.62,0,0,0,.42-4.24h0A21.39,21.39,0,0,0,320.45,333.86Z" transform="translate(-23.97 -62.66)" style="fill:#ebebeb"/><path d="M313.38,375.43a24.93,24.93,0,0,1-6-3.26A21,21,0,0,0,313.38,375.43Z" transform="translate(-23.97 -62.66)" style="fill:#ebebeb"/><path d="M327.73,369.7a5.95,5.95,0,0,1-11.89-.12v-.39a28.69,28.69,0,0,0-8.48,3h0a24.93,24.93,0,0,0,6,3.26,21.27,21.27,0,0,0,7.07,1.21h0a21.3,21.3,0,0,0,14.25-5.44,31.58,31.58,0,0,0-7-2.11Z" transform="translate(-23.97 -62.66)" style="fill:#90caf9"/><path d="M321.78,375.52a5.94,5.94,0,0,0,6-5.82v-.61l-.06-3.72a12.21,12.21,0,0,1-1.65-.74,4.91,4.91,0,0,1-2.53-4.18v-1.9l.75-4.93c-2.3-.84-3-4.3-3-4.3a7.54,7.54,0,0,1-2.62.85,2.62,2.62,0,0,1-2.43-1,3.7,3.7,0,0,1-.21-2.64,3,3,0,0,0-.45-2.27,1.67,1.67,0,0,0-2.3-.54,1.69,1.69,0,0,0-.36.3,9,9,0,0,0-2.19,5.39,59,59,0,0,0,.06,10.8c.87,5.46,5,6.16,5,6.16a13.83,13.83,0,0,0,7.31-1.95s-1.77,3.75-7.23,3.24l-.08-1.29v3.25a5.94,5.94,0,0,0,6,5.9ZM319.21,352a1.86,1.86,0,0,1,1.09-.35,2,2,0,0,1,1.11.34c.24.18.33.34.29.39a5.5,5.5,0,0,0-1.39-.29c-.75,0-1.28.39-1.37.3S319,352.16,319.21,352Zm1.93,3.12a.17.17,0,0,1-.21.09.16.16,0,0,1-.09-.21h0a.16.16,0,0,1,.3.12Zm-2.4-4.44a3.06,3.06,0,0,1,1.34-.16,2.9,2.9,0,0,1,1.27.45c.29.2.41.39.36.48a8.93,8.93,0,0,1-1.72-.17c-.89-.09-1.63,0-1.71-.21s.13-.28.46-.41Zm-6.87-.18a1.81,1.81,0,0,1,1-.35,1.78,1.78,0,0,1,1,.28c.23.17.31.34.26.43a8.5,8.5,0,0,1-1.28.06c-.63.06-1.14.19-1.27,0s.07-.27.29-.44Zm1.18,3.23a.7.7,0,0,1-.67-.71.67.67,0,0,1,.71-.63h0a.71.71,0,0,1,.68.71.68.68,0,0,1-.73.61Zm1.24-1.35c-.08.09-.63-.3-1.39-.29s-1.28.39-1.37.3,0-.21.27-.39a1.86,1.86,0,0,1,1.09-.35A2,2,0,0,1,314,352c.24.15.33.31.29.36Zm.83,5.67h-.32a.47.47,0,0,1-.32-.29,1.09,1.09,0,0,1,.1-.75l.54-1.47a23,23,0,0,1,1.59-3.72,26.9,26.9,0,0,1-1.28,3.83l-.57,1.46a1,1,0,0,0-.13.57c0,.13.22.17.41.19a5.13,5.13,0,0,1,1.22.22,4.3,4.3,0,0,1-1.24-.09Zm3.82,2.47a1.22,1.22,0,0,1-1.2.75,1.32,1.32,0,0,1-1-.53c-.37,0-.57-.12-.56-.17s.16-.06.39-.1h0a.72.72,0,0,1,.1-.57.69.69,0,0,1,.71-.24.56.56,0,0,1,.4-.6.66.66,0,0,1,.55,0c.11-.29.15-.51.21-.51s.15.2.12.54v.17a1.17,1.17,0,0,1,.28,1.24Zm.73-7.5a.65.65,0,0,1,.69-.63h0a.7.7,0,0,1,.67.71.66.66,0,0,1-.69.63h0a.69.69,0,0,1-.67-.71v0Z" transform="translate(-23.97 -62.66)" style="fill:#ffbe9d"/><path d="M313.1,352.37a.67.67,0,0,0-.72.62h0a.7.7,0,0,0,.67.71.68.68,0,0,0,.73-.63h0A.71.71,0,0,0,313.1,352.37Z" transform="translate(-23.97 -62.66)" style="fill:#263238"/><path d="M314,352a2,2,0,0,0-1.11-.34,1.86,1.86,0,0,0-1.09.35c-.23.18-.31.35-.27.39a5,5,0,0,1,1.37-.3c.75,0,1.31.38,1.39.29S314.24,352.15,314,352Z" transform="translate(-23.97 -62.66)" style="fill:#263238"/><path d="M320.34,353.71a.67.67,0,0,0,.72-.6v0a.7.7,0,0,0-.67-.71.67.67,0,0,0-.72.6v0a.69.69,0,0,0,.67.71Z" transform="translate(-23.97 -62.66)" style="fill:#263238"/><path d="M318.94,352.37c.09.09.62-.3,1.37-.3s1.31.38,1.39.29-.05-.21-.29-.39a2,2,0,0,0-1.11-.34,1.86,1.86,0,0,0-1.09.35C319,352.16,318.9,352.33,318.94,352.37Z" transform="translate(-23.97 -62.66)" style="fill:#263238"/><path d="M315.14,357.81c-.19,0-.38-.06-.41-.19a1,1,0,0,1,.13-.57l.57-1.46a26.9,26.9,0,0,0,1.28-3.83,23,23,0,0,0-1.59,3.72l-.54,1.47a1.09,1.09,0,0,0-.1.75.47.47,0,0,0,.32.29h.32a4.29,4.29,0,0,0,1.24,0A5.07,5.07,0,0,0,315.14,357.81Z" transform="translate(-23.97 -62.66)" style="fill:#263238"/><path d="M315.92,367.62c5.46.51,7.23-3.24,7.23-3.24a13.83,13.83,0,0,1-7.31,1.95Z" transform="translate(-23.97 -62.66)" style="fill:#eb996e"/><path d="M318.37,359.06a.66.66,0,0,0-.55,0,.56.56,0,0,0-.4.6.69.69,0,0,0-.71.24.72.72,0,0,0-.1.57,2.46,2.46,0,0,0,1.15-.49A2.13,2.13,0,0,0,318.37,359.06Z" transform="translate(-23.97 -62.66)" style="fill:#eb996e"/><path d="M318.06,360.26a2,2,0,0,1-1.32.46h0a1.32,1.32,0,0,0,1,.53,1.22,1.22,0,0,0,1.2-.75,1.17,1.17,0,0,0-.28-1.24A1.73,1.73,0,0,1,318.06,360.26Z" transform="translate(-23.97 -62.66)" style="fill:#eb996e"/><path d="M316.56,360.43Z" transform="translate(-23.97 -62.66)" style="fill:#eb996e"/><path d="M318.06,360.26a1.73,1.73,0,0,0,.6-1v-.17c0-.34-.06-.54-.12-.54s-.1.22-.21.51a2.09,2.09,0,0,1-.61.89,2.46,2.46,0,0,1-1.15.49h0c-.23,0-.39.05-.39.1s.19.16.56.17h0A2,2,0,0,0,318.06,360.26Z" transform="translate(-23.97 -62.66)" style="fill:#263238"/><path d="M320,351.26c.89.09,1.6.35,1.72.17s-.07-.28-.36-.48a2.9,2.9,0,0,0-1.27-.45,3.06,3.06,0,0,0-1.34.16c-.33.13-.49.29-.46.39A8.16,8.16,0,0,0,320,351.26Z" transform="translate(-23.97 -62.66)" style="fill:#263238"/><path d="M312.91,350.9c.63,0,1.16.11,1.28-.06s0-.26-.26-.43a1.78,1.78,0,0,0-1-.28,1.81,1.81,0,0,0-1,.35c-.22.17-.29.35-.23.43A5,5,0,0,0,312.91,350.9Z" transform="translate(-23.97 -62.66)" style="fill:#263238"/><path d="M340.05,355.55a2.38,2.38,0,0,0-1.43-1.13,12.75,12.75,0,0,1-1.51-.21A2,2,0,0,1,336,353a11,11,0,0,1-.42-1.59,3.9,3.9,0,0,0-1.88-2.86c-.61-.28-1.32-.29-1.94-.54a4.18,4.18,0,0,1-1.94-2c-.33-.62-.6-1.29-.94-1.91v.23s-.09-.21-.21-.54V344a3.79,3.79,0,0,1-.81,2.07c-1.1,1.59-4.1,2.55-6.82,1.36a3.21,3.21,0,0,1-1.53-1.47,13.48,13.48,0,0,1-.61-1.86,4,4,0,0,0-2-2.4,4.38,4.38,0,0,0-2.07-.55c-.51,0-.8.07-.8,0s.06,0,.2-.07a3.11,3.11,0,0,1,.6-.09,4.32,4.32,0,0,1,2.17.49,4.17,4.17,0,0,1,2.12,2.5,14.21,14.21,0,0,0,.6,1.81,2.91,2.91,0,0,0,1.41,1.34,5.49,5.49,0,0,0,1.95.49,7,7,0,0,0,1.88-.13,4.62,4.62,0,0,0,2.7-1.59,3.81,3.81,0,0,0,.85-2,2,2,0,0,0,0-.35,4.36,4.36,0,0,0-.79-1.24,6.53,6.53,0,0,0-1.88-1.28,1.17,1.17,0,0,1,.69.12,3.71,3.71,0,0,1,1.41,1,3.49,3.49,0,0,1,.79,1.42h0a3.77,3.77,0,0,0,3.13-2.53,2.77,2.77,0,0,0-.25-2.56,2.71,2.71,0,0,0-1.83-.94,3.89,3.89,0,0,0-3.43,1.38,3.55,3.55,0,0,0-.72,2.37h0c-1.79-1-3.94-.89-6-.8-1.55.07-4.63-1-6.08.91a4,4,0,0,0-2.94.48,5.67,5.67,0,0,0-2.48,4.17,8,8,0,0,1-.57,3.06c-.56,1-1.67,1.49-2.44,2.33a4.13,4.13,0,0,0-.53,4.69c.45.8,1.21,1.58,1,2.47s-1.38,1.29-2.06,2c-1,1-.84,2.7-.55,4.11a2.36,2.36,0,0,0,.91,1.65,2.5,2.5,0,0,0,1.53.07c3.23-.45,6.5.23,9.76.41h.52v-.54s-4.18-.7-5-6.16a59,59,0,0,1-.06-10.8,9,9,0,0,1,2.19-5.39,1.67,1.67,0,0,1,2.36-.12,1.48,1.48,0,0,1,.3.36,3,3,0,0,1,.45,2.27,3.7,3.7,0,0,0,.21,2.64,2.62,2.62,0,0,0,2.43,1,7.54,7.54,0,0,0,2.62-.85s.67,3.46,3,4.3l-.75,4.93v1.9a4.91,4.91,0,0,0,2.53,4.18,12.21,12.21,0,0,0,1.65.74,7,7,0,0,0,2.12.45A11.44,11.44,0,0,0,334,365q3.36-1.17,6.62-2.63a22,22,0,0,0,.79-2.86c-.23-.73-.45-1.47-.68-2.21A7.3,7.3,0,0,0,340.05,355.55Z" transform="translate(-23.97 -62.66)" style="fill:#263238"/><path d="M320.84,355a.17.17,0,0,0,.09.21h0a.16.16,0,1,0,.12-.3A.16.16,0,0,0,320.84,355Z" transform="translate(-23.97 -62.66)" style="fill:#263238"/><path d="M326.6,341.21a1.17,1.17,0,0,0-.69-.12,6.53,6.53,0,0,1,1.88,1.28,4.36,4.36,0,0,1,.79,1.24v-.46a1.6,1.6,0,0,1,.05.21,3.69,3.69,0,0,1,0,.47c.12.33.17.55.21.54s0-.09,0-.23a1.84,1.84,0,0,0-.07-.47v-.07a3.49,3.49,0,0,0-.79-1.42A3.61,3.61,0,0,0,326.6,341.21Z" transform="translate(-23.97 -62.66)" style="fill:#90caf9"/><path d="M328.64,343.36a1.6,1.6,0,0,0-.05-.21v.46a2,2,0,0,1,0,.35,3.81,3.81,0,0,1-.85,2,4.62,4.62,0,0,1-2.7,1.59,7,7,0,0,1-1.88.13,5.49,5.49,0,0,1-2-.49,2.91,2.91,0,0,1-1.41-1.34,14.21,14.21,0,0,1-.6-1.81,4.17,4.17,0,0,0-2.12-2.5,4.32,4.32,0,0,0-2.17-.49,3.11,3.11,0,0,0-.6.09c-.14,0-.2.06-.2.07s.29,0,.8,0a4.38,4.38,0,0,1,2.07.55,4,4,0,0,1,2,2.4,13.48,13.48,0,0,0,.61,1.86A3.19,3.19,0,0,0,321,347.4c2.72,1.19,5.72.23,6.82-1.36a3.79,3.79,0,0,0,.81-2.07v-.14A2.46,2.46,0,0,0,328.64,343.36Z" transform="translate(-23.97 -62.66)" style="fill:#455a64"/><path d="M352.36,348.15H453.19a18,18,0,0,1,18,18v3.59a18,18,0,0,1-18,18H370.33a18,18,0,0,1-18-18V348.15Z" transform="translate(-23.97 -62.66)" style="fill:#f5f5f5"/><path d="M452.33,361.83c0,.15-18.17.27-40.57.27s-40.57-.12-40.57-.27,18.16-.28,40.57-.28S452.33,361.67,452.33,361.83Z" transform="translate(-23.97 -62.66)" style="fill:#263238"/><path d="M452.33,368.45c0,.15-18.17.27-40.57.27s-40.57-.12-40.57-.27,18.16-.27,40.57-.27S452.33,368.3,452.33,368.45Z" transform="translate(-23.97 -62.66)" style="fill:#263238"/><path d="M418.66,374.6c0,.15-10.63.27-23.73.27s-23.74-.12-23.74-.27,10.63-.27,23.74-.27S418.66,374.45,418.66,374.6Z" transform="translate(-23.97 -62.66)" style="fill:#263238"/><rect x="64.2" y="73.35" width="192.75" height="102.11" style="fill:#90caf9"/><path d="M242.12,173.83c0,.15-14.69.28-32.8.28s-32.8-.13-32.8-.28,14.68-.27,32.8-.27S242.12,173.68,242.12,173.83Z" transform="translate(-23.97 -62.66)" style="fill:#fafafa"/><path d="M242.12,195.38c0,.15-14.69.28-32.8.28s-32.8-.13-32.8-.28,14.68-.27,32.8-.27S242.12,195.23,242.12,195.38Z" transform="translate(-23.97 -62.66)" style="fill:#fafafa"/><path d="M267,187.07c0,.15-20.26.27-45.24.27s-45.25-.12-45.25-.27,20.25-.27,45.25-.27S267,186.92,267,187.07Z" transform="translate(-23.97 -62.66)" style="fill:#fafafa"/><path d="M250.14,276.73c0,.15-14.69.27-32.8.27s-32.8-.12-32.8-.27,14.69-.27,32.8-.27S250.14,276.58,250.14,276.73Z" transform="translate(-23.97 -62.66)" style="fill:#fafafa"/><path d="M250.14,298.28c0,.15-14.69.27-32.8.27s-32.8-.12-32.8-.27,14.69-.27,32.8-.27S250.14,298.13,250.14,298.28Z" transform="translate(-23.97 -62.66)" style="fill:#fafafa"/><path d="M275,290c0,.15-20.26.27-45.24.27s-45.25-.12-45.25-.27,20.26-.28,45.25-.28S275,289.81,275,290Z" transform="translate(-23.97 -62.66)" style="fill:#fafafa"/><rect x="63.94" y="275.68" width="193" height="102.11" style="fill:#90caf9"/><path d="M250.14,381.48c0,.15-14.69.27-32.8.27s-32.8-.12-32.8-.27,14.69-.28,32.8-.28S250.14,381.33,250.14,381.48Z" transform="translate(-23.97 -62.66)" style="fill:#fafafa"/><path d="M250.14,403c0,.15-14.69.27-32.8.27s-32.8-.12-32.8-.27,14.69-.28,32.8-.28S250.14,402.88,250.14,403Z" transform="translate(-23.97 -62.66)" style="fill:#fafafa"/><path d="M275,394.71c0,.15-20.26.28-45.24.28s-45.25-.13-45.25-.28,20.26-.27,45.25-.27S275,394.56,275,394.71Z" transform="translate(-23.97 -62.66)" style="fill:#fafafa"/><path d="M648.79,440.46c0-1.73-.08-130.84-.21-337.85l.21.21-560.58.06h0l.27-.27V440.46l-.25-.26,560.62.26-560.62.25H88V102.33h.32l560.58.07H649v.21C648.88,309.62,648.79,438.73,648.79,440.46Z" transform="translate(-23.97 -62.66)" style="fill:#90caf9"/><path d="M547.35,162.05H681.53a18.07,18.07,0,0,1,18.08,18.08h0v2.67a18.07,18.07,0,0,1-18.08,18.08H565.44a18.07,18.07,0,0,1-18.08-18.08h0V162.05Z" transform="translate(-23.97 -62.66)" style="fill:#90caf9"/><path d="M682.57,175c0,.15-26.56.27-59.32.27s-59.32-.12-59.32-.27,26.55-.28,59.32-.28S682.57,174.86,682.57,175Z" transform="translate(-23.97 -62.66)" style="fill:#fff"/><path d="M682.57,181.48c0,.15-26.56.27-59.32.27s-59.32-.12-59.32-.27,26.55-.28,59.32-.28S682.57,181.32,682.57,181.48Z" transform="translate(-23.97 -62.66)" style="fill:#fff"/><path d="M633.34,187.48c0,.15-15.54.27-34.71.27s-34.7-.12-34.7-.27,15.53-.27,34.7-.27S633.34,187.33,633.34,187.48Z" transform="translate(-23.97 -62.66)" style="fill:#fff"/><rect x="80.86" y="293.19" width="67.02" height="67.02" rx="30.47" style="fill:#fff"/><path d="M113.12,412.33s11-4.51,21.61-4.58,28.06,5.4,28.06,5.4-9.69,11.7-28.06,9.72C119.41,421.22,113.12,412.33,113.12,412.33Z" transform="translate(-23.97 -62.66)" style="fill:#455a64"/><path d="M122.33,367c-2.5,1.45-3.1,4.73-3.38,7.61s-.7,6.13-3,7.82c-1.93,1.39-5,1.58-5.81,3.82a2.71,2.71,0,0,0,4,3.24,4.7,4.7,0,0,0,.41,5.47c1.38,1.4,4.15,1.21,5-.56a2.39,2.39,0,0,0,4.31,2.07,2.35,2.35,0,0,0,.14-.37" transform="translate(-23.97 -62.66)" style="fill:#263238"/><path d="M152.14,392.23a2.87,2.87,0,1,0,5.65-1,1.16,1.16,0,0,0,0-.18c-.29-1.17-1.31-2.16-1.2-3.36.13-1.45,1.77-2.19,3.18-2.57s3.07-.91,3.47-2.31-.64-2.65-1.5-3.76-1.6-2.73-.74-3.84c.44-.56,1.19-.8,1.73-1.27a3.15,3.15,0,0,0,0-4.3,5.74,5.74,0,0,0-4.33-1.66,42.06,42.06,0,0,0-4.75.52,19,19,0,0,1-14.54-4.74" transform="translate(-23.97 -62.66)" style="fill:#263238"/><path d="M122.34,378.24l1.12,32.57a10.31,10.31,0,0,0,10.63,10h.11a10.34,10.34,0,0,0,9.91-9.83c.13-2.86.24-5.22.24-5.22s8.25-1,8.67-9.15c.21-4,0-12.15-.33-19.56A15.28,15.28,0,0,0,138,362.39h-.79a15.17,15.17,0,0,0-14.88,15.45C122.33,378,122.33,378.11,122.34,378.24Z" transform="translate(-23.97 -62.66)" style="fill:#eb996e"/><path d="M144.37,405.61a19.15,19.15,0,0,1-10.57-3.46s2.29,6,10.5,5.58Z" transform="translate(-23.97 -62.66)" style="fill:#aa6550"/><path d="M149.21,382.43a1.17,1.17,0,0,1-1.18,1.14,1.14,1.14,0,0,1-1.16-1.1h0a1.16,1.16,0,0,1,1.17-1.13,1.12,1.12,0,0,1,1.17,1.07Z" transform="translate(-23.97 -62.66)" style="fill:#263238"/><path d="M150.77,381c-.16.14-1-.55-2.28-.59s-2.2.54-2.34.38.1-.34.51-.61a3.14,3.14,0,0,1,1.88-.5,3,3,0,0,1,1.8.66C150.72,380.63,150.84,380.91,150.77,381Z" transform="translate(-23.97 -62.66)" style="fill:#263238"/><path d="M137.07,382.09a1.19,1.19,0,0,1-1.18,1.13,1.11,1.11,0,0,1-1.16-1.06v0A1.17,1.17,0,0,1,135.9,381a1.13,1.13,0,0,1,1.17,1.09Z" transform="translate(-23.97 -62.66)" style="fill:#263238"/><path d="M138.37,380.72c-.15.15-1-.54-2.27-.59s-2.21.55-2.34.39.09-.34.51-.62a3.28,3.28,0,0,1,1.88-.5,3.2,3.2,0,0,1,1.8.66C138.33,380.38,138.45,380.66,138.37,380.72Z" transform="translate(-23.97 -62.66)" style="fill:#263238"/><path d="M142.58,390.25a7.54,7.54,0,0,1,2.06-.29c.32,0,.63-.07.69-.29a1.74,1.74,0,0,0-.18-1l-.85-2.49a43,43,0,0,1-1.89-6.49,40.92,40.92,0,0,1,2.41,6.32c.28.88.55,1.71.81,2.5a1.86,1.86,0,0,1,.12,1.27.83.83,0,0,1-.55.45,2.51,2.51,0,0,1-.55.06A8.44,8.44,0,0,1,142.58,390.25Z" transform="translate(-23.97 -62.66)" style="fill:#263238"/><path d="M138.83,391c.21,0,.16,1.37,1.29,2.38s2.59.93,2.6,1.12-.34.25-.95.24a3.43,3.43,0,0,1-2.18-.85,3,3,0,0,1-1-2C138.57,391.29,138.74,391,138.83,391Z" transform="translate(-23.97 -62.66)" style="fill:#263238"/><path d="M138.89,375.8c-.14.34-1.39.12-2.87.24s-2.7.48-2.88.16c-.08-.15.14-.46.63-.77a4.74,4.74,0,0,1,2.16-.66,4.6,4.6,0,0,1,2.23.35C138.69,375.36,139,375.64,138.89,375.8Z" transform="translate(-23.97 -62.66)" style="fill:#263238"/><path d="M150.45,377.31c-.24.28-1.09-.05-2.14-.11s-1.93.12-2.12-.19c-.09-.15.06-.43.46-.68a3.11,3.11,0,0,1,3.43.24C150.44,376.88,150.55,377.18,150.45,377.31Z" transform="translate(-23.97 -62.66)" style="fill:#263238"/><path d="M131.6,369.61h0a6.49,6.49,0,0,0-2.56,4.07v.17c-.41,2.32-.45,4.71-.88,7a10.62,10.62,0,0,1-3.13,6.2c-.74.64-2,1-2.57.24a2,2,0,0,1-.25-1.08c-.21-5.66-1.55-10.73-1.31-16.64a5,5,0,0,1,2.22-4c1.28-.84,2.82-1.7,4.17-1s3,3.35,4,4.48" transform="translate(-23.97 -62.66)" style="fill:#263238"/><path d="M125,382.06c-.14-.06-5.57-1.89-5.61,3.73s5.6,4.49,5.61,4.33S125,382.06,125,382.06Z" transform="translate(-23.97 -62.66)" style="fill:#eb996e"/><path d="M123.26,388a1.65,1.65,0,0,1-.26.14.93.93,0,0,1-.73,0,2.4,2.4,0,0,1-1.11-2.17,3.23,3.23,0,0,1,.29-1.4,1.11,1.11,0,0,1,.74-.75.49.49,0,0,1,.57.28c.08.15,0,.26.07.27s.12-.09.08-.32a.62.62,0,0,0-.22-.35.75.75,0,0,0-.54-.15,1.38,1.38,0,0,0-1,.86,3.36,3.36,0,0,0-.35,1.56,2.56,2.56,0,0,0,1.41,2.44,1.06,1.06,0,0,0,.9-.14C123.25,388.12,123.28,388,123.26,388Z" transform="translate(-23.97 -62.66)" style="fill:#aa6550"/><path d="M127,365.53c-1.3-2.29,2.61-5.36,5.41-6.13s6.39.73,9.11,1.76c1.72.64,3.41,1.51,5.25,1.51a11.88,11.88,0,0,0,3.58-.77,9.13,9.13,0,0,1,3.62-.56,3.38,3.38,0,0,1,2.87,2,2.12,2.12,0,0,1-1.25,2.73l-.28.08a2.75,2.75,0,0,1,2.44,4.93,2.77,2.77,0,0,1-1.9.2c.82-.57,2,.47,1.86,1.46a2.92,2.92,0,0,1-2,2,10.55,10.55,0,0,1-7.48-.41c-2.38-.91-4.58-2.27-6.94-3.24s-6.32-2.69-8.76-1.94c-1.8.55-3.11,2.64-4.1,2.13a3.4,3.4,0,0,1-1.67-2.59,10.06,10.06,0,0,1,.24-3.19" transform="translate(-23.97 -62.66)" style="fill:#263238"/><path d="M152.41,365.18a1.54,1.54,0,0,1,1.39.24,2.81,2.81,0,0,1,1.06,1.32,2.76,2.76,0,0,1,0,2.25c-.73,1.61-2.89,2.57-5.07,2.33a13.77,13.77,0,0,1-6.43-2.79,33.24,33.24,0,0,0-5.81-3.7,8.78,8.78,0,0,0-2.84-.75,7,7,0,0,0-2.53.32,5.28,5.28,0,0,0-2.93,2.17,11.94,11.94,0,0,0-.56,1.27v-.37a3.5,3.5,0,0,1,.35-1,5.26,5.26,0,0,1,3-2.42,7.35,7.35,0,0,1,2.67-.41,9.13,9.13,0,0,1,3,.75,32.14,32.14,0,0,1,5.92,3.71,13.57,13.57,0,0,0,6.17,2.74c2,.25,4-.61,4.7-2a2.49,2.49,0,0,0,.09-2,2.67,2.67,0,0,0-.91-1.26A2.41,2.41,0,0,0,152.41,365.18Z" transform="translate(-23.97 -62.66)" style="fill:#455a64"/><path d="M137.21,361.74c0,.08-.75-.18-1.93-.26a7.94,7.94,0,0,0-7.66,4.15c-.57,1-.74,1.78-.83,1.76a3.94,3.94,0,0,1,.5-1.93,7.61,7.61,0,0,1,8-4.35A4,4,0,0,1,137.21,361.74Z" transform="translate(-23.97 -62.66)" style="fill:#455a64"/><path d="M121.73,375.66a2.67,2.67,0,0,1-.42-1.53,5.88,5.88,0,0,1,1.06-3.7,5.79,5.79,0,0,1,3.16-2.19,2.78,2.78,0,0,1,1.59-.11c0,.09-.6.13-1.47.46a6,6,0,0,0-4,5.53C121.65,375.06,121.81,375.64,121.73,375.66Z" transform="translate(-23.97 -62.66)" style="fill:#455a64"/><path d="M152.42,300.16a12.07,12.07,0,0,1-3.46-.73l.09,6.05a53.43,53.43,0,0,1,11.39,3.44,34.73,34.73,0,0,0,9.67-14.42q-5.3,2.37-10.79,4.28A18.74,18.74,0,0,1,152.42,300.16Z" transform="translate(-23.97 -62.66)" style="fill:#fff"/><path d="M137.2,248h0a34.88,34.88,0,0,0-34.88,34.88h0a34.79,34.79,0,0,0,13.54,27.58,47.55,47.55,0,0,1,13.83-4.85v-3.78h-.86c-5.31-.29-10.65-1.4-15.92-.67a4.08,4.08,0,0,1-2.49-.12,3.69,3.69,0,0,1-1.48-2.69c-.48-2.3-.74-5,.9-6.71,1.1-1.13,3-1.69,3.35-3.23s-.89-2.74-1.63-4a6.7,6.7,0,0,1,.87-7.65c1.25-1.36,3.07-2.19,4-3.8s.71-3.3.92-5a9.28,9.28,0,0,1,4-6.81,6.74,6.74,0,0,1,4.77-.78c2.37-3.19,7.41-1.36,9.94-1.47,3.31-.15,6.8-.24,9.72,1.3h0a5.7,5.7,0,0,1,1.17-3.86,6.25,6.25,0,0,1,5.6-2.24,4.34,4.34,0,0,1,3,1.52,4.5,4.5,0,0,1,.41,4.18,6.16,6.16,0,0,1-5.1,4.12h-.06v.12a4.81,4.81,0,0,1,.12.76c.55,1,1,2.1,1.53,3.12a6.78,6.78,0,0,0,3.17,3.26c1,.41,2.16.42,3.16.88,1.76.8,2.65,2.78,3.07,4.67a16.82,16.82,0,0,0,.67,2.6,3.36,3.36,0,0,0,1.79,1.91c.78.28,1.66.13,2.46.33a3.92,3.92,0,0,1,2.33,1.85,11.32,11.32,0,0,1,1.13,2.82c.37,1.2.73,2.4,1.1,3.6a34.83,34.83,0,0,0,.69-6.91h0A34.89,34.89,0,0,0,137.2,248Z" transform="translate(-23.97 -62.66)" style="fill:#fff"/><path d="M125.58,315.81a41.27,41.27,0,0,1-9.69-5.29A34.62,34.62,0,0,0,125.58,315.81Z" transform="translate(-23.97 -62.66)" style="fill:#fff"/><path d="M149.07,306.48a9.69,9.69,0,1,1-19.38-.19v-.64a47.55,47.55,0,0,0-13.83,4.85h0c3.31,2.4,4.35,3.81,9.6,5.47a38.8,38.8,0,0,0,11.71,1.81h0a34.72,34.72,0,0,0,23.24-8.88A53.43,53.43,0,0,0,149,305.46Z" transform="translate(-23.97 -62.66)" style="fill:#90caf9"/><path d="M139.38,316a9.69,9.69,0,0,0,9.69-9.51v-1l-.09-6.05a20.34,20.34,0,0,1-2.69-1.22,8,8,0,0,1-4.13-6.81c0-.89,0-1.92.05-3.09l1.23-8.05c-3.75-1.37-4.84-7-4.84-7a12.77,12.77,0,0,1-4.29,1.38,4.28,4.28,0,0,1-3.95-1.7c-.78-1.25-.6-2.85-.35-4.3a5,5,0,0,0-.73-3.7,2.73,2.73,0,0,0-3.76-.87,2.43,2.43,0,0,0-.58.48,14.81,14.81,0,0,0-3.58,8.79c-.37,5.93-.6,13.19.11,17.62,1.41,8.9,8.24,10,8.24,10a22.62,22.62,0,0,0,11.92-3.19s-2.89,6.12-11.8,5.29l-.12-2.1v5.3a9.69,9.69,0,0,0,9.65,9.73Zm-4.21-38.4A3,3,0,0,1,137,277a3.07,3.07,0,0,1,1.81.55c.4.29.54.56.48.63a7.81,7.81,0,0,0-2.27-.47c-1.27,0-2.09.63-2.23.49s0-.32.38-.61Zm3.15,5.08a.25.25,0,0,1-.32.15h0a.25.25,0,0,1-.15-.32v0a.25.25,0,0,1,.47.19Zm-3.91-7.24a4.86,4.86,0,0,1,4.26.47c.47.32.67.64.58.78-.19.3-1.35-.12-2.8-.27s-2.66,0-2.79-.35c0-.16.22-.43.75-.64Zm-11.2-.3a3,3,0,0,1,3.35-.1c.38.26.51.54.43.69a13.5,13.5,0,0,1-2.08.1c-1,.1-1.87.3-2.08,0-.1-.12,0-.41.38-.7Zm1.93,5.27a1.13,1.13,0,0,1-1.1-1.15,1.1,1.1,0,0,1,1.18-1,1.15,1.15,0,0,1,1.1,1.15,1.09,1.09,0,0,1-1.18,1Zm2-2.2c-.13.15-1-.49-2.26-.47s-2.09.63-2.23.49,0-.34.43-.63a3.16,3.16,0,0,1,3.59,0c.41.28.55.55.48.62Zm1.36,9.25a2.33,2.33,0,0,1-.53-.07.85.85,0,0,1-.52-.46,1.81,1.81,0,0,1,.17-1.23l.88-2.41a40.45,40.45,0,0,1,2.59-6.06,42.07,42.07,0,0,1-2.09,6.25c-.32.83-.63,1.63-.93,2.39a1.59,1.59,0,0,0-.2.93c0,.21.35.27.66.31a7.58,7.58,0,0,1,2,.36,8.53,8.53,0,0,1-2,0Zm6.23,4a2,2,0,0,1-2,1.22,2.24,2.24,0,0,1-1.63-.87c-.6,0-.93-.2-.91-.28s.26-.1.63-.17h.07a1.07,1.07,0,0,1,.74-1.32,1.14,1.14,0,0,1,.58,0,1,1,0,0,1,.65-1,1.33,1.33,0,0,1,.9,0c.19-.47.24-.82.34-.81s.24.32.19.88a.43.43,0,0,1,0,.24,1.91,1.91,0,0,1,.5,2.09Zm1.18-12.24a1.1,1.1,0,0,1,1.18-1,1.13,1.13,0,0,1,1.1,1.15,1.1,1.1,0,0,1-1.18,1,1.15,1.15,0,0,1-1.09-1.12Z" transform="translate(-23.97 -62.66)" style="fill:#ffbe9d"/><path d="M125.22,278.22a1.1,1.1,0,0,0-1.18,1,1.13,1.13,0,0,0,1.1,1.15,1.1,1.1,0,0,0,1.18-1A1.15,1.15,0,0,0,125.22,278.22Z" transform="translate(-23.97 -62.66)" style="fill:#263238"/><path d="M126.68,277.57a3.16,3.16,0,0,0-3.59,0c-.38.29-.5.56-.43.63a7.88,7.88,0,0,1,2.23-.49c1.23,0,2.13.62,2.26.47S127.08,277.86,126.68,277.57Z" transform="translate(-23.97 -62.66)" style="fill:#263238"/><path d="M137,280.4a1.1,1.1,0,0,0,1.18-1,1.13,1.13,0,0,0-1.1-1.15,1.1,1.1,0,0,0-1.18,1A1.13,1.13,0,0,0,137,280.4Z" transform="translate(-23.97 -62.66)" style="fill:#263238"/><path d="M134.74,278.22c.14.14,1-.5,2.23-.49s2.13.62,2.27.47-.08-.34-.48-.63a3,3,0,0,0-3.54,0C134.8,277.88,134.67,278.15,134.74,278.22Z" transform="translate(-23.97 -62.66)" style="fill:#263238"/><path d="M128.54,287.1c-.31,0-.61-.1-.66-.31a1.59,1.59,0,0,1,.2-.93c.3-.76.61-1.56.93-2.39a42.07,42.07,0,0,0,2.09-6.25,40.45,40.45,0,0,0-2.59,6.06l-.88,2.41a1.81,1.81,0,0,0-.17,1.23.85.85,0,0,0,.52.46,2.33,2.33,0,0,0,.53.07,8.36,8.36,0,0,0,2,0A7.76,7.76,0,0,0,128.54,287.1Z" transform="translate(-23.97 -62.66)" style="fill:#263238"/><path d="M129.81,303.09c8.91.83,11.8-5.29,11.8-5.29a22.63,22.63,0,0,1-11.92,3.2Z" transform="translate(-23.97 -62.66)" style="fill:#eb996e"/><path d="M134.29,289.43a2.9,2.9,0,0,1-1,1.66,3.37,3.37,0,0,1-2.15.75h0a2.24,2.24,0,0,0,1.63.87,2,2,0,0,0,2-1.22A1.91,1.91,0,0,0,134.29,289.43Z" transform="translate(-23.97 -62.66)" style="fill:#eb996e"/><path d="M133.81,289.12a1.33,1.33,0,0,0-.9-.05,1,1,0,0,0-.65,1,1.07,1.07,0,0,0-1.32.74,1.14,1.14,0,0,0,0,.58,3.93,3.93,0,0,0,1.87-.81A3.36,3.36,0,0,0,133.81,289.12Z" transform="translate(-23.97 -62.66)" style="fill:#eb996e"/><path d="M130.85,291.37Z" transform="translate(-23.97 -62.66)" style="fill:#eb996e"/><path d="M133.3,291.09a2.9,2.9,0,0,0,1-1.66.4.4,0,0,1,0-.24c0-.56-.1-.89-.19-.88s-.15.34-.34.81a3.48,3.48,0,0,1-1,1.45,3.93,3.93,0,0,1-1.87.81h-.07c-.37.07-.63.09-.63.17s.31.26.91.28h0A3.32,3.32,0,0,0,133.3,291.09Z" transform="translate(-23.97 -62.66)" style="fill:#263238"/><path d="M136.45,276.41c1.45.15,2.61.57,2.8.27.09-.14-.11-.46-.58-.78a4.86,4.86,0,0,0-4.26-.47c-.53.21-.8.48-.75.63C133.79,276.4,135,276.24,136.45,276.41Z" transform="translate(-23.97 -62.66)" style="fill:#263238"/><path d="M124.91,275.82c1-.05,1.88.19,2.08-.1s0-.43-.43-.69a3,3,0,0,0-3.35.1c-.36.29-.48.58-.38.71C123,276.12,123.89,275.83,124.91,275.82Z" transform="translate(-23.97 -62.66)" style="fill:#263238"/><path d="M169.17,283.41a3.92,3.92,0,0,0-2.33-1.85c-.8-.2-1.68-.05-2.46-.33a3.36,3.36,0,0,1-1.79-1.91,16.82,16.82,0,0,1-.67-2.6c-.42-1.89-1.31-3.87-3.07-4.67-1-.46-2.15-.47-3.16-.88a6.78,6.78,0,0,1-3.17-3.26c-.54-1-1-2.1-1.53-3.12v.38s-.15-.35-.35-.88v.22a6.23,6.23,0,0,1-1.31,3.38c-1.8,2.6-6.68,4.16-11.12,2.23a5.2,5.2,0,0,1-2.51-2.41,21.11,21.11,0,0,1-1-3,6.62,6.62,0,0,0-3.2-3.91,7.15,7.15,0,0,0-3.38-.91c-.84,0-1.3.12-1.31.08s.11-.06.33-.12a5.6,5.6,0,0,1,1-.14,7.07,7.07,0,0,1,7,4.87,21.11,21.11,0,0,0,1,3,4.73,4.73,0,0,0,2.3,2.18,8.71,8.71,0,0,0,3.17.79,11,11,0,0,0,3.08-.2,7.56,7.56,0,0,0,4.4-2.59,6.42,6.42,0,0,0,1.39-3.19V264a6.9,6.9,0,0,0-1.28-2,10.57,10.57,0,0,0-3.07-2.09,2.09,2.09,0,0,1,1.13.2,6,6,0,0,1,3.59,3.89h.06a6.16,6.16,0,0,0,5.1-4.12,4.5,4.5,0,0,0-.41-4.18,4.34,4.34,0,0,0-3-1.52,6.25,6.25,0,0,0-5.6,2.24,5.7,5.7,0,0,0-1.17,3.86h0c-2.92-1.54-6.41-1.45-9.72-1.3-2.53.11-7.57-1.72-9.94,1.47a6.74,6.74,0,0,0-4.77.78,9.28,9.28,0,0,0-4,6.81c-.21,1.69-.08,3.51-.92,5s-2.73,2.44-4,3.8a6.7,6.7,0,0,0-.87,7.65c.74,1.3,2,2.59,1.63,4s-2.25,2.1-3.35,3.23c-1.64,1.69-1.38,4.41-.9,6.71a3.69,3.69,0,0,0,1.48,2.69,4.08,4.08,0,0,0,2.49.12c5.27-.73,10.61.38,15.92.67h.86V301s-6.83-1.14-8.24-10c-.71-4.43-.48-11.69-.11-17.62a14.81,14.81,0,0,1,3.58-8.79,2.73,2.73,0,0,1,3.86-.19,3,3,0,0,1,.48.58,5,5,0,0,1,.73,3.7c-.25,1.45-.43,3.05.35,4.3a4.28,4.28,0,0,0,4,1.7,12.77,12.77,0,0,0,4.29-1.38s1.09,5.64,4.84,7l-1.23,8.05c-.06,1.17-.07,2.2-.05,3.09a8,8,0,0,0,4.13,6.81,20.34,20.34,0,0,0,2.69,1.22,12.07,12.07,0,0,0,3.46.73,18.74,18.74,0,0,0,6.9-1.38q5.49-1.9,10.79-4.28a34.35,34.35,0,0,0,1.29-4.67c-.37-1.2-.73-2.4-1.1-3.6A11.36,11.36,0,0,0,169.17,283.41Z" transform="translate(-23.97 -62.66)" style="fill:#263238"/><path d="M137.85,282.48a.25.25,0,0,0,.12.33h0a.26.26,0,0,0,.33-.14h0a.25.25,0,0,0-.47-.19Z" transform="translate(-23.97 -62.66)" style="fill:#263238"/><path d="M147.24,260a2.09,2.09,0,0,0-1.13-.2,10.57,10.57,0,0,1,3.07,2.09,6.9,6.9,0,0,1,1.28,2v-.75a1.54,1.54,0,0,1,.09.33,5,5,0,0,1,0,.77c.2.53.29.9.35.88s0-.15,0-.38a4.81,4.81,0,0,0-.12-.76v-.12a6,6,0,0,0-3.59-3.89Z" transform="translate(-23.97 -62.66)" style="fill:#90caf9"/><path d="M150.56,263.52q-.06-.33-.09-.33a4.82,4.82,0,0,0,0,.75v.56a6.42,6.42,0,0,1-1.39,3.19,7.56,7.56,0,0,1-4.4,2.59,11,11,0,0,1-3.08.2,8.71,8.71,0,0,1-3.17-.79,4.73,4.73,0,0,1-2.3-2.18,21.11,21.11,0,0,1-1-3,7.07,7.07,0,0,0-7-4.87,5.6,5.6,0,0,0-1,.14q-.33.09-.33.12s.47-.08,1.31-.08a7.15,7.15,0,0,1,3.38.91,6.62,6.62,0,0,1,3.2,3.91,21.11,21.11,0,0,0,1,3,5.2,5.2,0,0,0,2.51,2.41c4.44,1.93,9.32.37,11.12-2.23a6.23,6.23,0,0,0,1.31-3.38v-.22A5.53,5.53,0,0,0,150.56,263.52Z" transform="translate(-23.97 -62.66)" style="fill:#455a64"/><rect x="79.07" y="90.8" width="64.58" height="64.58" rx="29.36" style="fill:#fff"/><path d="M111.67,208.57s11.14-4.52,21.37-5c17.63-.91,26.66,4.29,26.66,4.29s-8.23,11.36-26.64,10.33C118.24,217.32,111.67,208.57,111.67,208.57Z" transform="translate(-23.97 -62.66)" style="fill:#263238"/><path d="M137.42,216.51h0a9.27,9.27,0,0,1-9.07-8.87c-.15-3.57-.27-6.86-.27-6.86s-7.49-.79-7.94-8.21,0-24.55,0-24.55h0a25.85,25.85,0,0,1,26.1,2l1.14.79-.54,36.58a9.25,9.25,0,0,1-9.38,9.12Z" transform="translate(-23.97 -62.66)" style="fill:#ffbe9d"/><path d="M128.06,200.68a17.34,17.34,0,0,0,9.55-3.22s-2,5.45-9.47,5.14Z" transform="translate(-23.97 -62.66)" style="fill:#eb996e"/><path d="M146.85,178.56c.12-.06,5-1.76,5.11,3.33s-5,4.12-5.05,4S146.85,178.56,146.85,178.56Z" transform="translate(-23.97 -62.66)" style="fill:#ffbe9d"/><path d="M148.43,183.91a1.78,1.78,0,0,0,.25.13.94.94,0,0,0,.66,0,2.22,2.22,0,0,0,1-2,3.08,3.08,0,0,0-.27-1.27,1,1,0,0,0-.68-.67.45.45,0,0,0-.52.25.33.33,0,0,0,0,.26.28.28,0,0,1-.08-.3.57.57,0,0,1,.2-.32.66.66,0,0,1,.49-.14,1.22,1.22,0,0,1,.93.78,2.9,2.9,0,0,1,.33,1.41,2.29,2.29,0,0,1-1.25,2.22,1,1,0,0,1-.81-.12C148.45,184,148.42,183.92,148.43,183.91Z" transform="translate(-23.97 -62.66)" style="fill:#eb996e"/><path d="M123.7,180.27a1.05,1.05,0,0,0,1,1.07,1,1,0,0,0,1.09-.91v-.09a1.07,1.07,0,0,0-1-1.08,1,1,0,0,0-1.09.91Z" transform="translate(-23.97 -62.66)" style="fill:#263238"/><path d="M122.41,178.19c.13.14.94-.46,2.08-.45s2,.57,2.1.43-.07-.31-.43-.58a2.92,2.92,0,0,0-1.69-.51,2.73,2.73,0,0,0-1.65.53C122.46,177.88,122.35,178.13,122.41,178.19Z" transform="translate(-23.97 -62.66)" style="fill:#263238"/><path d="M134.68,180.4a1.05,1.05,0,0,0,1,1.07,1,1,0,0,0,1.09-.9v0a1.07,1.07,0,0,0-1-1.08,1,1,0,0,0-1.09.91Z" transform="translate(-23.97 -62.66)" style="fill:#263238"/><path d="M133.64,178.41c.14.13.94-.46,2.08-.46s2,.58,2.11.44-.07-.32-.44-.58a2.88,2.88,0,0,0-1.68-.52,2.74,2.74,0,0,0-1.66.53C133.7,178.09,133.58,178.34,133.64,178.41Z" transform="translate(-23.97 -62.66)" style="fill:#263238"/><path d="M129.5,186.88a7.34,7.34,0,0,0-1.86-.33c-.29,0-.57-.09-.62-.29a1.55,1.55,0,0,1,.2-.87l.86-2.22a38.09,38.09,0,0,0,1.94-5.81,38.36,38.36,0,0,0-2.4,5.64l-.83,2.24a1.67,1.67,0,0,0-.15,1.14.71.71,0,0,0,.48.43,1.68,1.68,0,0,0,.5.07A7.39,7.39,0,0,0,129.5,186.88Z" transform="translate(-23.97 -62.66)" style="fill:#263238"/><path d="M132.86,187.67c-.19,0-.19,1.23-1.25,2.11s-2.38.75-2.39.92.29.24.85.25a3.08,3.08,0,0,0,2-.69,2.71,2.71,0,0,0,1-1.77C133.08,188,132.94,187.66,132.86,187.67Z" transform="translate(-23.97 -62.66)" style="fill:#263238"/><path d="M133.35,173.93c.11.31,1.25.16,2.59.32s2.43.53,2.61.25c.08-.13-.11-.43-.55-.73a4.56,4.56,0,0,0-4-.43C133.55,173.53,133.3,173.78,133.35,173.93Z" transform="translate(-23.97 -62.66)" style="fill:#263238"/><path d="M122.83,174.88c.2.26,1,0,1.94,0s1.74.18,1.93-.1c.08-.13,0-.39-.4-.63a2.56,2.56,0,0,0-1.57-.43,2.69,2.69,0,0,0-1.54.52C122.85,174.49,122.74,174.76,122.83,174.88Z" transform="translate(-23.97 -62.66)" style="fill:#263238"/><path d="M116.36,163.12a2.75,2.75,0,0,1,1-2.46,2,2,0,0,1,2.52.19,2.27,2.27,0,0,1,1.73-2.71l.27,0c1.21-.08,2.24.84,3.42,1.16a5.6,5.6,0,0,0,3.47-.4c1.1-.45,2.13-1.06,3.24-1.47A9.51,9.51,0,0,1,144.15,163a4.22,4.22,0,0,1,4.47,1.69,6.9,6.9,0,0,1,1.06,4.88,14.89,14.89,0,0,1-.85,3.34v.29c-.08,4.08-.54,8.89-2.28,8.91-3,0-2.32-5.68-2.32-5.68-3.73-1.44-2.34-7-3.27-7.88s-2.89-2.82-10.7,1.17a15.14,15.14,0,0,1-9.27,1h-.27a6.67,6.67,0,0,1-2-.85A4,4,0,0,1,117,168a2.18,2.18,0,0,1,.42-2.33A4.87,4.87,0,0,1,116.36,163.12Z" transform="translate(-23.97 -62.66)" style="fill:#263238"/></svg>