<svg xmlns="http://www.w3.org/2000/svg" width="323" height="323" viewBox="0 0 323 323">
  <g id="privacy" transform="translate(-0.001)">
    <path id="Path_247" data-name="Path 247" d="M285.124,221.9c-14.785-3.107-56.921-14.936-74.113-32.128a9.463,9.463,0,0,0-13.382,0c-20.659,20.659-73.585,32.016-74.114,32.128A9.463,9.463,0,0,0,116,231.16v81.065c0,56.393,82.419,78.579,85.927,79.5a9.47,9.47,0,0,0,4.785,0c3.509-.917,85.928-23.1,85.928-79.5V231.16A9.462,9.462,0,0,0,285.124,221.9Z" transform="translate(-42.82 -69.029)" fill="#ff712f"/>
    <path id="Path_248" data-name="Path 248" d="M336.8,221.9c-14.785-3.107-56.921-14.936-74.113-32.128A9.431,9.431,0,0,0,256,187V392.029a9.5,9.5,0,0,0,2.393-.307c3.508-.917,85.927-23.1,85.927-79.5V231.16A9.462,9.462,0,0,0,336.8,221.9Z" transform="translate(-94.5 -69.029)" fill="#ff3f5c"/>
    <path id="Path_249" data-name="Path 249" d="M258.314,331.277a9.463,9.463,0,0,1-9.463-9.463V302.889a9.463,9.463,0,0,0-18.926,0v18.926a9.463,9.463,0,0,1-18.926,0V302.889a28.389,28.389,0,0,1,56.777,0v18.926A9.462,9.462,0,0,1,258.314,331.277Z" transform="translate(-77.888 -101.329)" fill="#61729b"/>
    <path id="Path_250" data-name="Path 250" d="M256,274.5v18.926a9.474,9.474,0,0,1,9.463,9.463v18.926a9.463,9.463,0,0,0,18.926,0V302.889A28.421,28.421,0,0,0,256,274.5Z" transform="translate(-94.5 -101.329)" fill="#47568c"/>
    <path id="Path_251" data-name="Path 251" d="M262.24,334.5H205.463A9.463,9.463,0,0,0,196,343.963v37.852a9.463,9.463,0,0,0,9.463,9.463H262.24a9.463,9.463,0,0,0,9.463-9.463V343.963A9.463,9.463,0,0,0,262.24,334.5Z" transform="translate(-72.351 -123.478)" fill="#edf5ff"/>
    <path id="Path_252" data-name="Path 252" d="M284.389,334.5H256v56.777h28.389a9.463,9.463,0,0,0,9.463-9.463V343.963A9.463,9.463,0,0,0,284.389,334.5Z" transform="translate(-94.5 -123.478)" fill="#d5e8fe"/>
    <path id="Path_253" data-name="Path 253" d="M269.756,31.5l-24.944-3.624-11.155-22.6a9.463,9.463,0,0,0-16.972,0l-11.155,22.6L180.586,31.5a9.463,9.463,0,0,0-5.244,16.141l18.05,17.594L189.131,90.08a9.463,9.463,0,0,0,13.73,9.976l22.31-11.73,22.31,11.73a9.471,9.471,0,0,0,13.642-10.49L256.95,65.238,275,47.644A9.464,9.464,0,0,0,269.756,31.5Z" transform="translate(-63.67)" fill="#ffe470"/>
    <path id="Path_254" data-name="Path 254" d="M449.879,87.942a9.462,9.462,0,0,0-7.638-6.44L417.3,77.878l-11.156-22.6a9.463,9.463,0,0,0-16.971,0l-11.156,22.6L353.07,81.5a9.463,9.463,0,0,0-5.244,16.141l18.05,17.594-4.261,24.843a9.463,9.463,0,0,0,13.73,9.976l22.31-11.73,22.31,11.73a9.342,9.342,0,0,0,4.431,1.087,9.471,9.471,0,0,0,9.211-11.577l-4.173-24.328,18.05-17.594a9.462,9.462,0,0,0,2.4-9.7Z" transform="translate(-127.341 -18.457)" fill="#ffcd00"/>
    <path id="Path_255" data-name="Path 255" d="M97.272,81.5,72.328,77.878l-11.155-22.6a9.463,9.463,0,0,0-16.971,0l-11.155,22.6L8.1,81.5A9.463,9.463,0,0,0,2.859,97.643l18.05,17.594L16.648,140.08a9.463,9.463,0,0,0,13.73,9.976l22.31-11.73L75,150.056a9.238,9.238,0,0,0,4.431,1.087,9.471,9.471,0,0,0,9.211-11.577l-4.173-24.328,18.05-17.594A9.464,9.464,0,0,0,97.272,81.5Z" transform="translate(0 -18.457)" fill="#ffe470"/>
    <path id="Path_256" data-name="Path 256" d="M308.224,37.942a9.462,9.462,0,0,0-7.638-6.44l-24.944-3.624-11.155-22.6A9.465,9.465,0,0,0,256,0V88.327l22.31,11.73a9.471,9.471,0,0,0,13.642-10.49L287.78,65.238l18.049-17.594a9.464,9.464,0,0,0,2.395-9.7Z" transform="translate(-94.5)" fill="#ffcd00"/>
  </g>
</svg>
