<svg xmlns="http://www.w3.org/2000/svg" width="309.361" height="292.238" viewBox="0 0 309.361 292.238">
  <g id="trusted" transform="translate(0 -13.161)">
    <path id="Path_142" data-name="Path 142" d="M85.071,215.917,90.849,171.2c0-16.042,20.208-29.738,34.619-15.328l9.824,9.824Z" transform="translate(-29.73 -47.751)" fill="#ffcebf"/>
    <path id="Path_143" data-name="Path 143" d="M140.3,165.7l-6.59,6.6h-.007l-9.823-9.823c-7.839-7.839-17.388-7.364-24.473-2.713,6.434-9.771,20.355-14.6,31.069-3.884Z" transform="translate(-34.742 -47.752)" fill="#ffb09e"/>
    <path id="Path_144" data-name="Path 144" d="M217.967,89.47l9.825,9.825-19.651,19.651-9.825-9.825A13.9,13.9,0,0,1,217.967,89.47Z" transform="translate(-67.886 -25.248)" fill="#ffcebf"/>
    <path id="Path_145" data-name="Path 145" d="M228.22,99.723l3.156,3.156L211.725,122.53l-3.156-3.156A13.9,13.9,0,0,1,228.22,99.723Z" transform="translate(-71.469 -28.831)" fill="#ffb09e"/>
    <path id="Path_146" data-name="Path 146" d="M187.762,119.676l9.825,9.825-19.646,19.646-9.825-9.825a13.892,13.892,0,1,1,19.646-19.646Z" transform="translate(-57.332 -35.802)" fill="#ffcebf"/>
    <path id="Path_147" data-name="Path 147" d="M198.02,129.934l3.151,3.151-19.646,19.646-3.151-3.151a13.892,13.892,0,1,1,19.646-19.646Z" transform="translate(-60.915 -39.385)" fill="#ffb09e"/>
    <path id="Path_148" data-name="Path 148" d="M157.56,149.876l9.825,9.825-19.651,19.651-9.825-9.825a13.9,13.9,0,1,1,19.651-19.651Z" transform="translate(-46.776 -46.356)" fill="#ffcebf"/>
    <path id="Path_149" data-name="Path 149" d="M167.818,160.133l3.151,3.151-19.651,19.651-3.151-3.151a13.9,13.9,0,1,1,19.651-19.651Z" transform="translate(-50.359 -49.94)" fill="#ffb09e"/>
    <path id="Path_150" data-name="Path 150" d="M127.354,180.084l9.825,9.825-19.646,19.646-9.825-9.825a13.892,13.892,0,1,1,19.646-19.646Z" transform="translate(-36.22 -56.914)" fill="#ffcebf"/>
    <path id="Path_151" data-name="Path 151" d="M137.612,190.342l3.151,3.151-19.646,19.646-3.151-3.151a13.892,13.892,0,1,1,19.646-19.646Z" transform="translate(-39.804 -60.497)" fill="#ffb09e"/>
    <g id="Group_89" data-name="Group 89" transform="translate(47.057 60.156)">
      <path id="Path_152" data-name="Path 152" d="M203.59,106.759l102.4,102.4L278.378,247l-42.534,32.3c-4.125-4.125-8.117-8.535-12.682-12.185a58.135,58.135,0,0,0-17.59-9.632,57.828,57.828,0,0,1-22.319-13.873L125,185.353Z" transform="translate(-90.741 -92.867)" fill="#ffcebf"/>
      <path id="Path_153" data-name="Path 153" d="M174.736,106.759l78.593,78.593-58.257,58.257a57.828,57.828,0,0,1-22.319,13.873c-12.474,4.222-21.225,12.77-30.272,21.817l-36.75-29.285L72.338,209.156Z" transform="translate(-72.338 -92.867)" fill="#ffcebf"/>
      <path id="Path_154" data-name="Path 154" d="M249.4,118.945l9.824-9.824a13.893,13.893,0,1,0-19.648-19.648L229.751,99.3Z" transform="translate(-127.351 -85.404)" fill="#ffcebf"/>
      <path id="Path_155" data-name="Path 155" d="M279.6,149.149l9.824-9.824a13.893,13.893,0,0,0-19.648-19.648l-9.824,9.824Z" transform="translate(-137.906 -95.96)" fill="#ffcebf"/>
      <path id="Path_156" data-name="Path 156" d="M309.8,179.352l9.824-9.824a13.893,13.893,0,0,0-19.648-19.648l-9.824,9.824Z" transform="translate(-148.461 -106.515)" fill="#ffcebf"/>
      <path id="Path_157" data-name="Path 157" d="M349.83,180.084a13.891,13.891,0,0,1,0,19.646l-9.825,9.825-19.646-19.646,9.825-9.825a13.86,13.86,0,0,1,9.821-4.071,14.215,14.215,0,0,1,3.593.474A13.817,13.817,0,0,1,349.83,180.084Z" transform="translate(-159.018 -117.07)" fill="#ffcebf"/>
    </g>
    <path id="Path_158" data-name="Path 158" d="M349.836,199.98l-9.829,9.829-19.646-19.646,9.823,9.816,9.823-9.823a13.872,13.872,0,0,0,3.6-13.42,13.9,13.9,0,0,1,6.232,23.243Z" transform="translate(-111.96 -57.167)" fill="#ffb09e"/>
    <path id="Path_159" data-name="Path 159" d="M300.9,218.173l-17.057,3.767-16.178,3.57a17.8,17.8,0,0,0-8.75,4.795l-31.434,31.434a57.772,57.772,0,0,1-22.319,13.876c-12.476,4.21-21.23,12.774-30.275,21.818l-6.1-2.693-3.714-7.13c9.042-9.042,17.8-17.61,30.269-21.818a57.9,57.9,0,0,0,22.313-13.876l27.7-27.7a9.388,9.388,0,0,0,0-13.277c-7.055-7.055-14.134-16.208-24.046-19.141l-24.427-7.234c-15.195-2.75-13.142-25.93,2.628-25.93h34.666c.371,0,.748.013,1.125.026,10.317.325,18.93,5.939,26.229,13.238l18.137,18.13c7.826,7.832,16.08,18.337,21.233,28.141Z" transform="translate(-57.689 -50.841)" fill="#ffb09e"/>
    <path id="Path_160" data-name="Path 160" d="M288.4,171.9l18.133,18.133c7.829,7.829,16.081,18.335,21.233,28.142l-17.051,3.767-22.521,4.968L260.281,199c-8.828-8.828-24.968-11.013-36.537-14.439-15.484-2.771-12.826-25.925,2.631-25.924H261.04c.368,0,.745.009,1.127.023,10.317.327,18.928,5.938,26.228,13.238Z" transform="translate(-74.569 -50.842)" fill="#ffcebf"/>
    <path id="Path_161" data-name="Path 161" d="M304.193,171.9l18.133,18.133c7.829,7.829,16.081,18.335,21.233,28.142l9.112,9.112-27.609,37.847-42.534,32.3c-4.125-4.125-8.117-8.535-12.682-12.185l40.7-40.7,8.885-8.885a17.022,17.022,0,0,0,1.914-21.786c-6.744-9.657-14.418-19.849-18.411-23.842L284.8,171.9c-7.3-7.3-15.907-12.907-26.224-13.243-.189,0,18.261-.018,18.261-.018.368,0,.745.009,1.127.023,10.317.326,18.928,5.937,26.228,13.237Z" transform="translate(-90.367 -50.842)" fill="#ffb09e"/>
    <g id="Group_90" data-name="Group 90" transform="translate(149.802 13.161)">
      <path id="Path_162" data-name="Path 162" d="M235.16,32.893a4.879,4.879,0,0,1-4.879-4.879V18.04a4.879,4.879,0,1,1,9.758,0v9.974A4.879,4.879,0,0,1,235.16,32.893Z" transform="translate(-230.281 -13.161)" fill="#fff0ad"/>
    </g>
    <g id="Group_91" data-name="Group 91" transform="translate(122.762 18.723)">
      <path id="Path_163" data-name="Path 163" d="M197.593,40.611a4.879,4.879,0,0,1-4.472-2.925l-4-9.139a4.879,4.879,0,0,1,8.94-3.91l4,9.138a4.882,4.882,0,0,1-4.468,6.836Z" transform="translate(-188.714 -21.711)" fill="#fff0ad"/>
    </g>
    <g id="Group_92" data-name="Group 92" transform="translate(100.218 34.655)">
      <path id="Path_164" data-name="Path 164" d="M166.259,62.732a4.862,4.862,0,0,1-3.311-1.3l-7.324-6.772a4.879,4.879,0,0,1,6.625-7.165l7.324,6.772a4.879,4.879,0,0,1-3.314,8.461Z" transform="translate(-154.058 -46.202)" fill="#fff0ad"/>
    </g>
    <g id="Group_93" data-name="Group 93" transform="translate(172.844 18.725)">
      <path id="Path_165" data-name="Path 165" d="M270.579,40.611a4.881,4.881,0,0,1-4.468-6.834l4-9.138a4.879,4.879,0,0,1,8.941,3.909l-4,9.139A4.883,4.883,0,0,1,270.579,40.611Z" transform="translate(-265.701 -21.714)" fill="#fff0ad"/>
    </g>
    <g id="Group_94" data-name="Group 94" transform="translate(192.062 34.655)">
      <path id="Path_166" data-name="Path 166" d="M300.124,62.733a4.879,4.879,0,0,1-3.314-8.461l7.324-6.772a4.879,4.879,0,1,1,6.625,7.165l-7.324,6.772a4.86,4.86,0,0,1-3.311,1.3Z" transform="translate(-295.243 -46.202)" fill="#fff0ad"/>
    </g>
    <path id="Path_167" data-name="Path 167" d="M360.5,264.168l33.653,33.653-36.108,40.63-45.788,41.266-29.6-29.6a5.728,5.728,0,0,1,0-8.1Z" transform="translate(-98.196 -87.722)" fill="#f1d3f8"/>
    <path id="Path_168" data-name="Path 168" d="M406.058,311l-36.106,40.631L324.165,392.9l-9.114-9.114,81.9-81.894Z" transform="translate(-110.104 -100.908)" fill="#d7ace0"/>
    <path id="Path_169" data-name="Path 169" d="M410.957,315.9l11.728,11.728a5.728,5.728,0,0,1,0,8.1l-73.8,73.8a5.728,5.728,0,0,1-8.1,0L329.06,397.8Z" transform="translate(-115 -105.801)" fill="#fbc2e2"/>
    <path id="Path_170" data-name="Path 170" d="M424.972,337.985l-73.795,73.788a5.732,5.732,0,0,1-8.105,0l-7.461-7.468a5.721,5.721,0,0,0,8.027-.065l73.8-73.795a5.736,5.736,0,0,0,0-8.1l7.533,7.533a5.731,5.731,0,0,1,0,8.105Z" transform="translate(-117.289 -108.054)" fill="#d830b1"/>
    <path id="Path_171" data-name="Path 171" d="M54.26,264.168l77.846,77.846a5.728,5.728,0,0,1,0,8.1l-29.6,29.6L60.726,342.711l-40.119-44.89Z" transform="translate(-7.202 -87.722)" fill="#ddeafb"/>
    <path id="Path_172" data-name="Path 172" d="M145.245,350.111l-5.151,5.155L58.2,273.365l9.2-9.2,77.845,77.845a5.727,5.727,0,0,1,0,8.1Z" transform="translate(-20.34 -87.722)" fill="#cbe2ff"/>
    <circle id="Ellipse_10" data-name="Ellipse 10" cx="5.498" cy="5.498" r="5.498" transform="translate(89.803 253.441)" fill="#fff9df"/>
    <path id="Path_173" data-name="Path 173" d="M13.405,315.9l81.9,81.9L83.574,409.523a5.728,5.728,0,0,1-8.1,0l-73.8-73.8a5.728,5.728,0,0,1,0-8.1Z" transform="translate(0 -105.801)" fill="#528fd8"/>
    <path id="Path_174" data-name="Path 174" d="M0,0H11.157V115.818H0Z" transform="translate(5.491 217.971) rotate(-45)" fill="#0473ce"/>
  </g>
</svg>
